<?xml version="1.0" encoding="UTF-8"?>
<svg width="38px" height="38px" viewBox="0 0 38 38" version="1.1" xmlns="http://www.w3.org/2000/svg" xmlns:xlink="http://www.w3.org/1999/xlink">
    <title>clipchain-iso</title>
    <defs>
        <path d="M0,0 L38,0 L38,38 L0,38 L0,0 Z" id="path-1"></path>
    </defs>
    <g id="clipchain-iso" stroke="none" fill="none" xlink:href="#path-1" fill-rule="nonzero">
        <path d="M4.96735912,5.06207495 C10.3624249,-0.289130102 19.1095548,-0.289130102 24.5046206,5.06207495 L33.1023351,13.5898919 L33.3028648,13.791321 C38.4574458,19.0707468 38.4700138,27.472814 33.3042731,32.765444 L33.1538845,32.9171893 L33.0595786,33.0107284 C27.6881266,38.3385117 18.9792821,38.3385117 13.60783,33.0107284 L4.96735912,24.4405027 C-0.427706664,19.0892976 -0.427706664,10.41328 4.96735912,5.06207495 Z M30.8268145,15.6419338 C26.6438343,11.6473989 19.9878934,11.6952407 15.8641497,15.7854593 L15.7786368,15.870277 C11.6060883,20.0089036 11.6060883,26.7189431 15.7786368,30.8575698 L15.8825684,30.9580078 C20.0418558,34.9313353 26.6439468,34.934178 30.8045104,30.9391214 L30.9315282,30.815161 C35.1276905,26.6531126 35.1276905,19.9050989 30.9315282,15.7430505 L30.8268145,15.6419338 Z M21.1047651,19.2526721 C21.1623142,19.2526721 21.2187814,19.2671978 21.2681294,19.2946961 L28.2715307,23.1972165 C28.4219034,23.281009 28.4706638,23.4621483 28.3804402,23.6018025 C28.3536255,23.6433081 28.3162219,23.6780455 28.2715307,23.7029489 L21.2681294,27.6054694 C21.1177567,27.6892619 20.9227148,27.643977 20.8324912,27.5043229 C20.8028824,27.4584924 20.7872419,27.4060502 20.7872419,27.3526031 L20.7872419,19.5475623 C20.7872419,19.3846989 20.9294019,19.2526721 21.1047651,19.2526721 Z M24.1428207,9.65529924 C20.0774621,7.49877675 14.9083433,8.12086062 11.4797796,11.5215509 C8.05121588,14.9222411 7.42403314,20.049336 9.59816164,24.0814839 C9.40149036,20.3549047 10.7380465,16.5635711 13.60783,13.7171183 L13.6933429,13.6323007 C16.5402124,10.8085755 20.3245556,9.4814247 24.0526503,9.65084821 L24.1428207,9.65529924 Z M19.7309083,5.31202506 C15.6764085,3.19971181 10.546998,3.83411466 7.13816595,7.21523359 C3.69490129,10.6305052 3.07709254,15.7870182 5.28434,19.8271176 C5.07250219,16.068476 6.41404645,12.2397834 9.30897277,9.36839223 C12.1683576,6.53225355 15.9693373,5.19926837 19.7138213,5.36943669 L19.8534401,5.3768753 L19.7309083,5.31202506 Z" id="Shape" fill="#0155D2"></path>
    </g>
</svg>