<?xml version="1.0" encoding="UTF-8"?>
<svg version="1.1" xmlns="http://www.w3.org/2000/svg" width="157" height="131">
<path d="M0 0 C1.12298744 -0.01007584 1.12298744 -0.01007584 2.2686615 -0.02035522 C4.73540955 -0.03930033 7.20188496 -0.04325778 9.66870117 -0.04541016 C11.39117035 -0.05184105 13.11363844 -0.05856963 14.83610535 -0.06558228 C18.4447991 -0.0775467 22.05339719 -0.08126401 25.66210938 -0.08007812 C30.27211697 -0.07987511 34.88150691 -0.10716288 39.49136829 -0.14162254 C43.04915651 -0.1639303 46.60679708 -0.16791447 50.16464806 -0.16685867 C51.8634116 -0.16920935 53.56217953 -0.17800268 55.26087379 -0.19352341 C65.44399986 -0.27784636 73.05827459 -0.32206408 81.14916992 6.66552734 C85.92116395 12.23285371 88.50373937 16.4736357 88.57617188 23.82836914 C88.59542473 25.53110237 88.59542473 25.53110237 88.61506653 27.26823425 C88.62245346 28.49633316 88.62984039 29.72443207 88.63745117 30.98974609 C88.64552292 32.25389847 88.65359467 33.51805084 88.66191101 34.82051086 C88.67575347 37.49959985 88.68676873 40.17856575 88.69433594 42.85766602 C88.70536975 46.27278347 88.73973799 49.68724383 88.77950764 53.10212994 C88.81210653 56.37710282 88.81646458 59.65213572 88.82495117 62.92724609 C88.84245926 64.14522385 88.85996735 65.3632016 88.87800598 66.61808777 C88.85718968 74.8072081 87.78381217 80.04698663 82.58276367 86.56787109 C82.00655273 87.11572266 81.4303418 87.66357422 80.83666992 88.22802734 C80.25788086 88.79392578 79.6790918 89.35982422 79.08276367 89.94287109 C77.39916992 91.29052734 77.39916992 91.29052734 74.39916992 92.29052734 C74.36944092 90.36974365 74.36944092 90.36974365 74.33911133 88.41015625 C74.26254523 83.62025611 74.17390979 78.83063973 74.08178711 74.04101562 C74.04370676 71.97531777 74.00881894 69.90955832 73.97729492 67.84375 C73.93118604 64.85964062 73.87327112 61.8759477 73.81323242 58.89208984 C73.80168121 57.98125641 73.79013 57.07042297 73.77822876 56.13198853 C73.51395336 44.42551237 71.34042909 33.41474614 63.27416992 24.47802734 C55.22494239 17.04391545 45.34784573 15.23239018 34.72949219 15.08520508 C33.44869278 15.06525986 32.16789337 15.04531464 30.84828186 15.02476501 C29.47071448 15.00778721 28.09314589 14.99090817 26.71557617 14.97412109 C25.29067932 14.95352046 23.86578815 14.93252324 22.44090271 14.91114807 C18.71083206 14.85624813 14.98070923 14.80669896 11.25054932 14.75830078 C7.43611061 14.70784982 3.62174664 14.65228757 -0.19262695 14.59716797 C-7.66196451 14.48997945 -15.13136468 14.38844912 -22.60083008 14.29052734 C-21.1661643 10.45438149 -19.92815271 8.27457815 -16.78833008 5.60302734 C-16.12188477 5.02166016 -15.45543945 4.44029297 -14.76879883 3.84130859 C-10.04727332 0.46392909 -5.67952152 -0.00736644 0 0 Z " fill="#000000" transform="translate(59.600830078125,5.70947265625)"/>
<path d="M0 0 C1.12298744 -0.01007584 1.12298744 -0.01007584 2.2686615 -0.02035522 C4.73540955 -0.03930033 7.20188496 -0.04325778 9.66870117 -0.04541016 C11.39117035 -0.05184105 13.11363844 -0.05856963 14.83610535 -0.06558228 C18.4447991 -0.0775467 22.05339719 -0.08126401 25.66210938 -0.08007812 C30.27211697 -0.07987511 34.88150691 -0.10716288 39.49136829 -0.14162254 C43.04915651 -0.1639303 46.60679708 -0.16791447 50.16464806 -0.16685867 C51.8634116 -0.16920935 53.56217953 -0.17800268 55.26087379 -0.19352341 C71.57169355 -0.32858768 71.57169355 -0.32858768 78.39916992 4.29052734 C79.28604492 4.82677734 80.17291992 5.36302734 81.08666992 5.91552734 C87.2469867 12.24233917 88.9707258 19.30014547 89.04260254 27.93449402 C89.02620728 29.1077272 89.00981201 30.28096039 88.99291992 31.48974609 C88.99296021 32.72416946 88.99300049 33.95859283 88.99304199 35.23042297 C88.98770753 37.82481005 88.97021464 40.41919785 88.94116211 43.01342773 C88.89918356 46.9767402 88.90011115 50.93835728 88.90698242 54.90185547 C88.89649289 57.43116411 88.88355607 59.96046403 88.86791992 62.48974609 C88.8676178 64.25870491 88.8676178 64.25870491 88.86730957 66.06340027 C88.74813261 74.36494298 87.73215009 80.18684806 82.02416992 86.54052734 C81.17725586 87.50732422 81.17725586 87.50732422 80.31323242 88.49365234 C75.62239528 92.89729537 71.63979382 93.73521439 65.33935547 93.71044922 C64.54192932 93.71891876 63.74450317 93.72738831 62.9229126 93.7361145 C60.29374113 93.75946161 57.66515586 93.76050705 55.03588867 93.75927734 C53.20131701 93.76638152 51.36674757 93.77408089 49.53218079 93.78234863 C45.68805771 93.79578906 41.84413998 93.79736472 38 93.79150391 C33.08718213 93.78561543 28.1753551 93.81616584 23.26272869 93.85662079 C19.4732996 93.88254504 15.68410736 93.88537079 11.89460182 93.88172913 C10.08419116 93.88341669 8.27376912 93.89302411 6.46344566 93.91087341 C-10.62272021 94.06077346 -10.62272021 94.06077346 -16.23576355 89.64416504 C-16.6862355 89.1974646 -17.13670746 88.75076416 -17.60083008 88.29052734 C-18.08171585 87.82610229 -18.56260162 87.36167725 -19.05805969 86.88317871 C-25.8377222 79.54133678 -26.06792585 72.21450446 -26.06958008 62.70849609 C-26.0771936 61.49913895 -26.08480713 60.2897818 -26.09265137 59.04377747 C-26.10343158 56.49120136 -26.10631397 53.93858122 -26.10180664 51.38598633 C-26.10083587 47.50119597 -26.14245483 43.61839153 -26.18676758 39.73388672 C-26.19197628 37.2462606 -26.19466274 34.75862766 -26.19458008 32.27099609 C-26.21097534 31.11963669 -26.22737061 29.96827728 -26.2442627 28.7820282 C-26.17085954 20.12224363 -24.18601562 13.52756481 -18.53833008 6.85302734 C-17.57926758 6.07958984 -17.57926758 6.07958984 -16.60083008 5.29052734 C-15.96145508 4.75427734 -15.32208008 4.21802734 -14.66333008 3.66552734 C-9.91758767 0.50169907 -5.5979127 -0.00726059 0 0 Z M21.11547852 30.30395508 C18.61948256 33.19299051 18.91296153 35.29818015 18.93823242 39.07568359 C18.93914886 39.73257675 18.94006531 40.38946991 18.94100952 41.06626892 C18.94704265 42.45237471 18.96278055 43.83846763 18.98754883 45.22436523 C19.02410269 47.34911951 19.02856791 49.47213184 19.02807617 51.59716797 C18.53714577 58.53725036 18.53714577 58.53725036 21.39916992 64.29052734 C27.7320255 65.50532039 32.46571263 61.82489685 37.64916992 58.66552734 C39.01428711 57.88242188 39.01428711 57.88242188 40.40698242 57.08349609 C44.27652986 54.75832293 46.89841821 53.15051398 49.19604492 49.20458984 C49.58077064 46.313464 49.58077064 46.313464 48.57885742 43.77490234 C45.40460091 40.15693255 41.64473569 37.97094054 37.52416992 35.54052734 C36.31954102 34.79996094 36.31954102 34.79996094 35.09057617 34.04443359 C28.49109519 29.68390258 28.49109519 29.68390258 21.11547852 30.30395508 Z " fill="#000000" transform="translate(34.600830078125,30.70947265625)"/>
</svg>
