<?xml version="1.0" encoding="UTF-8"?>
<svg version="1.1" xmlns="http://www.w3.org/2000/svg" width="298" height="147">
<path d="M0 0 C0.82267365 -0.00860046 1.64534729 -0.01720093 2.49295044 -0.02606201 C3.39217728 -0.03032196 4.29140411 -0.03458191 5.21788025 -0.03897095 C6.16785889 -0.04714844 7.11783752 -0.05532593 8.09660339 -0.06375122 C11.24631625 -0.08859871 14.39598393 -0.10512276 17.54576111 -0.11953735 C19.16124753 -0.12752287 19.16124753 -0.12752287 20.80937004 -0.13566971 C26.51372948 -0.16240292 32.21806707 -0.18177429 37.92247009 -0.19619751 C42.63555892 -0.20951912 47.34821299 -0.23733921 52.06114197 -0.27822876 C57.75753382 -0.32764969 63.45353224 -0.35233081 69.15012932 -0.35942459 C71.31616444 -0.36612195 73.48219132 -0.38130428 75.64810371 -0.4053154 C78.69005126 -0.4371046 81.73049619 -0.4369824 84.77256775 -0.42959595 C86.10015358 -0.45420395 86.10015358 -0.45420395 87.45455933 -0.47930908 C95.01093034 -0.40469298 101.77805678 1.9948401 107.20201111 7.3999939 C107.84976501 8.48473999 107.84976501 8.48473999 108.51060486 9.59140015 C108.96564392 10.31198608 109.42068298 11.03257202 109.88951111 11.7749939 C112.21185289 16.99383576 112.08078702 22.41308493 112.01060486 28.02890015 C111.98997986 30.38015015 111.96935486 32.73140015 111.94810486 35.15390015 C102.70810486 35.15390015 93.46810486 35.15390015 83.94810486 35.15390015 C83.94810486 32.51390015 83.94810486 29.87390015 83.94810486 27.15390015 C58.86810486 27.15390015 33.78810486 27.15390015 7.94810486 27.15390015 C7.94810486 46.95390015 7.94810486 66.75390015 7.94810486 87.15390015 C33.02810486 87.15390015 58.10810486 87.15390015 83.94810486 87.15390015 C83.94810486 84.51390015 83.94810486 81.87390015 83.94810486 79.15390015 C93.18810486 79.15390015 102.42810486 79.15390015 111.94810486 79.15390015 C112.25464215 90.49577985 112.43569604 99.95485955 104.94810486 109.15390015 C100.65864916 112.39287689 97.28280651 114.26577949 91.89620972 114.30780029 C91.07353607 114.31640076 90.25086243 114.32500122 89.40325928 114.3338623 C88.50403244 114.33812225 87.6048056 114.3423822 86.67832947 114.34677124 C85.72835083 114.35494873 84.77837219 114.36312622 83.79960632 114.37155151 C80.64989347 114.396399 77.50022579 114.41292305 74.35044861 114.42733765 C73.27345766 114.43266132 72.19646671 114.437985 71.08683968 114.44347 C65.38248023 114.47020321 59.67814265 114.48957458 53.97373962 114.5039978 C49.2606508 114.51731941 44.54799673 114.54513951 39.83506775 114.58602905 C34.1386759 114.63544998 28.44267748 114.6601311 22.7460804 114.66722488 C20.58004527 114.67392224 18.41401839 114.68910457 16.248106 114.71311569 C13.20615846 114.7449049 10.16571352 114.74478269 7.12364197 114.73739624 C6.23858475 114.75380157 5.35352753 114.77020691 4.44165039 114.78710938 C-3.11472062 114.71249327 -9.88184706 112.31296019 -15.30580139 106.9078064 C-15.73763733 106.18464233 -16.16947327 105.46147827 -16.61439514 104.71640015 C-17.0694342 103.99581421 -17.52447327 103.27522827 -17.99330139 102.5328064 C-20.21564422 97.53868543 -20.18080259 92.30540353 -20.19715881 86.91439819 C-20.20051743 86.21596802 -20.20387604 85.51753784 -20.20733643 84.79794312 C-20.21678473 82.50381662 -20.2187865 80.2097636 -20.21986389 77.9156189 C-20.22308094 76.30907665 -20.22644534 74.70253469 -20.22994995 73.09599304 C-20.23592608 69.73288291 -20.23779143 66.36979842 -20.23719788 63.00668335 C-20.23709639 58.71647509 -20.25074138 54.42643283 -20.26797009 50.13626385 C-20.27913886 46.81865192 -20.28111558 43.50107949 -20.28058815 40.1834507 C-20.2817612 38.60275514 -20.28614468 37.02205832 -20.29392052 35.44138145 C-20.39452154 12.87770114 -20.39452154 12.87770114 -13.05189514 5.15390015 C-8.76827133 1.89834605 -5.39063292 0.04205229 0 0 Z " fill="#000000" transform="translate(31.051895141601563,16.846099853515625)"/>
<path d="M0 0 C0.83535278 -0.00852997 1.67070557 -0.01705994 2.53137207 -0.02584839 C3.89355865 -0.02448883 3.89355865 -0.02448883 5.28326416 -0.02310181 C6.24635498 -0.02981903 7.2094458 -0.03653625 8.20172119 -0.04345703 C11.38813427 -0.0624664 14.57433696 -0.06636301 17.76080322 -0.06851196 C19.97794684 -0.07493884 22.19508961 -0.08166712 24.41223145 -0.08868408 C29.06262172 -0.10066492 33.71293767 -0.10436417 38.36334229 -0.10317993 C44.31291986 -0.10297693 50.26201876 -0.13025647 56.211483 -0.16472435 C60.79266534 -0.18700066 65.37373273 -0.19101721 69.95496368 -0.18996048 C72.14774471 -0.1923162 74.34052893 -0.20113804 76.53325653 -0.21662521 C79.60651274 -0.2362953 82.67874018 -0.23044221 85.75201416 -0.21841431 C86.65204163 -0.22965332 87.55206909 -0.24089233 88.47937012 -0.25247192 C95.31481315 -0.18474194 100.57741885 1.50689042 105.79986572 6.01351929 C106.46888916 6.85076538 106.46888916 6.85076538 107.15142822 7.70492554 C107.84365479 8.53830444 107.84365479 8.53830444 108.54986572 9.38851929 C111.65851087 14.15048845 112.07391991 18.55479329 112.06695557 24.1277771 C112.07367279 24.90408981 112.08039001 25.68040253 112.08731079 26.48023987 C112.10626404 29.03957575 112.11021394 31.59864889 112.11236572 34.15805054 C112.11879668 35.94538479 112.12552526 37.73271799 112.13253784 39.52005005 C112.14450476 43.26578205 112.14821939 47.01142187 112.14703369 50.75717163 C112.14683081 55.53970627 112.17410403 60.32164466 112.20857811 65.10403824 C112.23090003 68.79654616 112.23486958 72.48891195 112.23381424 76.18148041 C112.23616334 77.94361165 112.24494771 79.70574722 112.26047897 81.46781158 C112.41988234 101.42480356 112.41988234 101.42480356 105.99697876 108.12319946 C101.96894378 111.82622813 98.15944115 114.50887285 92.55285645 114.53485107 C91.29982727 114.54764603 91.29982727 114.54764603 90.02148438 114.56069946 C88.65929779 114.5593399 88.65929779 114.5593399 87.26959229 114.55795288 C86.30650146 114.5646701 85.34341064 114.57138733 84.35113525 114.57830811 C81.16472218 114.59731747 77.97851949 114.60121408 74.79205322 114.60336304 C72.5749096 114.60978992 70.35776683 114.6165182 68.140625 114.62353516 C63.49023473 114.63551599 58.83991878 114.63921525 54.18951416 114.63803101 C48.23993659 114.637828 42.29083769 114.66510754 36.34137344 114.69957542 C31.7601911 114.72185173 27.17912371 114.72586828 22.59789276 114.72481155 C20.40511173 114.72716727 18.21232752 114.73598911 16.01959991 114.75147629 C12.9463437 114.77114638 9.87411626 114.76529329 6.80084229 114.75326538 C5.45080109 114.7701239 5.45080109 114.7701239 4.07348633 114.787323 C-2.7619567 114.71959302 -8.0245624 113.02796066 -13.24700928 108.52133179 C-13.6930249 107.96316772 -14.13904053 107.40500366 -14.59857178 106.82992554 C-15.06005615 106.2743396 -15.52154053 105.71875366 -15.99700928 105.14633179 C-19.56996008 99.67311733 -19.47049316 94.79214019 -19.34857178 88.45492554 C-19.30732178 85.42305054 -19.26607178 82.39117554 -19.22357178 79.26742554 C-10.31357178 79.26742554 -1.40357178 79.26742554 7.77642822 79.26742554 C7.77642822 81.90742554 7.77642822 84.54742554 7.77642822 87.26742554 C33.18642822 87.26742554 58.59642822 87.26742554 84.77642822 87.26742554 C84.77642822 67.46742554 84.77642822 47.66742554 84.77642822 27.26742554 C59.36642822 27.26742554 33.95642822 27.26742554 7.77642822 27.26742554 C7.77642822 29.90742554 7.77642822 32.54742554 7.77642822 35.26742554 C-1.13357178 35.26742554 -10.04357178 35.26742554 -19.22357178 35.26742554 C-19.99239488 14.66296638 -19.99239488 14.66296638 -14.22357178 7.26742554 C-10.26393902 3.02423852 -5.89119379 0.02729697 0 0 Z " fill="#000000" transform="translate(173.22357177734375,16.732574462890625)"/>
<path d="M0 0 C0.87597839 -0.00571014 1.75195679 -0.01142029 2.65447998 -0.01730347 C3.60778702 -0.01842133 4.56109406 -0.01953918 5.54328918 -0.02069092 C6.55354156 -0.02565582 7.56379395 -0.03062073 8.60466003 -0.03573608 C11.94854921 -0.05034632 15.29239091 -0.05715849 18.63630676 -0.06268311 C20.96315512 -0.0684363 23.29000347 -0.07419401 25.61685181 -0.07995605 C30.49842042 -0.09046336 35.37997257 -0.09630754 40.2615509 -0.09979248 C46.50463112 -0.105271 52.74749256 -0.12928666 58.99050426 -0.15776443 C63.79903795 -0.17642673 68.60751936 -0.18159838 73.4160862 -0.18312836 C75.71688849 -0.18614822 78.01769001 -0.19415413 80.31845665 -0.20731354 C83.54460958 -0.22444581 86.77023371 -0.22247587 89.99641418 -0.21600342 C90.93960007 -0.2252182 91.88278595 -0.23443298 92.85455322 -0.243927 C99.85899349 -0.20010071 106.60702699 0.60207752 112.09333801 5.26544189 C114.15428871 9.21559739 114.92149008 12.68367889 114.59333801 17.14044189 C113.10922467 21.45183262 110.60042266 24.88645678 106.59333801 27.14044189 C103.70620357 28.01963351 101.10821993 28.26934601 98.09729004 28.28088379 C97.20159302 28.28659393 96.305896 28.29230408 95.38305664 28.29818726 C93.92033073 28.29986404 93.92033073 28.29986404 92.42805481 28.30157471 C91.3950827 28.30653961 90.3621106 28.31150452 89.2978363 28.31661987 C85.87940302 28.3312289 82.46101614 28.33804133 79.04255676 28.34356689 C76.66607665 28.34931925 74.28959654 28.35507697 71.91311646 28.36083984 C66.92899866 28.37134616 61.94489697 28.37719129 56.96076965 28.38067627 C50.57849031 28.38616107 44.19642429 28.41019059 37.81421185 28.43864822 C32.90453471 28.45728368 27.99490887 28.46248069 23.08519936 28.46401215 C20.73250474 28.46703699 18.37981099 28.4750598 16.02715111 28.48819733 C12.73353777 28.50527681 9.44044462 28.5033727 6.14680481 28.49688721 C4.69318794 28.51070938 4.69318794 28.51070938 3.21020508 28.52481079 C-3.99599236 28.48042421 -8.81531364 27.45611489 -14.34416199 22.51544189 C-16.98147444 18.1998397 -17.37082448 15.07624619 -16.40666199 10.14044189 C-14.37216533 6.21676977 -12.2231627 3.4064892 -8.40666199 1.14044189 C-5.55078167 0.26736312 -2.9788739 0.01167585 0 0 Z " fill="#000000" transform="translate(99.40666198730469,59.85955810546875)"/>
</svg>
