<?xml version="1.0" encoding="UTF-8"?>
<svg version="1.1" xmlns="http://www.w3.org/2000/svg" width="1283" height="261">
<path d="M0 0 C1.2348262 -0.0071553 2.4696524 -0.01431061 3.74189758 -0.02168274 C5.10258459 -0.02452267 6.46327186 -0.02723443 7.82395935 -0.02983093 C9.26333783 -0.03610065 10.70271471 -0.0427479 12.14208984 -0.04974365 C16.86212549 -0.07073142 21.58216126 -0.08114321 26.30223083 -0.09111023 C27.93178257 -0.09516019 29.56133414 -0.09927718 31.19088554 -0.10346031 C38.85073552 -0.12250281 46.51057594 -0.13673408 54.17044502 -0.14507228 C62.9890174 -0.15483219 71.80733794 -0.18112296 80.62582165 -0.22157317 C87.45662882 -0.25182177 94.28736416 -0.26654953 101.11823696 -0.26985329 C105.19090306 -0.2721944 109.26329986 -0.281031 113.33589363 -0.30631447 C117.17325442 -0.32975307 121.01017161 -0.33376585 124.84758568 -0.32355309 C126.24710194 -0.32306137 127.64664122 -0.32927282 129.04608917 -0.34310913 C143.74935683 -0.4802107 155.94500107 3.26734109 167.07957458 13.10810852 C182.22236979 28.7750774 182.17726488 47.65547247 182.16160583 68.11592102 C182.16550057 70.24478742 182.16983682 72.37365305 182.17459106 74.5025177 C182.18201907 78.94708281 182.18178634 83.39156843 182.17649841 87.83613586 C182.17069987 93.50476796 182.187661 99.17307373 182.21084309 104.84165192 C182.22563892 109.23253755 182.22644432 113.62334556 182.22333336 118.01425171 C182.22384335 120.10323738 182.22901986 122.19222777 182.23914528 124.28118896 C182.30266787 139.21320633 181.54814813 151.93602218 173.86082458 165.14717102 C173.49215271 165.7839679 173.12348083 166.42076477 172.74363708 167.07685852 C167.14557466 175.76350711 157.3955529 181.66899647 147.86082458 185.14717102 C142.54219351 185.97420249 137.30546675 185.99102197 131.94139099 185.95527649 C130.37612983 185.96670781 128.8108853 185.98064552 127.2456665 185.99687195 C123.02838527 186.03250535 118.81194143 186.03044251 114.59455538 186.01898718 C111.05859097 186.0127692 107.52278351 186.02502608 103.98684156 186.03706467 C95.63708367 186.06507678 87.28773537 186.06209912 78.93797302 186.03926086 C70.35789486 186.01630952 61.77906784 186.04444617 53.1991545 186.09805381 C45.80078928 186.142528 38.40281451 186.15560687 31.00432527 186.14390099 C26.59951366 186.13719664 22.19550348 186.14175456 17.79080582 186.17640305 C13.6450499 186.20759673 9.50113059 186.19915955 5.35544395 186.16179276 C3.84551376 186.15448964 2.33544356 186.16043553 0.82564354 186.18156433 C-13.21238611 186.36282376 -22.79810543 181.52310287 -33.13917542 172.14717102 C-33.13917542 171.48717102 -33.13917542 170.82717102 -33.13917542 170.14717102 C-33.79917542 170.14717102 -34.45917542 170.14717102 -35.13917542 170.14717102 C-36.72511292 168.23310852 -36.72511292 168.23310852 -38.51417542 165.52217102 C-39.09940979 164.6636554 -39.68464417 163.80513977 -40.28761292 162.92060852 C-47.28039222 149.88971845 -46.71591263 135.97071494 -46.63526917 121.63545227 C-46.63542446 119.3725276 -46.63691849 117.10960268 -46.63967896 114.84667969 C-46.64105618 110.12730507 -46.62861558 105.40823686 -46.60572815 100.68891907 C-46.57729691 94.66373749 -46.58010348 88.63906231 -46.59281826 82.61384296 C-46.59979707 77.94932792 -46.5919618 73.28492837 -46.57956123 68.62042809 C-46.5750716 66.39944592 -46.57468797 64.17845125 -46.57862663 61.95746803 C-46.58156181 58.84767646 -46.56492369 55.73856561 -46.54322815 52.62886047 C-46.5477298 51.72727707 -46.55223145 50.82569366 -46.55686951 49.89678955 C-46.384432 34.89744367 -40.40068115 23.06377413 -30.36573792 12.23310852 C-22.09128373 4.30778743 -11.37208673 0.04536784 0 0 Z M44.86082458 65.14717102 C43.62238735 67.6240455 43.72061339 69.29760309 43.69969177 72.0683136 C43.69008423 73.09310318 43.68047668 74.11789276 43.670578 75.17373657 C43.66632813 76.28516525 43.66207825 77.39659393 43.65769958 78.54170227 C43.65199951 79.68120834 43.64629944 80.82071442 43.64042664 81.99475098 C43.63096689 84.40988738 43.6244388 86.82503674 43.62059021 89.2401886 C43.61089193 92.93402172 43.57987994 96.62729688 43.54832458 100.32099915 C43.54179398 102.66539688 43.53654373 105.0097986 43.53269958 107.35420227 C43.52035278 108.45955826 43.50800598 109.56491425 43.49528503 110.70376587 C43.49828613 111.73801193 43.50128723 112.772258 43.50437927 113.83784485 C43.50073364 114.7444838 43.49708801 115.65112274 43.49333191 116.5852356 C44.05754079 120.51855673 45.93758627 123.15798711 48.61082458 126.02217102 C51.20464827 127.31908287 52.98323679 127.40592225 55.82176208 126.85029602 C59.2524715 125.66729277 62.17263793 123.73804072 65.22410583 121.79951477 C67.70196652 120.24672207 70.20766858 118.87573857 72.79832458 117.52217102 C78.27903991 114.5570646 83.57386956 111.31640034 88.86082458 108.02217102 C89.69863464 107.50702942 90.5364447 106.99188782 91.39964294 106.46113586 C92.58699036 105.71404358 92.58699036 105.71404358 93.79832458 104.95185852 C94.50859802 104.50825989 95.21887146 104.06466125 95.95066833 103.60762024 C98.69977945 101.50573083 100.58406837 99.41563699 101.32957458 95.99873352 C101.33988708 95.2639679 101.35019958 94.52920227 101.36082458 93.77217102 C101.39176208 93.04256165 101.42269958 92.31295227 101.45457458 91.56123352 C100.2672212 86.73370465 96.52312441 83.381616 92.45091248 80.78535461 C91.16848103 80.02730036 89.87895323 79.28115454 88.58348083 78.54560852 C87.55002785 77.93998581 87.55002785 77.93998581 86.49569702 77.3221283 C84.31099525 76.04465926 82.11767219 74.78298495 79.92332458 73.52217102 C77.7346138 72.25091718 75.54780238 70.97646182 73.36166382 69.70079041 C72.00677971 68.91166176 70.65008293 68.12563389 69.29125977 67.3433075 C66.3050209 65.61720327 63.38401109 63.85389835 60.53269958 61.91157532 C54.41632167 57.87255273 49.33554954 59.45206653 44.86082458 65.14717102 Z " fill="#141414" transform="translate(49.13917541503906,69.85282897949219)"/>
<path d="M0 0 C2.95607883 2.34638757 5.3922538 4.7758807 7.5 7.9375 C7.5 8.5975 7.5 9.2575 7.5 9.9375 C8.16 9.9375 8.82 9.9375 9.5 9.9375 C10.79673602 12.47669006 12.08747837 15.01864238 13.375 17.5625 C13.92220703 18.63177734 13.92220703 18.63177734 14.48046875 19.72265625 C19.1688573 29.01418992 20.67739361 37.52726299 20.625 47.875 C20.62886719 48.63490234 20.63273438 49.39480469 20.63671875 50.17773438 C20.62817323 55.18113828 20.20999018 59.98447326 19.5 64.9375 C18.84 64.9375 18.18 64.9375 17.5 64.9375 C17.45875 65.845 17.4175 66.7525 17.375 67.6875 C15.94381845 77.37248197 9.68993501 86.52485526 2.5 92.9375 C1.84 92.9375 1.18 92.9375 0.5 92.9375 C0.5 93.5975 0.5 94.2575 0.5 94.9375 C-1.58203125 96.33984375 -1.58203125 96.33984375 -4.5 97.9375 C-5.55574219 98.51628906 -6.61148438 99.09507812 -7.69921875 99.69140625 C-20.73182493 106.44851337 -34.34706951 109.77513152 -49 105.6875 C-53.14949114 104.23725978 -56.78714617 102.2782122 -60.5 99.9375 C-60.5 99.2775 -60.5 98.6175 -60.5 97.9375 C-61.16 97.9375 -61.82 97.9375 -62.5 97.9375 C-64.125 96.4375 -64.125 96.4375 -65.5 94.9375 C-65.335 96.09894531 -65.17 97.26039063 -65 98.45703125 C-64.49143307 102.5372064 -64.43448613 106.50990984 -64.5 110.625 C-64.59291998 118.37855848 -64.24318265 126.0721533 -63.6796875 133.80541992 C-63.628125 134.64693604 -63.5765625 135.48845215 -63.5234375 136.35546875 C-63.47106934 137.09563232 -63.41870117 137.8357959 -63.36474609 138.59838867 C-63.53854873 141.60417029 -64.46226723 144.12560343 -65.5 146.9375 C-70.30549747 146.96218447 -75.11095818 146.98035255 -79.91650391 146.99243164 C-81.55192711 146.99746621 -83.1873458 147.00429427 -84.82275391 147.01293945 C-87.17090975 147.02504335 -89.51900619 147.030737 -91.8671875 147.03515625 C-92.96726639 147.04289818 -92.96726639 147.04289818 -94.08956909 147.05079651 C-99.27225659 147.05137171 -99.27225659 147.05137171 -101.5 145.9375 C-101.5 94.7875 -101.5 43.6375 -101.5 -9.0625 C-98.43405406 -10.59547297 -95.22888147 -10.18381455 -91.8671875 -10.16015625 C-90.73943405 -10.15803383 -90.73943405 -10.15803383 -89.58889771 -10.15586853 C-87.1842249 -10.15026465 -84.77964473 -10.13771157 -82.375 -10.125 C-80.74609509 -10.1199855 -79.11718873 -10.1154225 -77.48828125 -10.11132812 C-73.49215173 -10.10029397 -69.49609158 -10.08302679 -65.5 -10.0625 C-64.65323933 -6.33048075 -64.54070363 -3.79309699 -65.5 -0.0625 C-63.03770003 -0.77995356 -63.03770003 -0.77995356 -60.5 -2.0625 C-60.18933594 -2.70445313 -59.87867188 -3.34640625 -59.55859375 -4.0078125 C-57.44118415 -8.11761858 -52.61828566 -9.35107576 -48.4296875 -10.7578125 C-31.23267675 -15.2633024 -14.12715353 -10.15062143 0 0 Z M-61.5 28.9375 C-68.62850418 38.99107429 -66.3409562 50.52661444 -64.5 61.9375 C-63.84 61.9375 -63.18 61.9375 -62.5 61.9375 C-62.273125 62.659375 -62.04625 63.38125 -61.8125 64.125 C-59.64065572 68.77895202 -56.74049722 71.26953996 -52.25 73.6875 C-43.99081699 76.440561 -36.59930549 76.56008106 -28.51953125 73.0859375 C-24.5817947 71.02051492 -21.93561187 68.63963005 -19.5 64.9375 C-19.5 64.2775 -19.5 63.6175 -19.5 62.9375 C-18.84 62.9375 -18.18 62.9375 -17.5 62.9375 C-17.17 60.2975 -16.84 57.6575 -16.5 54.9375 C-15.84 54.9375 -15.18 54.9375 -14.5 54.9375 C-14.5 49.9875 -14.5 45.0375 -14.5 39.9375 C-15.16 39.9375 -15.82 39.9375 -16.5 39.9375 C-16.995 35.9775 -16.995 35.9775 -17.5 31.9375 C-18.16 31.9375 -18.82 31.9375 -19.5 31.9375 C-19.561875 31.36 -19.62375 30.7825 -19.6875 30.1875 C-21.51615518 25.12353181 -26.98098976 23.03308727 -31.53515625 20.76953125 C-42.63529602 16.06907445 -53.74140385 20.23175055 -61.5 28.9375 Z " fill="#2B5587" transform="translate(674.5,92.0625)"/>
<path d="M0 0 C5.54208069 -0.04018886 11.08411519 -0.06842013 16.62630463 -0.0883007 C18.71145124 -0.09723619 20.79658649 -0.10956696 22.88169098 -0.12555122 C25.77217535 -0.14686118 28.66242602 -0.15512369 31.55297852 -0.16021729 C32.39007103 -0.16914694 33.22716354 -0.17807659 34.0896225 -0.18727684 C48.61276515 -0.16471187 61.15557647 4.15822634 71.71875 14.19036865 C81.54737542 24.07595424 86.52029152 36.13238537 86.65194702 50.04602051 C86.64283798 51.45225677 86.64283798 51.45225677 86.63354492 52.88690186 C86.64143036 54.41844406 86.64143036 54.41844406 86.6494751 55.98092651 C86.662562 59.31937451 86.6539785 62.65733666 86.64379883 65.99578857 C86.6458225 68.33505341 86.64873637 70.67431763 86.65249634 73.01358032 C86.65690411 77.90045212 86.65053729 82.78715872 86.63647461 87.67401123 C86.61936486 93.92253292 86.62924538 100.17066848 86.647192 106.4191761 C86.65805538 111.2440174 86.65457206 116.0687678 86.64680862 120.89361191 C86.64481468 123.19719362 86.64723744 125.50078371 86.65424728 127.80435562 C86.66190586 131.02740469 86.65019632 134.24983604 86.63354492 137.47283936 C86.64265396 138.88514832 86.64265396 138.88514832 86.65194702 140.32598877 C86.52869648 153.26920324 80.72334972 165.57248768 71.58520508 174.71063232 C66.07821349 179.61549271 60.8215421 184.22644903 53.24536133 184.05047607 C53.24758194 182.89282242 53.24980255 181.73516876 53.25209045 180.54243469 C53.27239766 169.61114384 53.28736994 158.67985683 53.2971735 147.74855137 C53.30238309 142.12921421 53.30944571 136.50989233 53.32080078 130.89056396 C53.33169814 125.46353442 53.33765266 120.03651954 53.34023857 114.6094799 C53.34208049 112.5431387 53.34567726 110.47679826 53.35109138 108.41046333 C53.35839276 105.50732845 53.35934845 102.60425349 53.35888672 99.70111084 C53.36248199 98.8544989 53.36607727 98.00788696 53.36978149 97.13562012 C53.65104053 87.11001986 53.65104053 87.11001986 50.24536133 78.05047607 C49.70619987 75.39027378 49.51166035 72.75784944 49.24536133 70.05047607 C48.58536133 70.05047607 47.92536133 70.05047607 47.24536133 70.05047607 C46.91536133 68.40047607 46.58536133 66.75047607 46.24536133 65.05047607 C45.58536133 65.05047607 44.92536133 65.05047607 44.24536133 65.05047607 C43.77098633 64.10172607 43.29661133 63.15297607 42.80786133 62.17547607 C35.08024574 48.71358743 21.27014941 38.39429964 6.38354492 34.25466919 C-7.21971198 31.26805065 -20.96969785 31.56868633 -34.82965279 31.54436517 C-38.45848009 31.53487244 -42.08718949 31.508662 -45.71594238 31.48435974 C-52.56129217 31.44098667 -59.40661869 31.41226173 -66.25206327 31.38903636 C-74.05646609 31.36182643 -81.86074856 31.31792594 -89.66506481 31.27274764 C-105.69486053 31.18032043 -121.72467902 31.10844969 -137.75463867 31.05047607 C-134.35316367 20.38978895 -126.27363743 11.57425919 -116.43041992 6.25360107 C-108.65194505 2.59519184 -102.82463024 0.90624257 -94.24975586 0.84515381 C-93.38993103 0.83525421 -92.5301062 0.82535461 -91.64422607 0.81515503 C-88.7800167 0.78342978 -85.91579259 0.75865527 -83.05151367 0.73406982 C-81.01987355 0.71342686 -78.98823701 0.69242892 -76.956604 0.6710968 C-72.66241726 0.62702337 -68.36821582 0.58618467 -64.07397461 0.54779053 C-58.72759302 0.49990303 -53.38129654 0.44599437 -48.03499603 0.38985252 C-35.36311794 0.25740202 -22.69119106 0.15442591 -10.01889038 0.07228851 C-6.67924527 0.04997228 -3.33962548 0.02506918 0 0 Z " fill="#1E1E1E" transform="translate(193.754638671875,19.94952392578125)"/>
<path d="M0 0 C0.77399643 0.00718552 1.54799286 0.01437103 2.34544373 0.02177429 C3.5362278 0.02246162 3.5362278 0.02246162 4.75106812 0.02316284 C6.42975865 0.02618539 8.10844637 0.03407179 9.78709412 0.0464325 C12.36588906 0.06469419 14.94432524 0.06694217 17.5231781 0.06669617 C19.15143643 0.07161108 20.77969232 0.07743929 22.40794373 0.08427429 C23.57197472 0.08594353 23.57197472 0.08594353 24.75952148 0.08764648 C30.1942374 0.13619297 30.1942374 0.13619297 31.31028748 1.25224304 C31.40399372 3.03216228 31.42773018 4.81581044 31.42381287 6.59819031 C31.42373734 7.73929764 31.4236618 8.88040497 31.42358398 10.05609131 C31.4184227 11.29773544 31.41326141 12.53937958 31.40794373 13.81864929 C31.40652878 15.08240891 31.40511383 16.34616852 31.40365601 17.64822388 C31.3989933 21.01349193 31.39000228 24.37869294 31.37895203 27.74394226 C31.36873594 31.17573974 31.36415796 34.60754413 31.3591156 38.03935242 C31.34806128 44.77700129 31.33130458 51.51461829 31.31028748 58.25224304 C31.71785278 57.62675568 32.12541809 57.00126831 32.54533386 56.35682678 C33.0823291 55.54033661 33.61932434 54.72384644 34.17259216 53.88261414 C34.70390747 53.07150177 35.23522278 52.2603894 35.78263855 51.42469788 C40.49692913 44.72055062 48.53573096 41.80032457 56.31028748 40.25224304 C69.39036987 38.17328955 80.80531827 40.41156278 91.62278748 48.18974304 C95.67686028 51.38141865 98.45797899 54.97378031 101.31028748 59.25224304 C101.31028748 60.24224304 101.31028748 61.23224304 101.31028748 62.25224304 C101.97028748 62.25224304 102.63028748 62.25224304 103.31028748 62.25224304 C105.27847083 68.07478547 106.71242977 73.08606123 106.31028748 79.25224304 C106.97028748 79.25224304 107.63028748 79.25224304 108.31028748 79.25224304 C108.31028748 104.66224304 108.31028748 130.07224304 108.31028748 156.25224304 C96.43028748 156.25224304 84.55028748 156.25224304 72.31028748 156.25224304 C71.33630698 152.35632104 71.27285445 149.60748444 71.43138123 145.62724304 C71.48068129 144.28072849 71.52991337 142.93421146 71.5790863 141.58769226 C71.60693207 140.8809436 71.63477783 140.17419495 71.66346741 139.44602966 C71.80675815 135.71798102 71.92118025 131.9890475 72.03684998 128.26005554 C72.06042068 127.50338593 72.08399139 126.74671631 72.10827637 125.96711731 C74.16367288 100.51394101 74.16367288 100.51394101 68.31028748 76.25224304 C63.91146827 72.11217791 60.48178161 70.9377212 54.42356873 71.03739929 C47.5517869 71.73600927 40.93686303 76.11215722 36.57200623 81.33036804 C30.3638325 90.04255456 31.18008208 98.63807824 31.24778748 109.02568054 C31.25357134 111.0411253 31.25934984 113.05657008 31.26480103 115.07201576 C31.27569492 118.59044438 31.29321955 122.10883986 31.31028748 125.62724304 C31.33065919 129.84970085 31.34985597 134.07213936 31.36131287 138.29463196 C31.36887986 140.91995461 31.38098434 143.54526865 31.39793396 146.17054749 C31.40123718 147.34912323 31.40454041 148.52769897 31.40794373 149.74198914 C31.41318054 150.78454865 31.41841736 151.82710815 31.42381287 152.90126038 C31.31028748 155.25224304 31.31028748 155.25224304 30.31028748 156.25224304 C27.65572554 156.35319868 25.02773572 156.39195303 22.37278748 156.38505554 C21.17988098 156.38649063 21.17988098 156.38649063 19.96287537 156.38795471 C18.27822287 156.38863647 16.59356776 156.38678247 14.90892029 156.38261414 C12.32129551 156.37726579 9.73384432 156.38255923 7.14622498 156.38896179 C5.51341209 156.38830101 3.88059931 156.38701985 2.24778748 156.38505554 C1.46862976 156.38707977 0.68947205 156.389104 -0.11329651 156.39118958 C-5.57476148 156.36719409 -5.57476148 156.36719409 -6.68971252 155.25224304 C-6.78379527 153.53141573 -6.80714337 151.80669058 -6.80323792 150.08329773 C-6.80316742 148.96216583 -6.80309692 147.84103394 -6.80302429 146.68592834 C-6.79785797 145.44453094 -6.79269165 144.20313354 -6.78736877 142.92411804 C-6.78512686 140.92929014 -6.78288524 138.93446224 -6.78065491 136.93963432 C-6.77727519 134.78623971 -6.77141694 132.63286415 -6.76487732 130.47947693 C-6.75136099 125.98006919 -6.74546025 121.48067133 -6.74073792 116.98124695 C-6.72867451 106.5959432 -6.70677554 96.21066448 -6.68450928 85.82537842 C-6.6642534 76.35010792 -6.64617302 66.87484677 -6.63629436 57.39955902 C-6.63216321 53.66826942 -6.62591718 49.93700937 -6.61454773 46.20573425 C-6.60185302 42.02071504 -6.59458311 37.83571801 -6.59205627 33.65068054 C-6.59119522 32.3643573 -6.59033417 31.07803406 -6.58944702 29.75273132 C-6.61155345 21.48227662 -6.92062665 13.2994958 -7.66847229 5.0632782 C-7.67548157 4.1356366 -7.68249084 3.207995 -7.68971252 2.25224304 C-5.13537501 -0.30209447 -3.48237369 0.01493511 0 0 Z " fill="#245083" transform="translate(840.6897125244141,40.74775695800781)"/>
<path d="M0 0 C2.03309121 1.76201238 3.93234891 3.5240719 5.8125 5.4375 C5.626875 4.15875 5.44125 2.88 5.25 1.5625 C4.6875 -2.3125 4.6875 -2.3125 5.8125 -4.5625 C10.63630802 -4.5871519 15.46007967 -4.60533693 20.28393555 -4.61743164 C21.92619464 -4.62247174 23.56844923 -4.62930378 25.21069336 -4.63793945 C27.56625479 -4.65001926 29.92175709 -4.65573139 32.27734375 -4.66015625 C33.01589096 -4.66531754 33.75443817 -4.67047882 34.5153656 -4.67579651 C36.28148088 -4.6759925 38.04747146 -4.62444719 39.8125 -4.5625 C41.39645354 -2.97854646 40.95693936 -1.35788384 40.97744751 0.84094238 C40.98868149 1.7916713 40.99991547 2.74240021 41.01148987 3.72193909 C41.01881638 4.77340622 41.02614288 5.82487335 41.03369141 6.90820312 C41.05095024 8.55924294 41.05095024 8.55924294 41.06855774 10.24363708 C41.10540499 13.90197913 41.13495041 17.5603388 41.1640625 21.21875 C41.18716084 23.74841573 41.21055098 26.27807882 41.23422241 28.80773926 C41.28275492 34.11740972 41.32776994 39.42709427 41.37011719 44.73681641 C41.41920484 50.88361328 41.47550327 57.03031302 41.53553832 63.17701197 C41.59297478 69.07963515 41.64476159 74.98229794 41.69413376 80.88499451 C41.71577508 83.40174179 41.7389334 85.91847647 41.7635994 88.43519592 C41.79729607 91.94570996 41.82457824 95.4562152 41.85009766 98.96679688 C41.86147263 100.01826401 41.8728476 101.06973114 41.88456726 102.15306091 C41.89295876 103.57915428 41.89295876 103.57915428 41.90151978 105.03405762 C41.91201575 106.28067799 41.91201575 106.28067799 41.92272377 107.5524826 C41.8125 109.4375 41.8125 109.4375 40.8125 110.4375 C38.21890678 110.52601529 35.65210309 110.55275945 33.05859375 110.53515625 C32.28314713 110.5337413 31.5077005 110.53232635 30.70875549 110.53086853 C28.22246506 110.52525345 25.7362634 110.51269846 23.25 110.5 C21.56836067 110.49498694 19.88671994 110.4904237 18.20507812 110.48632812 C14.07418434 110.47527913 9.94335724 110.45800445 5.8125 110.4375 C4.74075237 106.78561918 5.04838533 104.17317172 5.8125 100.4375 C4.86375 101.324375 3.915 102.21125 2.9375 103.125 C-6.96159281 111.6156853 -17.34245666 113.18599553 -30.03125 112.61669922 C-45.04726834 111.36876472 -56.94655809 104.12138923 -67.1875 93.4375 C-80.00185209 77.51580502 -81.80790864 58.34696662 -79.80078125 38.640625 C-79.20674009 35.53798964 -78.35730876 32.90188836 -77.125 30 C-76.76277344 29.13503906 -76.40054688 28.27007812 -76.02734375 27.37890625 C-75.75019531 26.73824219 -75.47304688 26.09757812 -75.1875 25.4375 C-74.5275 25.4375 -73.8675 25.4375 -73.1875 25.4375 C-73.001875 24.32375 -73.001875 24.32375 -72.8125 23.1875 C-72.23263299 20.63608515 -71.45041261 18.7107427 -70.1875 16.4375 C-69.5275 16.4375 -68.8675 16.4375 -68.1875 16.4375 C-67.91550781 15.84453125 -67.64351562 15.2515625 -67.36328125 14.640625 C-62.5204534 5.56635621 -51.75374329 -0.86012942 -42.2109375 -3.95703125 C-28.27925165 -7.96161825 -12.47030186 -8.68185573 0 0 Z M-40.1875 34.4375 C-45.93485185 41.96901706 -46.30824354 50.36219096 -45.47412109 59.48291016 C-44.4363381 66.55998905 -40.60400205 71.99476024 -34.9921875 76.2578125 C-28.27177305 80.65081069 -20.71246537 82.27380716 -12.76171875 81.0703125 C-6.94391479 79.44253315 -1.97390928 76.17051161 1.8125 71.4375 C2.57087197 68.80815034 2.57087197 68.80815034 2.8125 66.4375 C3.4725 66.4375 4.1325 66.4375 4.8125 66.4375 C7.39759061 56.58184203 8.2072858 47.82824513 3.8125 38.4375 C3.461875 37.40625 3.11125 36.375 2.75 35.3125 C-1.10267087 29.59563355 -8.5307199 25.91678447 -15.1875 24.4375 C-24.41032439 23.35246184 -34.22560006 27.32967643 -40.1875 34.4375 Z " fill="#285285" transform="translate(1045.1875,86.5625)"/>
<path d="M0 0 C1.8902795 1.71066018 3.32689344 3.43294216 4.7265625 5.5625 C4.7265625 6.2225 4.7265625 6.8825 4.7265625 7.5625 C5.3865625 7.5625 6.0465625 7.5625 6.7265625 7.5625 C9.7265625 14.1875 9.7265625 14.1875 9.7265625 17.5625 C10.3865625 17.5625 11.0465625 17.5625 11.7265625 17.5625 C15.6618015 30.1552648 14.87560761 44.28405872 14.82421875 57.34375 C14.82234601 58.77819773 14.82092618 60.21264612 14.81993103 61.64709473 C14.81617306 65.36230337 14.80640314 69.07747083 14.79522705 72.79266357 C14.78486551 76.6078638 14.78040234 80.42307091 14.77539062 84.23828125 C14.76477239 91.67970596 14.74778049 99.12109714 14.7265625 106.5625 C9.61792354 106.5871501 4.50931891 106.60533607 -0.59936523 106.61743164 C-2.33862918 106.62247204 -4.07788886 106.6293043 -5.81713867 106.63793945 C-8.31169687 106.65001792 -10.80619923 106.65573108 -13.30078125 106.66015625 C-14.08307602 106.66531754 -14.86537079 106.67047882 -15.67137146 106.67579651 C-17.53910864 106.67599226 -19.40672954 106.62449694 -21.2734375 106.5625 C-22.2734375 105.5625 -22.2734375 105.5625 -22.38696289 103.10676575 C-22.37910767 101.46800728 -22.37910767 101.46800728 -22.37109375 99.79614258 C-22.36779053 98.56007767 -22.3644873 97.32401276 -22.36108398 96.05049133 C-22.35696503 95.38443689 -22.35284607 94.71838245 -22.34860229 94.03214455 C-22.33583662 91.94050193 -22.32932005 89.8489229 -22.32446289 87.75724792 C-22.31108334 82.54929365 -22.28716895 77.34139778 -22.26306152 72.13348389 C-22.24312268 67.75282291 -22.22755422 63.37218648 -22.21749878 58.99149132 C-22.21112531 56.95455415 -22.19860631 54.91771876 -22.18579102 52.8808136 C-22.16381602 44.38516772 -22.54713944 36.02603205 -23.2734375 27.5625 C-23.9334375 27.5625 -24.5934375 27.5625 -25.2734375 27.5625 C-26.60677083 26.22916667 -27.94010417 24.89583333 -29.2734375 23.5625 C-32.92692478 20.95286623 -36.95485788 21.05997437 -41.2734375 21.5625 C-50.66475636 23.81360265 -56.24414595 29.86660334 -61.36621094 37.80664062 C-64.38835205 43.97878132 -63.7681486 50.63075004 -63.6640625 57.34375 C-63.65658964 58.76720378 -63.65090165 60.19066794 -63.64691162 61.61413574 C-63.6317371 65.33631467 -63.59252829 69.05785587 -63.5480957 72.77978516 C-63.49971587 77.25851261 -63.48156984 81.73745492 -63.45828247 86.21636963 C-63.41966997 92.99885479 -63.34296256 99.77994442 -63.2734375 106.5625 C-75.1534375 106.5625 -87.0334375 106.5625 -99.2734375 106.5625 C-99.99447557 102.95730966 -100.39360474 100.38160237 -100.36245728 96.82989502 C-100.35686295 95.90732407 -100.35126862 94.98475311 -100.34550476 94.03422546 C-100.33412979 93.03454239 -100.32275482 92.03485931 -100.31103516 91.00488281 C-100.30303391 89.94261978 -100.29503265 88.88035675 -100.28678894 87.78590393 C-100.25893477 84.2790777 -100.22345337 80.77237686 -100.1875 77.265625 C-100.16573191 74.83136265 -100.14428232 72.39709744 -100.12313843 69.96282959 C-100.07766546 64.86531815 -100.02843904 59.76786034 -99.9765625 54.67041016 C-99.91019356 48.12068246 -99.85298379 41.57091254 -99.79853249 35.0210762 C-99.75580207 29.99752192 -99.70835116 24.97402091 -99.65943527 19.95052338 C-99.63646598 17.5342822 -99.61496539 15.11802661 -99.59492874 12.70175934 C-99.56628737 9.33528438 -99.53133418 5.96893441 -99.49462891 2.60253906 C-99.4873024 1.59475906 -99.47997589 0.58697906 -99.47242737 -0.45133972 C-99.46119339 -1.36263138 -99.44995941 -2.27392303 -99.43838501 -3.21282959 C-99.43063364 -4.00921719 -99.42288227 -4.80560478 -99.41489601 -5.62612534 C-99.2734375 -7.4375 -99.2734375 -7.4375 -98.2734375 -8.4375 C-95.75249674 -8.52597743 -93.25912857 -8.55277301 -90.73828125 -8.53515625 C-89.60840538 -8.53303383 -89.60840538 -8.53303383 -88.45570374 -8.53086853 C-86.0407419 -8.52525376 -83.62587149 -8.51269883 -81.2109375 -8.5 C-79.57747529 -8.4949869 -77.94401164 -8.49042366 -76.31054688 -8.48632812 C-72.29814165 -8.47527954 -68.28580509 -8.45800506 -64.2734375 -8.4375 C-63.12677783 -4.43770398 -63.37347279 -0.79138115 -63.7109375 3.3125 C-63.76314453 4.00988281 -63.81535156 4.70726563 -63.86914062 5.42578125 C-63.99817822 7.13846203 -64.13503364 8.85055066 -64.2734375 10.5625 C-63.6134375 10.5625 -62.9534375 10.5625 -62.2734375 10.5625 C-62.0465625 9.69625 -61.8196875 8.83 -61.5859375 7.9375 C-58.95624993 1.17544625 -54.54289997 -2.60781757 -48.33203125 -6.10546875 C-31.73191191 -13.33489492 -14.29866524 -10.82697285 0 0 Z " fill="#285386" transform="translate(1263.2734375,90.4375)"/>
<path d="M0 0 C10.31508089 9.01864996 10.31508089 9.01864996 13 15 C12.11912165 17.82356088 11.22025178 18.85418109 8.7409668 20.49560547 C5.73136414 21.97421918 2.71891195 23.44149868 -0.3125 24.875 C-1.35857422 25.39835937 -2.40464844 25.92171875 -3.48242188 26.4609375 C-5.00125977 27.18796875 -5.00125977 27.18796875 -6.55078125 27.9296875 C-7.47544189 28.37554199 -8.40010254 28.82139648 -9.3527832 29.28076172 C-12.6747194 30.18331858 -14.01873644 29.62085044 -17 28 C-17.7425 27.360625 -18.485 26.72125 -19.25 26.0625 C-24.33229412 22.25077941 -30.49746918 20.37601871 -36.890625 20.64453125 C-43.27957745 21.72118805 -49.33586653 24.48632245 -54 29 C-54.495 29.99 -54.495 29.99 -55 31 C-55.66 31 -56.32 31 -57 31 C-60.42139269 41.16235091 -62.00489945 51.83029025 -57.97265625 62.0703125 C-54.99978018 67.9683076 -50.83854625 71.13380457 -45 74 C-37.0400235 76.55127452 -28.22438711 75.82182082 -20.8046875 72.16796875 C-18.91692895 71.09863007 -18.91692895 71.09863007 -17.7578125 69.30078125 C-16 68 -16 68 -12.5 67.99609375 C-6.90584244 68.93741834 -2.0284818 71.54132327 3 74.0625 C3.96550781 74.53494141 4.93101562 75.00738281 5.92578125 75.49414062 C8.28918757 76.65244372 10.64678829 77.82116089 13 79 C13 85.05416413 9.52002301 88.42479401 5.39453125 92.640625 C-6.83496014 103.67912079 -22.00392848 108.39768458 -38.3046875 108.1484375 C-53.18252144 107.32907853 -67.53982668 101.63696393 -79 92 C-79 91.34 -79 90.68 -79 90 C-79.5775 89.7834375 -80.155 89.566875 -80.75 89.34375 C-88.04221508 84.9886771 -92.68827945 73.94501853 -95 66 C-96.97647061 57.76470577 -97.56352492 49.45287386 -97 41 C-96.505 40.505 -96.505 40.505 -96 40 C-95.77695559 38.25181409 -95.5721355 36.50129677 -95.375 34.75 C-93.00336134 20.17394341 -83.16902397 8.1834482 -71.5 -0.40625 C-49.61879646 -14.35551726 -21.36389 -15.75437698 0 0 Z " fill="#2C5688" transform="translate(805,91)"/>
<path d="M0 0 C4.33774994 3.21732102 8.31087283 6.79691911 11.70703125 11.0078125 C11.70703125 11.6678125 11.70703125 12.3278125 11.70703125 13.0078125 C12.36703125 13.0078125 13.02703125 13.0078125 13.70703125 13.0078125 C14.69703125 15.9778125 14.69703125 15.9778125 15.70703125 19.0078125 C11.24221985 22.5401 6.31718872 24.80327282 1.20703125 27.2578125 C0.25699219 27.72960937 -0.69304687 28.20140625 -1.671875 28.6875 C-2.58839844 29.12835938 -3.50492187 29.56921875 -4.44921875 30.0234375 C-5.28259766 30.42852539 -6.11597656 30.83361328 -6.97460938 31.25097656 C-9.563087 32.09599348 -10.77292315 31.9343425 -13.29296875 31.0078125 C-13.29296875 30.3478125 -13.29296875 29.6878125 -13.29296875 29.0078125 C-14.01484375 28.7396875 -14.73671875 28.4715625 -15.48046875 28.1953125 C-18.29296875 27.0078125 -18.29296875 27.0078125 -20.609375 25.48828125 C-25.81029651 22.61906837 -32.10993433 22.43038047 -37.8984375 23.48046875 C-42.46058028 24.87891453 -45.68356941 26.83591611 -49.29296875 30.0078125 C-49.95296875 30.0078125 -50.61296875 30.0078125 -51.29296875 30.0078125 C-51.62296875 30.9978125 -51.95296875 31.9878125 -52.29296875 33.0078125 C-52.95296875 33.0078125 -53.61296875 33.0078125 -54.29296875 33.0078125 C-54.47859375 34.1215625 -54.47859375 34.1215625 -54.66796875 35.2578125 C-55.29296875 38.0078125 -55.29296875 38.0078125 -56.31982422 39.86816406 C-57.47740186 42.41332473 -57.52226963 44.2051401 -57.48828125 46.9921875 C-57.47861328 48.39404297 -57.47861328 48.39404297 -57.46875 49.82421875 C-57.45199219 50.79230469 -57.43523437 51.76039063 -57.41796875 52.7578125 C-57.40894531 53.74136719 -57.39992188 54.72492188 -57.390625 55.73828125 C-57.3670966 58.16170657 -57.33422243 60.58463472 -57.29296875 63.0078125 C-56.63296875 63.0078125 -55.97296875 63.0078125 -55.29296875 63.0078125 C-54.96296875 64.6578125 -54.63296875 66.3078125 -54.29296875 68.0078125 C-53.63296875 68.0078125 -52.97296875 68.0078125 -52.29296875 68.0078125 C-51.81859375 68.7503125 -51.34421875 69.4928125 -50.85546875 70.2578125 C-45.72476901 75.76392929 -38.50771596 77.23562239 -31.16796875 77.5078125 C-25.45843075 77.32219683 -21.27594315 75.64212381 -16.29296875 73.0078125 C-15.30296875 72.6778125 -14.31296875 72.3478125 -13.29296875 72.0078125 C-13.29296875 71.3478125 -13.29296875 70.6878125 -13.29296875 70.0078125 C-6.35712586 69.63735584 -1.59732031 72.28450061 4.51953125 75.2578125 C5.58107422 75.74894531 6.64261719 76.24007812 7.73632812 76.74609375 C8.74373047 77.22949219 9.75113281 77.71289062 10.7890625 78.2109375 C11.70921143 78.65083008 12.62936035 79.09072266 13.57739258 79.54394531 C15.70703125 81.0078125 15.70703125 81.0078125 16.5144043 83.18261719 C16.57797119 83.78493164 16.64153809 84.38724609 16.70703125 85.0078125 C16.04703125 85.0078125 15.38703125 85.0078125 14.70703125 85.0078125 C14.21203125 86.9878125 14.21203125 86.9878125 13.70703125 89.0078125 C13.04703125 89.0078125 12.38703125 89.0078125 11.70703125 89.0078125 C11.50078125 89.5646875 11.29453125 90.1215625 11.08203125 90.6953125 C9.13020093 93.97793621 6.76472131 95.71454496 3.70703125 98.0078125 C3.04703125 98.0078125 2.38703125 98.0078125 1.70703125 98.0078125 C1.21203125 99.4928125 1.21203125 99.4928125 0.70703125 101.0078125 C-10.00119643 108.56656145 -25.35854349 111.18172898 -38.29296875 110.0078125 C-39.65035156 109.88599609 -39.65035156 109.88599609 -41.03515625 109.76171875 C-53.6013871 108.14510815 -64.82226165 103.41485487 -74.29296875 95.0078125 C-75.80890625 93.863125 -75.80890625 93.863125 -77.35546875 92.6953125 C-77.99484375 92.1384375 -78.63421875 91.5815625 -79.29296875 91.0078125 C-79.29296875 90.3478125 -79.29296875 89.6878125 -79.29296875 89.0078125 C-79.95296875 89.0078125 -80.61296875 89.0078125 -81.29296875 89.0078125 C-81.39609375 88.3684375 -81.49921875 87.7290625 -81.60546875 87.0703125 C-81.83234375 86.3896875 -82.05921875 85.7090625 -82.29296875 85.0078125 C-83.28296875 84.6778125 -84.27296875 84.3478125 -85.29296875 84.0078125 C-89.79794507 77.25607954 -92.0040693 70.30610796 -92.96875 62.30859375 C-93.05202959 60.04824481 -93.05202959 60.04824481 -94.29296875 59.0078125 C-94.39278089 56.3304987 -94.4317675 53.68477075 -94.41796875 51.0078125 C-94.42183594 50.25757813 -94.42570312 49.50734375 -94.4296875 48.734375 C-94.41957928 43.13442303 -94.41957928 43.13442303 -93.29296875 42.0078125 C-92.89727767 39.99469801 -92.55044684 37.97184042 -92.23046875 35.9453125 C-91.96556641 34.28822266 -91.96556641 34.28822266 -91.6953125 32.59765625 C-91.56253906 31.74300781 -91.42976563 30.88835937 -91.29296875 30.0078125 C-90.63296875 30.0078125 -89.97296875 30.0078125 -89.29296875 30.0078125 C-88.63296875 27.0378125 -87.97296875 24.0678125 -87.29296875 21.0078125 C-86.63296875 21.0078125 -85.97296875 21.0078125 -85.29296875 21.0078125 C-84.96296875 19.6878125 -84.63296875 18.3678125 -84.29296875 17.0078125 C-83.63296875 17.0078125 -82.97296875 17.0078125 -82.29296875 17.0078125 C-81.96296875 15.6878125 -81.63296875 14.3678125 -81.29296875 13.0078125 C-80.63296875 13.0078125 -79.97296875 13.0078125 -79.29296875 13.0078125 C-78.93332031 12.13769531 -78.93332031 12.13769531 -78.56640625 11.25 C-73.08495145 1.59860413 -59.64146948 -3.88879276 -49.45947266 -6.82910156 C-32.39937978 -11.32568667 -15.03372863 -9.50148102 0 0 Z " fill="#2C5687" transform="translate(427.29296875,88.9921875)"/>
<path d="M0 0 C35 0 35 0 37 1 C37.02734857 3.02075566 37.0465517 5.04162221 37.0625 7.0625 C37.07410156 8.18785156 37.08570313 9.31320313 37.09765625 10.47265625 C37 14 37 14 36.5 16.90298462 C35.66129066 22.59260774 35.87817399 28.34273392 35.90234375 34.07958984 C35.90458507 36.08473626 35.90682614 38.08988268 35.90905762 40.09502912 C35.91241744 42.2386281 35.91826711 44.38220737 35.92483521 46.5257988 C35.93839548 50.99608888 35.94425903 55.46636907 35.94897461 59.93667603 C35.96005131 69.41613075 35.97961514 78.89556143 36 88.375 C36.02201779 98.6300595 36.04257307 108.88510951 36.05341816 119.14018786 C36.05841183 123.58815589 36.06828681 128.03607877 36.08184814 132.48402858 C36.08749417 134.57930977 36.09088145 136.67457966 36.0932312 138.76986694 C36.09611582 141.32975973 36.10263262 143.88965179 36.11331177 146.44952393 C36.11338226 147.56827911 36.11345276 148.6870343 36.11352539 149.83969116 C36.115746 150.81783972 36.11796661 151.79598827 36.12025452 152.80377769 C36 155 36 155 35 156 C23.45 156 11.9 156 0 156 C0 104.52 0 53.04 0 0 Z " fill="#275285" transform="translate(460,41)"/>
<path d="M0 0 C1.12276085 -0.0049926 1.12276085 -0.0049926 2.26820374 -0.01008606 C3.85449609 -0.01515818 5.44079915 -0.0174943 7.02709961 -0.01733398 C9.45899994 -0.01951898 11.89044574 -0.03766706 14.32226562 -0.05664062 C15.86067553 -0.05957474 17.39908759 -0.06155942 18.9375 -0.0625 C20.03287331 -0.07327827 20.03287331 -0.07327827 21.15037537 -0.08427429 C26.30633318 -0.06085432 26.30633318 -0.06085432 28.53515625 2.16796875 C28.31807108 4.15900136 28.08891631 6.14903612 27.82131958 8.13391113 C27.16825334 15.05807088 27.54277799 22.07964366 27.65625 29.02734375 C27.68062933 30.78020511 27.70446854 32.53307406 27.72779846 34.28594971 C27.79038024 38.89418317 27.85939213 43.50229679 27.93005371 48.1104126 C28.00014962 52.72981348 28.0656164 57.34927839 28.13085938 61.96875 C28.14357691 62.86682121 28.15629444 63.76489243 28.16939735 64.69017792 C28.27778547 72.38477218 28.38063292 80.07943109 28.47821045 87.77416992 C28.51297669 90.50812883 28.55121739 93.24194803 28.59210205 95.97583008 C28.63628453 99.02425581 28.6685795 102.07247457 28.6953125 105.12109375 C28.70993027 105.94792664 28.72454803 106.77475952 28.73960876 107.62664795 C28.74853418 109.47499015 28.65398048 111.32342833 28.53515625 113.16796875 C26.03773222 115.66539278 24.55798014 115.40473339 21.15037537 115.42021179 C20.4201265 115.41302628 19.68987762 115.40584076 18.9375 115.3984375 C17.81330406 115.39775017 17.81330406 115.39775017 16.66639709 115.39704895 C15.08186256 115.39402686 13.49733099 115.38614181 11.9128418 115.3737793 C9.47889767 115.35551558 7.04533363 115.35326964 4.61132812 115.35351562 C3.07421544 115.34860076 1.53710535 115.34277257 0 115.3359375 C-0.7322731 115.33482468 -1.4645462 115.33371185 -2.2190094 115.33256531 C-7.34879137 115.28402113 -7.34879137 115.28402113 -8.46484375 114.16796875 C-8.562656 112.70280571 -8.59116123 111.23295053 -8.59182739 109.76452637 C-8.59464722 108.81379745 -8.59746704 107.86306854 -8.60037231 106.88352966 C-8.59834808 105.83206253 -8.59632385 104.7805954 -8.59423828 103.69726562 C-8.5959906 102.59657242 -8.59774292 101.49587921 -8.59954834 100.36183167 C-8.60396943 96.70344491 -8.60102796 93.04510604 -8.59765625 89.38671875 C-8.59832922 86.85705557 -8.59929918 84.32739245 -8.60055542 81.79772949 C-8.60203274 76.48803026 -8.59997133 71.17834838 -8.59521484 65.86865234 C-8.58977226 59.72190917 -8.59153493 53.57519916 -8.59704125 47.42845678 C-8.60211815 41.52579311 -8.60159081 35.62313979 -8.59865952 29.72047424 C-8.59798999 27.20374039 -8.59881955 24.6870057 -8.60113907 22.17027283 C-8.60366408 18.659716 -8.59982713 15.14922385 -8.59423828 11.63867188 C-8.59626251 10.58720474 -8.59828674 9.53573761 -8.60037231 8.45240784 C-8.59755249 7.50167892 -8.59473267 6.55095001 -8.59182739 5.57141113 C-8.59145037 4.74033089 -8.59107334 3.90925064 -8.59068489 3.05298615 C-8.28908825 -1.4647329 -3.49400488 0.00530978 0 0 Z " fill="#2D5687" transform="translate(1115.46484375,81.83203125)"/>
<path d="M0 0 C0.73541016 0.00202423 1.47082031 0.00404846 2.22851562 0.00613403 C2.97939453 0.00517731 3.73027344 0.00422058 4.50390625 0.00323486 C6.09440189 0.00255315 7.6849003 0.00440682 9.27539062 0.00857544 C11.71816217 0.01392386 14.16074984 0.00863019 16.60351562 0.00222778 C18.1451827 0.00288857 19.68684966 0.00416973 21.22851562 0.00613403 C21.96392578 0.0041098 22.69933594 0.00208557 23.45703125 0 C28.61356402 0.02399493 28.61356402 0.02399493 29.72851562 1.13894653 C29.82420138 2.61911047 29.8503983 4.10382927 29.84877014 5.58708191 C29.85014481 6.54767014 29.85151947 7.50825836 29.85293579 8.49795532 C29.84754288 10.0915387 29.84754288 10.0915387 29.84204102 11.71731567 C29.84218704 12.82936874 29.84233307 13.94142181 29.84248352 15.08717346 C29.84178383 18.78283604 29.83398882 22.47844895 29.82617188 26.17410278 C29.82430789 28.72858147 29.8228839 31.28306051 29.82188416 33.83753967 C29.81844907 39.88656363 29.81055827 45.93556608 29.80053467 51.98458141 C29.78937246 58.86959807 29.78386281 65.75461557 29.77883923 72.63963902 C29.76837562 86.80608483 29.75077685 100.9725147 29.72851562 115.13894653 C24.76229213 115.16359751 19.79610396 115.18178302 14.82983398 115.19387817 C13.13907247 115.19891843 11.44831533 115.20575058 9.75756836 115.21438599 C7.33250856 115.2264651 4.90750619 115.23217776 2.48242188 115.23660278 C1.34179039 115.24434471 1.34179039 115.24434471 0.17811584 115.25224304 C-1.63881008 115.25243891 -3.45561565 115.2009193 -5.27148438 115.13894653 C-6.85765677 113.55277414 -6.39746979 111.93589532 -6.39846802 109.73550415 C-6.40128784 108.78477524 -6.40410767 107.83404633 -6.40701294 106.85450745 C-6.40498871 105.80304031 -6.40296448 104.75157318 -6.40087891 103.66824341 C-6.40263123 102.5675502 -6.40438354 101.46685699 -6.40618896 100.33280945 C-6.41061005 96.6744227 -6.40766858 93.01608382 -6.40429688 89.35769653 C-6.40496984 86.82803335 -6.4059398 84.29837023 -6.40719604 81.76870728 C-6.40867337 76.45900804 -6.40661195 71.14932616 -6.40185547 65.83963013 C-6.39641288 59.69288695 -6.39817555 53.54617694 -6.40368187 47.39943457 C-6.40875877 41.4967709 -6.40823143 35.59411757 -6.40530014 29.69145203 C-6.40463061 27.17471817 -6.40546018 24.65798348 -6.40777969 22.14125061 C-6.4103047 18.63069378 -6.40646776 15.12020164 -6.40087891 11.60964966 C-6.40290314 10.55818253 -6.40492737 9.50671539 -6.40701294 8.42338562 C-6.40419312 7.47265671 -6.40137329 6.5219278 -6.39846802 5.54238892 C-6.39809099 4.71130867 -6.39771397 3.88022842 -6.39732552 3.02396393 C-6.13067186 -0.97033214 -3.35826033 0.01562701 0 0 Z " fill="#2B5587" transform="translate(523.271484375,81.86105346679688)"/>
<path d="M0 0 C0.77166 -0.00095673 1.54332001 -0.00191345 2.33836365 -0.00289917 C3.96996136 -0.00357996 5.60156178 -0.0017327 7.2331543 0.00244141 C9.73948196 0.00779837 12.245631 0.00248931 14.75195312 -0.00390625 C16.33463581 -0.00324559 17.91731839 -0.00196469 19.5 0 C20.25414688 -0.00202423 21.00829376 -0.00404846 21.78529358 -0.00613403 C27.06863751 0.01785626 27.06863751 0.01785626 28.18359375 1.1328125 C28.43774925 5.77296575 28.36882173 10.42402556 28.37109375 15.0703125 C28.38333984 16.38451172 28.39558594 17.69871094 28.40820312 19.05273438 C28.41013672 20.30505859 28.41207031 21.55738281 28.4140625 22.84765625 C28.41817139 24.00386475 28.42228027 25.16007324 28.42651367 26.35131836 C28.18359375 29.1328125 28.18359375 29.1328125 26.18359375 31.1328125 C23.62631435 31.34460132 21.17996061 31.43680119 18.62109375 31.43359375 C17.87400146 31.43787888 17.12690918 31.442164 16.35717773 31.44657898 C14.77686579 31.45232463 13.19652739 31.4528208 11.61621094 31.44848633 C9.19290287 31.44532465 6.7708134 31.46878658 4.34765625 31.49414062 C2.81380363 31.49641337 1.27994771 31.49711723 -0.25390625 31.49609375 C-1.34457397 31.50990837 -1.34457397 31.50990837 -2.45727539 31.52400208 C-4.5 31.50512695 -4.5 31.50512695 -7.81640625 31.1328125 C-10.17649442 27.59268025 -10.05104269 26.12159295 -10.01171875 21.93359375 C-10.00527344 20.72509766 -9.99882813 19.51660156 -9.9921875 18.27148438 C-9.96705078 16.3775293 -9.96705078 16.3775293 -9.94140625 14.4453125 C-9.93238281 13.17107422 -9.92335938 11.89683594 -9.9140625 10.58398438 C-9.89046266 7.43340623 -9.85753819 4.28320267 -9.81640625 1.1328125 C-6.70690096 -0.42194014 -3.41193595 -0.00918274 0 0 Z " fill="#3A618F" transform="translate(1115.81640625,40.8671875)"/>
<path d="M0 0 C10.89 0 21.78 0 33 0 C33 9.57 33 19.14 33 29 C22.11 29 11.22 29 0 29 C0 19.43 0 9.86 0 0 Z " fill="#255084" transform="translate(519,45)"/>
<path d="M0 0 C0.77399643 0.00718552 1.54799286 0.01437103 2.34544373 0.02177429 C3.5362278 0.02246162 3.5362278 0.02246162 4.75106812 0.02316284 C6.42975865 0.02618539 8.10844637 0.03407179 9.78709412 0.0464325 C12.36588906 0.06469419 14.94432524 0.06694217 17.5231781 0.06669617 C19.15143643 0.07161108 20.77969232 0.07743929 22.40794373 0.08427429 C23.57197472 0.08594353 23.57197472 0.08594353 24.75952148 0.08764648 C30.1942374 0.13619297 30.1942374 0.13619297 31.31028748 1.25224304 C31.4041005 3.09342334 31.42772702 4.93821946 31.42381287 6.78178406 C31.42373734 7.96293289 31.4236618 9.14408173 31.42358398 10.36102295 C31.4184227 11.64641464 31.41326141 12.93180634 31.40794373 14.25614929 C31.40652878 15.56430099 31.40511383 16.8724527 31.40365601 18.22024536 C31.39983157 21.70387163 31.39000194 25.18745644 31.37895203 28.67106628 C31.3687363 32.22351012 31.36415804 35.77596064 31.3591156 39.32841492 C31.3483796 46.30304136 31.33130407 53.27764021 31.31028748 60.25224304 C30.65028748 60.25224304 29.99028748 60.25224304 29.31028748 60.25224304 C29.31028748 40.78224304 29.31028748 21.31224304 29.31028748 1.25224304 C18.09028748 1.25224304 6.87028748 1.25224304 -4.68971252 1.25224304 C-4.68971252 52.07224304 -4.68971252 102.89224304 -4.68971252 155.25224304 C6.53028748 155.25224304 17.75028748 155.25224304 29.31028748 155.25224304 C29.31028748 133.80224304 29.31028748 112.35224304 29.31028748 90.25224304 C29.97028748 89.92224304 30.63028748 89.59224304 31.31028748 89.25224304 C31.33341383 97.84030025 31.35120405 106.42834453 31.36209965 115.01642513 C31.36732784 119.00381504 31.37442432 122.99118372 31.38572693 126.9785614 C31.39655809 130.82349419 31.40256479 134.66840649 31.40516472 138.51335335 C31.40701856 139.98343287 31.41063838 141.45351122 31.41601753 142.92358208 C31.42323103 144.97578772 31.42427829 147.02790771 31.42381287 149.0801239 C31.42603348 150.2503862 31.42825409 151.4206485 31.43054199 152.62637329 C31.31028748 155.25224304 31.31028748 155.25224304 30.31028748 156.25224304 C27.65572554 156.35319868 25.02773572 156.39195303 22.37278748 156.38505554 C21.17988098 156.38649063 21.17988098 156.38649063 19.96287537 156.38795471 C18.27822287 156.38863647 16.59356776 156.38678247 14.90892029 156.38261414 C12.32129551 156.37726579 9.73384432 156.38255923 7.14622498 156.38896179 C5.51341209 156.38830101 3.88059931 156.38701985 2.24778748 156.38505554 C1.46862976 156.38707977 0.68947205 156.389104 -0.11329651 156.39118958 C-5.57476148 156.36719409 -5.57476148 156.36719409 -6.68971252 155.25224304 C-6.78379527 153.53141573 -6.80714337 151.80669058 -6.80323792 150.08329773 C-6.80316742 148.96216583 -6.80309692 147.84103394 -6.80302429 146.68592834 C-6.79785797 145.44453094 -6.79269165 144.20313354 -6.78736877 142.92411804 C-6.78512686 140.92929014 -6.78288524 138.93446224 -6.78065491 136.93963432 C-6.77727519 134.78623971 -6.77141694 132.63286415 -6.76487732 130.47947693 C-6.75136099 125.98006919 -6.74546025 121.48067133 -6.74073792 116.98124695 C-6.72867451 106.5959432 -6.70677554 96.21066448 -6.68450928 85.82537842 C-6.6642534 76.35010792 -6.64617302 66.87484677 -6.63629436 57.39955902 C-6.63216321 53.66826942 -6.62591718 49.93700937 -6.61454773 46.20573425 C-6.60185302 42.02071504 -6.59458311 37.83571801 -6.59205627 33.65068054 C-6.59119522 32.3643573 -6.59033417 31.07803406 -6.58944702 29.75273132 C-6.61155345 21.48227662 -6.92062665 13.2994958 -7.66847229 5.0632782 C-7.67548157 4.1356366 -7.68249084 3.207995 -7.68971252 2.25224304 C-5.13537501 -0.30209447 -3.48237369 0.01493511 0 0 Z " fill="#D1DBE6" transform="translate(840.6897125244141,40.74775695800781)"/>
<path d="M0 0 C0.66 0.33 1.32 0.66 2 1 C-4.50959488 6.75266525 -4.50959488 6.75266525 -9 8 C-9.66 7.67 -10.32 7.34 -11 7 C-9.21475351 5.80286983 -7.4215972 4.61752721 -5.625 3.4375 C-4.62726563 2.77621094 -3.62953125 2.11492187 -2.6015625 1.43359375 C-1.74304688 0.96050781 -0.88453125 0.48742187 0 0 Z " fill="#7B7B7B" transform="translate(139,176)"/>
</svg>
