<?xml version="1.0" encoding="UTF-8"?>
<svg width="140px" height="38px" viewBox="0 0 140 38" version="1.1" xmlns="http://www.w3.org/2000/svg" xmlns:xlink="http://www.w3.org/1999/xlink">
    <title>clipchain</title>
    <defs>
        <path d="M0,0 L140,0 L140,38 L0,38 L0,0 Z" id="path-1"></path>
    </defs>
    <g id="clipchain" stroke="none" fill="none" xlink:href="#path-1" fill-rule="nonzero">
        <path d="M51.8361461,25.4363082 C50.294009,25.4363082 48.9267941,25.0785263 47.7345013,24.3629624 C46.5422086,23.6473986 45.6076834,22.6394355 44.9309258,21.3390732 C44.2541683,20.0387109 43.9157895,18.5144483 43.9157895,16.7662853 C43.9157895,15.0030702 44.2529629,13.4706053 44.9273098,12.1688906 C45.6016567,10.867176 46.5361818,9.85921291 47.7308853,9.14500143 C48.9255888,8.43078995 50.294009,8.07368421 51.8361461,8.07368421 C52.7871345,8.07368421 53.6720641,8.21488606 54.4909349,8.49728976 C55.3098057,8.77969346 56.0381285,9.18533642 56.6759034,9.71421863 C57.3136783,10.2431008 57.8391503,10.8778477 58.2523193,11.6184592 C58.6654883,12.3590707 58.9429237,13.1899361 59.0846253,14.1110555 L56.0524457,14.1110555 C55.9414362,13.5772931 55.7615163,13.1017989 55.5126859,12.6845728 C55.2638555,12.2673468 54.9585208,11.9146803 54.5966819,11.6265732 C54.234843,11.3384662 53.8238495,11.1204162 53.3637014,10.9724232 C52.9035533,10.8244303 52.4052457,10.7504338 51.8687786,10.7504338 C50.8388841,10.7504338 49.9552187,10.9997052 49.2177822,11.498248 C48.4803458,11.9967908 47.9135393,12.6963617 47.5173627,13.5969608 C47.1211861,14.4975599 46.9230978,15.5540014 46.9230978,16.7662853 C46.9230978,17.9710431 47.1205099,19.02184 47.5153342,19.9186761 C47.9101584,20.8155122 48.4769649,21.5131722 49.2157537,22.0116562 C49.9545425,22.5101402 50.8388841,22.7593822 51.8687786,22.7593822 C52.4052457,22.7593822 52.9016718,22.6860912 53.3580568,22.5395094 C53.8144419,22.3929276 54.2235539,22.1761124 54.5853928,21.8890637 C54.9472318,21.602015 55.2537718,21.2517592 55.5050129,20.8382961 C55.756254,20.4248331 55.9411423,19.9525728 56.0596777,19.4215151 L59.0846253,19.4215151 C58.9450404,20.3378131 58.6681342,21.1655916 58.2539068,21.9048508 C57.8396795,22.6441099 57.3130022,23.2769753 56.6738749,23.8034468 C56.0347476,24.3299183 55.3064248,24.7336798 54.4889064,25.0147311 C53.6713879,25.2957825 52.7871345,25.4363082 51.8361461,25.4363082 Z M63.9741403,8.34462243 L63.9741403,25.1653699 L61.1202931,25.1653699 L61.1202931,8.34462243 L63.9741403,8.34462243 Z M66.4984624,25.1653699 L66.4984624,13.2440885 L69.3433137,13.2440885 L69.3433137,25.1653699 L66.4984624,25.1653699 Z M67.920888,11.471701 C67.431694,11.471701 67.0252867,11.3155352 66.7016661,11.0032037 C66.3780454,10.6908721 66.2162351,10.3051615 66.2162351,9.8460717 C66.2162351,9.38698195 66.3780454,9.00315281 66.7016661,8.69458429 C67.0252867,8.38601576 67.427931,8.2317315 67.909599,8.2317315 C68.398793,8.2317315 68.8052003,8.38601576 69.1288209,8.69458429 C69.4524416,9.00315281 69.6142519,9.39074498 69.6142519,9.85736079 C69.6142519,10.3164505 69.4524416,10.7002797 69.1288209,11.0088482 C68.8052003,11.3174167 68.402556,11.471701 67.920888,11.471701 Z M71.8674594,29.8842105 L71.8674594,13.2440885 L74.6761502,13.2440885 L74.6761502,14.9076421 L74.7110759,14.9076421 C74.9587303,14.4825372 75.2653879,14.1293415 75.6310487,13.8480549 C75.9967094,13.5667684 76.4088495,13.3554507 76.8674594,13.2141018 C77.3260883,13.072753 77.811284,13.0020786 78.3230562,13.0020786 C79.3481293,13.0020786 80.2462295,13.26308 81.0173569,13.785083 C81.7884842,14.3070859 82.3898929,15.0334978 82.8215831,15.9643187 C83.2532733,16.8951397 83.4691184,17.9725718 83.4691184,19.1966152 C83.4691184,20.4320652 83.2553018,21.5158769 82.8276686,22.4480502 C82.4000355,23.3802234 81.7999791,24.1064884 81.0274994,24.626845 C80.2550197,25.1472016 79.3481293,25.4073799 78.3068282,25.4073799 C77.7896466,25.4073799 77.3082727,25.3319723 76.8627063,25.181157 C76.4171399,25.0303418 76.015995,24.804413 75.6592714,24.5033705 C75.3025479,24.2023281 75.0001825,23.826319 74.7521752,23.3753432 L74.7213066,23.3753432 L74.7213066,29.8842105 L71.8674594,29.8842105 Z M77.6353036,23.0259106 C78.2275105,23.0259106 78.7436631,22.8775648 79.1837613,22.5808734 C79.6238595,22.2841819 79.9673537,21.8507572 80.2142438,21.2805993 C80.4611339,20.7104413 80.5845789,20.0157799 80.5845789,19.1966152 C80.5845789,18.372629 80.4611339,17.6769093 80.2142438,17.109456 C79.9673537,16.5420028 79.6238595,16.1099304 79.1837613,15.8132389 C78.7436631,15.5165475 78.2275105,15.3682018 77.6353036,15.3682018 C77.0169906,15.3682018 76.4768487,15.5261902 76.0148778,15.8421672 C75.552907,16.1581442 75.1954779,16.6022701 74.9425905,17.1745447 C74.689703,17.7468194 74.5632593,18.4208429 74.5632593,19.1966152 C74.5632593,19.9675661 74.689703,20.6405312 74.9425905,21.2155106 C75.1954779,21.7904899 75.552907,22.2359681 76.0148778,22.5519451 C76.4768487,22.8679221 77.0169906,23.0259106 77.6353036,23.0259106 Z M90.7157923,25.4363082 C89.5546622,25.4363082 88.5359392,25.173043 87.6596234,24.6465127 C86.7833076,24.1199824 86.1015229,23.3894252 85.6142692,22.4548412 C85.1270155,21.5202573 84.8833886,20.441708 84.8833886,19.2191934 C84.8833886,17.9918574 85.1270155,16.9084867 85.6142692,15.9690813 C86.1015229,15.029676 86.7833076,14.2955028 87.6596234,13.7665618 C88.5359392,13.2376208 89.5546622,12.9731503 90.7157923,12.9731503 C91.4635771,12.9731503 92.1537993,13.0847476 92.7864588,13.3079424 C93.4191184,13.5311372 93.9731952,13.845262 94.4486895,14.250317 C94.9241837,14.655372 95.3065723,15.1337473 95.5958553,15.6854429 C95.8851383,16.2371385 96.0617067,16.8451913 96.1255606,17.5096014 L93.3302756,17.5096014 C93.2788867,17.1883327 93.1846051,16.8958453 93.0474309,16.6321391 C92.9102566,16.368433 92.7321889,16.1408578 92.5132275,15.9494136 C92.2942662,15.7579694 92.0380861,15.6094767 91.7446873,15.5039355 C91.4512885,15.3983942 91.1191422,15.3456236 90.7482485,15.3456236 C90.1278188,15.3456236 89.594615,15.5041118 89.148637,15.8210884 C88.7026591,16.1380649 88.3610464,16.586483 88.1237991,17.1663425 C87.8865518,17.746202 87.7679281,18.4304856 87.7679281,19.2191934 C87.7679281,20.000375 87.8865518,20.6791317 88.1237991,21.2554634 C88.3610464,21.8317951 88.7021299,22.2772732 89.1470495,22.5918979 C89.5919691,22.9065225 90.1257021,23.0638349 90.7482485,23.0638349 C91.1191422,23.0638349 91.4488778,23.0127988 91.7374552,22.9107265 C92.0260326,22.8086543 92.27501,22.6618961 92.4843874,22.4704519 C92.6937648,22.2790078 92.8670112,22.0488749 93.0041266,21.7800534 C93.1412421,21.5112319 93.2427851,21.2124237 93.3087557,20.8836289 L96.1255606,20.8836289 C96.0725254,21.5383963 95.9033948,22.1423039 95.6181689,22.6953518 C95.3329429,23.2483998 94.9507013,23.7300089 94.471444,24.1401793 C93.9921868,24.5503496 93.4341999,24.8689137 92.7974833,25.0958715 C92.1607668,25.3228293 91.4668698,25.4363082 90.7157923,25.4363082 Z M100.880351,18.4243707 L100.880351,25.1653699 L98.0265035,25.1653699 L98.0265035,8.34462243 L100.880351,8.34462243 L100.880351,16.2762681 L100.273033,16.2762681 C100.656274,15.2136823 101.196651,14.4023376 101.894164,13.842234 C102.591677,13.2821304 103.458262,13.0020786 104.493919,13.0020786 C105.328959,13.0020786 106.065425,13.1824689 106.703317,13.5432494 C107.34121,13.90403 107.840782,14.4343822 108.202033,15.1343059 C108.563284,15.8342296 108.743909,16.695846 108.743909,17.7191552 L108.743909,25.1653699 L105.890062,25.1653699 L105.890062,18.1716009 C105.890062,17.2949323 105.680831,16.6309632 105.262371,16.1796935 C104.84391,15.7284238 104.251909,15.5027889 103.486367,15.5027889 C102.988118,15.5027889 102.542581,15.6045377 102.149756,15.8080354 C101.756931,16.011533 101.447157,16.3283038 101.220435,16.7583476 C100.993712,17.1883915 100.880351,17.7437325 100.880351,18.4243707 Z M114.906996,25.3581665 C114.113937,25.3581665 113.40781,25.225402 112.788615,24.9598732 C112.16942,24.6943443 111.680696,24.295904 111.322444,23.7645523 C110.964192,23.2332006 110.785066,22.5724066 110.785066,21.7821701 C110.785066,21.1028255 110.912538,20.5425454 111.167484,20.1013301 C111.422429,19.6601147 111.768393,19.3077422 112.205375,19.0442124 C112.642357,18.7806827 113.142928,18.5801837 113.707089,18.4427155 C114.271249,18.3052473 114.858723,18.204351 115.46951,18.1400267 C116.208005,18.0562993 116.793479,17.9833611 117.225934,17.9212123 C117.658388,17.8590635 117.967486,17.7650466 118.153227,17.6391614 C118.338968,17.5132763 118.431838,17.314747 118.431838,17.0435736 L118.431838,16.9550248 C118.431838,16.6132946 118.345289,16.3122521 118.172189,16.0518974 C117.99909,15.7915427 117.750201,15.5870749 117.425522,15.438494 C117.100843,15.2899131 116.710134,15.2156226 116.253396,15.2156226 C115.796188,15.2156226 115.392897,15.2895309 115.043523,15.4373474 C114.694149,15.585164 114.417096,15.7893378 114.212364,16.0498689 C114.007631,16.3104 113.890213,16.6102959 113.860109,16.9495566 L111.122857,16.9495566 C111.171306,16.1572035 111.409258,15.4660994 111.836715,14.8762443 C112.264172,14.2863892 112.857761,13.8265645 113.617481,13.4967701 C114.377202,13.1669758 115.277537,13.0020786 116.318485,13.0020786 C117.09214,13.0020786 117.785066,13.0954782 118.397265,13.2822774 C119.009463,13.4690766 119.527997,13.7382803 119.952867,14.0898884 C120.377737,14.4414966 120.700975,14.8655726 120.922582,15.3621162 C121.14419,15.8586599 121.254993,16.416735 121.254993,17.0363415 L121.254993,25.1653699 L118.45618,25.1653699 L118.45618,23.4801201 L118.411024,23.4801201 C118.224754,23.833845 117.981539,24.1528795 117.681378,24.4372235 C117.381218,24.7215675 117.005414,24.946144 116.553968,25.110953 C116.102522,25.275762 115.553531,25.3581665 114.906996,25.3581665 Z M115.608683,23.2479882 C116.226055,23.2479882 116.746147,23.1353324 117.168959,22.910021 C117.591771,22.6847095 117.910658,22.3841962 118.125622,22.0084811 C118.340585,21.632766 118.448066,21.2150696 118.448066,20.7553919 L118.448066,19.4603213 C118.359282,19.5172372 118.228723,19.5717129 118.056388,19.6237486 C117.884053,19.6757842 117.679408,19.7259678 117.442455,19.7742992 C117.205502,19.8226306 116.948704,19.8697567 116.672063,19.9156774 C116.395421,19.9615982 116.110813,20.0057844 115.818237,20.0482361 C115.413241,20.1057399 115.039525,20.200433 114.697089,20.3323155 C114.354653,20.464198 114.079893,20.6440591 113.872809,20.8718988 C113.665725,21.0997386 113.562182,21.3947543 113.562182,21.756946 C113.562182,22.0661025 113.646321,22.3326015 113.814599,22.5564431 C113.982878,22.7802846 114.220242,22.9515025 114.526694,23.0700968 C114.833146,23.188691 115.193809,23.2479882 115.608683,23.2479882 Z M123.779205,25.1653699 L123.779205,13.2440885 L126.624056,13.2440885 L126.624056,25.1653699 L123.779205,25.1653699 Z M125.201631,11.471701 C124.712437,11.471701 124.306029,11.3155352 123.982409,11.0032037 C123.658788,10.6908721 123.496978,10.3051615 123.496978,9.8460717 C123.496978,9.38698195 123.658788,9.00315281 123.982409,8.69458429 C124.306029,8.38601576 124.708674,8.2317315 125.190342,8.2317315 C125.679536,8.2317315 126.085943,8.38601576 126.409564,8.69458429 C126.733184,9.00315281 126.894995,9.39074498 126.894995,9.85736079 C126.894995,10.3164505 126.733184,10.7002797 126.409564,11.0088482 C126.085943,11.3174167 125.683299,11.471701 125.201631,11.471701 Z M132.002049,18.4243707 L132.002049,25.1653699 L129.148202,25.1653699 L129.148202,13.2440885 L131.952836,13.2440885 L131.952836,16.2762681 L131.394731,16.2762681 C131.777973,15.2136823 132.31835,14.4023376 133.015863,13.842234 C133.713376,13.2821304 134.579961,13.0020786 135.615617,13.0020786 C136.450657,13.0020786 137.187124,13.1824689 137.825016,13.5432494 C138.462909,13.90403 138.96248,14.4343822 139.323731,15.1343059 C139.684982,15.8342296 139.865608,16.695846 139.865608,17.7191552 L139.865608,25.1653699 L137.01176,25.1653699 L137.01176,18.1716009 C137.01176,17.2949323 136.80253,16.6309632 136.384069,16.1796935 C135.965608,15.7284238 135.373607,15.5027889 134.608066,15.5027889 C134.109817,15.5027889 133.66428,15.6045377 133.271455,15.8080354 C132.87863,16.011533 132.568856,16.3283038 132.342133,16.7583476 C132.115411,17.1883915 132.002049,17.7437325 132.002049,18.4243707 Z" id="Combined-Shape" fill="#0155D2"></path>
        <path d="M4.04629933,5.01340379 C9.44136511,-0.337801264 18.188495,-0.337801264 23.5835608,5.01340379 L32.1812753,13.5412207 L32.381805,13.7426499 C37.536386,19.0220756 37.548954,27.4241428 32.3832133,32.7167728 L32.2328247,32.8685181 L32.1385189,32.9620573 C26.7670668,38.2898406 18.0582223,38.2898406 12.6867702,32.9620573 L4.04629933,24.3918315 C-1.34876644,19.0406265 -1.34876644,10.3646088 4.04629933,5.01340379 Z M29.9057547,15.5932627 C25.7227745,11.5987277 19.0668336,11.6465696 14.9430899,15.7367882 L14.8575771,15.8216058 C10.6850285,19.9602324 10.6850285,26.670272 14.8575771,30.8088986 L14.9615086,30.9093367 C19.120796,34.8826641 25.7228871,34.8855068 29.8834506,30.8904503 L30.0104684,30.7664898 C34.2066307,26.6044414 34.2066307,19.8564277 30.0104684,15.6943793 L29.9057547,15.5932627 Z M20.1837053,19.204001 C20.2412544,19.204001 20.2977216,19.2185266 20.3470696,19.2460249 L27.3504709,23.1485453 C27.5008436,23.2323378 27.549604,23.4134771 27.4593804,23.5531313 C27.4325657,23.594637 27.3951621,23.6293744 27.3504709,23.6542778 L20.3470696,27.5567982 C20.1966969,27.6405907 20.001655,27.5953059 19.9114314,27.4556517 C19.8818226,27.4098212 19.8661821,27.357379 19.8661821,27.303932 L19.8661821,19.4988911 C19.8661821,19.3360278 20.0083421,19.204001 20.1837053,19.204001 Z M23.221761,9.60662808 C19.1564023,7.45010559 13.9872835,8.07218946 10.5587198,11.4728797 C7.1301561,14.8735699 6.50297336,20.0006648 8.67710186,24.0328127 C8.48043058,20.3062335 9.81698671,16.5149 12.6867702,13.6684472 L12.7722831,13.5836295 C15.6191527,10.7599044 19.4034958,9.43275354 23.1315905,9.60217705 L23.221761,9.60662808 Z M18.8098486,5.2633539 C14.7553487,3.15104065 9.62593817,3.78544349 6.21710616,7.16656243 C2.77384151,10.5818341 2.15603276,15.738347 4.36328022,19.7784465 C4.15144241,16.0198049 5.49298667,12.1911123 8.38791299,9.31972107 C11.2472979,6.48358239 15.0482775,5.15059721 18.7927615,5.32076553 L18.9323803,5.32820414 L18.8098486,5.2633539 Z" id="Shape" fill="#0155D2"></path>
    </g>
</svg>