<?xml version="1.0" encoding="UTF-8"?>
<svg version="1.1" xmlns="http://www.w3.org/2000/svg" width="294" height="254">
<path d="M0 0 C1.84584183 -0.0129007 1.84584183 -0.0129007 3.72897339 -0.02606201 C5.09011798 -0.030497 6.45126303 -0.03479538 7.81240845 -0.03897095 C9.24839474 -0.04687646 10.68437906 -0.05514568 12.12036133 -0.06375122 C16.83621331 -0.08993524 21.55207397 -0.10528246 26.26797485 -0.11953735 C27.89593129 -0.12489988 29.52388768 -0.1302774 31.15184402 -0.13566971 C37.93058949 -0.15729955 44.70933263 -0.17603082 51.48810387 -0.1872921 C61.17508375 -0.20349406 70.86166018 -0.23657879 80.54848802 -0.29369295 C87.37335933 -0.33254676 94.19812348 -0.35194337 101.0231024 -0.35721266 C105.09144572 -0.36084715 109.1593584 -0.37266212 113.22758102 -0.4053154 C117.06418064 -0.4356667 120.90009523 -0.44161323 124.7367897 -0.42993164 C126.13386354 -0.42971309 127.53097168 -0.43783359 128.92793274 -0.45558548 C144.08065463 -0.63742586 156.93730037 3.51833745 167.99453735 14.15390015 C182.1334785 30.50012141 182.31191938 48.64297274 182.2953186 69.2749939 C182.29921531 71.30795884 182.30355195 73.34092298 182.30830383 75.37388611 C182.31572542 79.61576996 182.31550406 83.85757052 182.31021118 88.09945679 C182.30441644 93.49994977 182.32136777 98.9000998 182.34455585 104.30053616 C182.35937863 108.49334156 182.36015343 112.68606593 182.35704613 116.8788929 C182.35755487 118.86853783 182.36270721 120.85818783 182.37285805 122.84780693 C182.46049779 142.42082659 180.69494863 158.88304648 166.61953735 173.7906189 C154.85654789 184.3808103 143.65029968 186.45842169 128.27603149 186.42855835 C126.79193364 186.43291131 125.30783804 186.4380964 123.82374573 186.44404602 C119.8113209 186.45738371 115.79899056 186.4580206 111.7865479 186.45548272 C108.42930871 186.45440957 105.07208836 186.4593051 101.71485323 186.46408814 C93.79122109 186.47516498 85.86763637 186.47563085 77.94400024 186.46957397 C69.78579439 186.46353346 61.62776097 186.47585133 53.46958452 186.49714404 C46.44937199 186.51478897 39.42921419 186.5207569 32.40898031 186.5175063 C28.22306113 186.5156981 24.03726502 186.51828335 19.85136604 186.53222084 C15.9138797 186.54484197 11.97666131 186.54281488 8.03917885 186.52980995 C6.5997127 186.52745401 5.16022744 186.53014341 3.72078323 186.53843307 C-10.72274001 186.61557253 -19.81835414 183.29027447 -31.00546265 174.15390015 C-42.06490244 162.97019699 -46.32246787 150.38706133 -46.28012085 134.95932007 C-46.28523178 133.98241714 -46.29034271 133.00551422 -46.29560852 131.99900818 C-46.30942144 128.79406475 -46.30855383 125.58933842 -46.3062439 122.3843689 C-46.3101357 120.13911358 -46.31447137 117.89385899 -46.31922913 115.64860535 C-46.32667376 110.95072032 -46.32641303 106.25291046 -46.32113647 101.55502319 C-46.31534781 95.56009954 -46.33226711 89.56548544 -46.35548115 83.57061291 C-46.37027496 78.93523892 -46.37108245 74.29993848 -46.36797142 69.66454506 C-46.36848191 67.45554301 -46.37366803 65.24653655 -46.38378334 63.0375576 C-46.4507683 46.36306847 -45.51780905 32.42241975 -36.00546265 18.15390015 C-35.34546265 18.15390015 -34.68546265 18.15390015 -34.00546265 18.15390015 C-33.76569702 17.57511108 -33.5259314 16.99632202 -33.27890015 16.3999939 C-28.34350838 7.69493174 -17.3205449 3.38892677 -8.21430016 0.60663414 C-5.44005154 0.03801076 -2.83306859 0.01476039 0 0 Z M44.99453735 65.15390015 C43.75004461 67.64288563 43.8406406 69.36587702 43.80166626 72.15097046 C43.78560333 73.1925531 43.76954041 74.23413574 43.75299072 75.30728149 C43.70856696 80.07792554 43.66746901 84.84842965 43.6444397 89.61923218 C43.62788464 92.13527682 43.60060096 94.65127452 43.56240845 97.16708374 C43.50763409 100.79314599 43.48576278 104.41810484 43.47109985 108.04452515 C43.44843048 109.16659363 43.42576111 110.28866211 43.40240479 111.44473267 C43.35023311 118.12354543 43.35023311 118.12354543 46.4022522 123.84823608 C49.08744743 126.23653744 50.08968897 127.02815082 53.58047485 127.51327515 C58.36583996 127.0095525 61.5682678 124.89385659 65.61953735 122.40390015 C66.43696411 121.9138147 67.25439087 121.42372925 68.09658813 120.91879272 C69.83437978 119.87588661 71.56917442 118.82797285 73.30117798 117.77548218 C76.01977866 116.1387032 78.76031764 114.54613589 81.51016235 112.9624939 C83.29685489 111.92253157 85.08331974 110.88217797 86.86953735 109.84140015 C87.70694458 109.36283569 88.54435181 108.88427124 89.40713501 108.39120483 C94.95277029 105.11521617 99.46719483 101.87679754 101.99453735 95.71640015 C101.99453735 91.26433051 100.68617909 87.85483662 97.57266235 84.72421265 C95.4519703 83.06331665 93.26234609 81.60989909 90.99453735 80.15390015 C90.41413696 79.77829956 89.83373657 79.40269897 89.23574829 79.01571655 C81.75360473 74.19175259 74.20107931 69.55125107 66.3187561 65.40390015 C64.2255523 64.27814348 62.24871125 63.05307693 60.24453735 61.77890015 C53.52756408 58.42041351 49.65620136 59.39537402 44.99453735 65.15390015 Z " fill="#234F83" transform="translate(54.005462646484375,55.846099853515625)"/>
<path d="M0 0 C3.47227461 0.00513339 6.94453968 0.00034849 10.4168148 -0.00277233 C16.24320973 -0.00639092 22.06955363 -0.0016687 27.89594078 0.00790882 C34.59145177 0.01878929 41.28684087 0.01526221 47.98234892 0.00425601 C53.7747804 -0.00487743 59.56717562 -0.0060728 65.35961199 -0.00086665 C68.8000001 0.00222003 72.24033131 0.00275502 75.68071556 -0.00393963 C120.92157391 -0.06437207 120.92157391 -0.06437207 137.07416344 15.63583851 C150.24546348 31.0213779 150.79452917 48.31608071 150.72650719 67.63583851 C150.72853387 69.68500338 150.73145022 71.73416753 150.7352047 73.78332996 C150.7396021 78.05796713 150.73328223 82.33241494 150.71918297 86.60702991 C150.70211465 92.04206886 150.71193414 97.47666242 150.72990036 102.91168499 C150.74082711 107.13803836 150.73725107 111.36428905 150.72951698 115.59064579 C150.72753831 117.59258676 150.72989056 119.59453754 150.73695564 121.59646702 C150.7930269 141.94737445 149.48130297 159.4236454 134.83978844 174.96005726 C130.7863406 178.68569905 126.35705184 181.98499846 121.32806969 184.26865101 C120.33806969 183.93865101 119.34806969 183.60865101 118.32806969 183.26865101 C118.33473152 182.15746403 118.34139336 181.04627705 118.34825706 179.90141773 C118.40930989 169.38345532 118.45415776 158.86552928 118.4835062 148.34742928 C118.49910219 142.94113 118.52022862 137.53497481 118.55438805 132.12875843 C118.58719913 126.90269732 118.60496822 121.67677403 118.61270142 116.45061779 C118.61820613 114.4657134 118.62895448 112.48081578 118.64525986 110.49597073 C118.73089663 99.630448 118.51442262 89.74571111 115.32806969 79.26865101 C114.98646812 78.06208851 114.64486656 76.85552601 114.29291344 75.61240101 C111.53055272 67.96601849 107.66270624 62.23811732 102.53510094 56.04599476 C100.32806969 53.26865101 100.32806969 53.26865101 99.27728844 51.02255726 C98.01946859 48.69843746 96.71655156 48.32875619 94.32806969 47.26865101 C92.81595513 46.18113384 91.3169374 45.07528324 89.82806969 43.95615101 C76.6046787 34.64363115 61.55073236 31.81720497 45.64325523 31.83627796 C44.344132 31.82608631 43.04500877 31.81589466 41.70651817 31.80539417 C38.18878196 31.77812186 34.6712073 31.76858086 31.1533792 31.7625401 C27.46047266 31.75307774 23.76768318 31.72686889 20.07485008 31.70253468 C13.10190261 31.65908011 6.12897812 31.6304046 -0.84406298 31.60721129 C-8.79107709 31.5800459 -16.7379722 31.53614204 -24.68490088 31.49092257 C-41.01385009 31.39837819 -57.34282072 31.32656017 -73.67193031 31.26865101 C-72.20567912 27.45328333 -70.51963122 24.31356226 -68.17193031 20.95615101 C-67.56349281 20.0731432 -66.95505531 19.19013538 -66.32818031 18.28036976 C-65.50833656 17.28456898 -65.50833656 17.28456898 -64.67193031 16.26865101 C-64.01193031 16.26865101 -63.35193031 16.26865101 -62.67193031 16.26865101 C-62.67193031 15.60865101 -62.67193031 14.94865101 -62.67193031 14.26865101 C-46.14321544 -2.30999956 -21.37902403 -0.0416015 0 0 Z " fill="#285385" transform="translate(134.67193031311035,5.731348991394043)"/>
</svg>
