<?xml version="1.0" encoding="UTF-8"?>
<svg version="1.1" xmlns="http://www.w3.org/2000/svg" width="1305" height="230">
<path d="M0 0 C11.22 0 22.44 0 34 0 C34 50.82 34 101.64 34 154 C22.78 154 11.56 154 0 154 C0 103.18 0 52.36 0 0 Z " fill="#000000" transform="translate(472,21)"/>
<path d="M0 0 C11.22 0 22.44 0 34 0 C34 9.57 34 19.14 34 29 C29.31854289 29.02291088 24.63727898 29.04283732 19.95581055 29.05493164 C18.36205386 29.05997157 16.76830181 29.0668035 15.17456055 29.07543945 C12.88849747 29.08751999 10.60249533 29.09323155 8.31640625 29.09765625 C7.59973282 29.10281754 6.88305939 29.10797882 6.14466858 29.11329651 C4.42936328 29.11349263 2.71418734 29.06192007 1 29 C0 28 0 28 -0.11352539 25.31616211 C-0.10828857 24.14835205 -0.10305176 22.98054199 -0.09765625 21.77734375 C-0.09515869 20.64288818 -0.09266113 19.50843262 -0.09008789 18.33959961 C-0.08098389 16.88690674 -0.07187988 15.43421387 -0.0625 13.9375 C-0.041875 9.338125 -0.02125 4.73875 0 0 Z " fill="#000000" transform="translate(528,21)"/>
<path d="M0 0 C11.55 0 23.1 0 35 0 C35.33 18.81 35.66 37.62 36 57 C40.455 52.05 40.455 52.05 45 47 C54.11023044 40.09385757 64.66092747 37.73377986 76 39 C88.04629082 41.49964065 97.91716189 46.75549601 105 57 C111.85895371 69.29881355 112.28338683 81.02684856 112.1953125 94.72265625 C112.19157665 96.43615045 112.18873238 98.14964681 112.18673706 99.86314392 C112.1791456 104.34624252 112.15953627 108.82920901 112.1373291 113.31225586 C112.1131515 118.7055361 112.1040683 124.09886081 112.09242249 129.49217987 C112.07310878 137.66154479 112.0347551 145.83062052 112 154 C100.78 154 89.56 154 78 154 C77.96261719 148.9675 77.92523437 143.935 77.88671875 138.75 C77.85642193 135.55074782 77.82526297 132.35155013 77.79101562 129.15234375 C77.73680787 124.08092074 77.68569357 119.0096055 77.65356445 113.93798828 C77.62744365 109.84644196 77.58698018 105.75526008 77.53681374 101.66394043 C77.52020409 100.10759027 77.5086532 98.55117715 77.50238609 96.99475098 C77.71226654 83.91273016 77.71226654 83.91273016 71.9375 72.5625 C67.05515279 68.62512322 60.99243982 69.48776568 55 70 C51.9876128 70.92284243 49.59078562 72.22735721 47 74 C46.13375 74.53625 45.2675 75.0725 44.375 75.625 C37.37342389 82.62657611 35.31691512 89.21105382 35.19340515 99.01759338 C35.20526752 100.39845199 35.21763352 101.77930635 35.23046875 103.16015625 C35.22173967 104.60080335 35.21024188 106.04143606 35.19612122 107.48204041 C35.16594875 111.24158569 35.17011032 115.00027306 35.18273926 118.7598877 C35.19223337 123.35187556 35.1637306 127.94375743 35.13767719 132.53565884 C35.11768236 136.10154059 35.10440949 139.66698533 35.11186218 143.23292542 C35.11128311 144.50192184 35.11070404 145.77091827 35.11010742 147.07836914 C35.11266037 148.2007045 35.11521332 149.32303986 35.11784363 150.47938538 C35 153 35 153 34 154 C31.56339554 154.10082764 29.15575299 154.13972603 26.71875 154.1328125 C25.99006714 154.13376923 25.26138428 154.13472595 24.51062012 154.13571167 C22.9672029 154.13639335 21.42378283 154.13453988 19.88037109 154.13037109 C17.510026 154.12502262 15.13987041 154.13031642 12.76953125 154.13671875 C11.27343708 154.13605797 9.77734303 154.1347768 8.28125 154.1328125 C7.21094543 154.13584885 7.21094543 154.13584885 6.11901855 154.13894653 C1.11495191 154.11495191 1.11495191 154.11495191 0 153 C-0.0966888 151.02571766 -0.12187075 149.04792169 -0.12025452 147.0712738 C-0.12162918 145.78253357 -0.12300385 144.49379333 -0.12442017 143.16600037 C-0.12088055 141.72451759 -0.11724573 140.28303505 -0.11352539 138.84155273 C-0.11324353 137.33403526 -0.11340123 135.82651764 -0.1139679 134.31900024 C-0.11425591 130.21380656 -0.10835861 126.10864185 -0.10139394 122.00345492 C-0.09516099 117.7179674 -0.09455665 113.43247928 -0.09336853 109.14698792 C-0.09025504 101.02613348 -0.08204141 92.90529244 -0.07201904 84.78444391 C-0.06085845 75.54155126 -0.05534759 66.29865798 -0.05032361 57.05576026 C-0.03985881 38.03716436 -0.02151312 19.01858683 0 0 Z " fill="#000000" transform="translate(845,21)"/>
<path d="M0 0 C11.55 0 23.1 0 35 0 C35.020625 4.599375 35.04125 9.19875 35.0625 13.9375 C35.071604 15.39019287 35.08070801 16.84288574 35.09008789 18.33959961 C35.09258545 19.47405518 35.09508301 20.60851074 35.09765625 21.77734375 C35.10289307 22.94515381 35.10812988 24.11296387 35.11352539 25.31616211 C35 28 35 28 34 29 C31.56339554 29.10082764 29.15575299 29.13972603 26.71875 29.1328125 C25.99006714 29.13376923 25.26138428 29.13472595 24.51062012 29.13571167 C22.9672029 29.13639335 21.42378283 29.13453988 19.88037109 29.13037109 C17.510026 29.12502262 15.13987041 29.13031642 12.76953125 29.13671875 C11.27343708 29.13605797 9.77734303 29.1347768 8.28125 29.1328125 C7.21094543 29.13584885 7.21094543 29.13584885 6.11901855 29.13894653 C1.11495191 29.11495191 1.11495191 29.11495191 0 28 C-0.08767112 25.92737924 -0.10695873 23.85179706 -0.09765625 21.77734375 C-0.09515869 20.64288818 -0.09266113 19.50843262 -0.09008789 18.33959961 C-0.08098389 16.88690674 -0.07187988 15.43421387 -0.0625 13.9375 C-0.041875 9.338125 -0.02125 4.73875 0 0 Z " fill="#000000" transform="translate(1116,21)"/>
<path d="M0 0 C4.78146257 4.15810153 9.01025571 8.35725661 12.19921875 13.85546875 C10.67255496 18.43546011 7.28895893 19.27215493 3.1171875 21.37109375 C1.48716797 22.16773437 1.48716797 22.16773437 -0.17578125 22.98046875 C-1.22378906 23.55023438 -2.27179688 24.12 -3.3515625 24.70703125 C-6.60191026 26.28198344 -9.21361675 27.38592113 -12.80078125 27.85546875 C-16.16796956 26.52745901 -18.61685527 24.89938537 -21.44775391 22.65576172 C-26.91102584 18.47583152 -34.23625525 19.33363431 -40.80078125 19.85546875 C-48.52597377 21.53068315 -53.45820679 25.31748165 -57.80078125 31.85546875 C-61.83586684 38.51335997 -61.56213328 46.31808369 -60.80078125 53.85546875 C-58.54947913 62.99381874 -53.7767584 68.00052614 -45.80078125 72.85546875 C-37.51721363 75.61665796 -27.69953819 74.56112602 -19.8515625 71.0234375 C-17.71415566 69.90993825 -17.71415566 69.90993825 -15.90625 68.09375 C-13.80078125 66.85546875 -13.80078125 66.85546875 -11.16796875 67.37890625 C-6.71289547 69.33252307 -2.30793276 71.3685885 2.07421875 73.48046875 C2.95335937 73.90070313 3.8325 74.3209375 4.73828125 74.75390625 C6.89344753 75.78463795 9.04701797 76.81856301 11.19921875 77.85546875 C11.19921875 84.10152311 7.37852354 87.45940909 3.19921875 91.85546875 C-10.56163379 103.50265434 -25.64194671 105.96557581 -43.17089844 105.09814453 C-59.24633398 103.61476327 -73.13924744 94.72515642 -83.62109375 82.78125 C-93.95077899 69.57067265 -96.34358951 54.26089599 -94.80078125 37.85546875 C-93.49810848 29.53870508 -90.47876323 21.83302052 -85.80078125 14.85546875 C-85.32125 14.11941406 -84.84171875 13.38335937 -84.34765625 12.625 C-76.05710295 0.93371004 -61.69997173 -8.35641506 -47.49609375 -10.8984375 C-30.36300809 -12.46276271 -14.11412807 -10.80705204 0 0 Z " fill="#000000" transform="translate(440.80078125,71.14453125)"/>
<path d="M0 0 C12.95244788 9.39927637 21.27910531 21.53677862 24.01953125 37.51953125 C26.0899122 55.3789856 23.31955963 73.06829796 12.4375 87.83984375 C1.9934919 100.24210336 -12.09490923 106.9255427 -28.0625 108.34765625 C-38.76809665 108.74225356 -48.24670155 105.90475925 -56.5625 99.125 C-57.5525 98.135 -58.5425 97.145 -59.5625 96.125 C-59.8925 112.625 -60.2225 129.125 -60.5625 146.125 C-71.7825 146.125 -83.0025 146.125 -94.5625 146.125 C-94.5625 95.635 -94.5625 45.145 -94.5625 -6.875 C-83.3425 -6.875 -72.1225 -6.875 -60.5625 -6.875 C-60.5625 -3.905 -60.5625 -0.935 -60.5625 2.125 C-59.96824219 1.66609375 -59.37398437 1.2071875 -58.76171875 0.734375 C-40.52974874 -12.76238662 -18.8744723 -12.06651587 0 0 Z M-55.5 28.875 C-62.21884905 37.55879547 -62.51745253 46.47197405 -61.5625 57.125 C-59.93079291 63.96764263 -56.74571815 70.52823185 -50.60546875 74.33984375 C-42.93975052 78.33625715 -35.90034623 79.20060697 -27.5 76.9375 C-20.14832551 74.50197593 -15.41690165 70.9971233 -11.5625 64.2265625 C-7.39313533 55.46438205 -7.62845007 46.49980816 -10.65234375 37.4140625 C-13.43277052 30.4212295 -18.30331765 25.3689627 -25.1875 22.3125 C-35.8330996 18.77751082 -47.70753861 20.59347199 -55.5 28.875 Z " fill="#000000" transform="translate(679.5625,68.875)"/>
<path d="M0 0 C5.11502395 3.79814786 8.55560187 9.64174193 12.12890625 14.8203125 C7.6936418 18.27813265 2.9264661 20.80887263 -2.05859375 23.3828125 C-2.96673828 23.89650391 -3.87488281 24.41019531 -4.81054688 24.93945312 C-7.56884565 26.33933418 -9.80948685 27.35135615 -12.87109375 27.8203125 C-16.37883264 26.41125635 -18.95960368 24.18600937 -21.87109375 21.8203125 C-29.69370274 18.4870333 -38.55239692 18.56618546 -46.43359375 21.6953125 C-47.92618294 22.37490623 -49.4069204 23.08148469 -50.87109375 23.8203125 C-51.93650391 24.25730469 -51.93650391 24.25730469 -53.0234375 24.703125 C-55.34698896 26.10806309 -55.83430812 27.34303711 -56.87109375 29.8203125 C-57.22429688 30.41328125 -57.5775 31.00625 -57.94140625 31.6171875 C-62.13948447 39.39140643 -62.37515935 49.21076172 -60.10546875 57.67578125 C-59.17876009 59.87119819 -58.14970873 61.81297639 -56.87109375 63.8203125 C-56.33484375 64.7278125 -55.79859375 65.6353125 -55.24609375 66.5703125 C-49.29667959 72.2065996 -43.41036728 74.14937557 -35.24609375 74.3203125 C-28.07622995 74.06011583 -22.81437392 73.28445404 -17.18359375 68.5703125 C-14.87109375 66.8203125 -14.87109375 66.8203125 -12.54199219 67.07250977 C-7.81811332 68.39510949 -3.53014245 70.63659001 0.87890625 72.7578125 C1.84957031 73.21349609 2.82023438 73.66917969 3.8203125 74.13867188 C4.74199219 74.57888672 5.66367187 75.01910156 6.61328125 75.47265625 C7.45600586 75.87476318 8.29873047 76.27687012 9.16699219 76.69116211 C11.12890625 77.8203125 11.12890625 77.8203125 12.12890625 79.8203125 C4.91752329 90.09107006 -2.12355505 96.97332031 -13.87109375 101.8203125 C-15.09699219 102.33271484 -15.09699219 102.33271484 -16.34765625 102.85546875 C-31.14666369 107.90592367 -48.82151096 105.77357375 -62.81640625 99.5 C-76.79495472 92.37444465 -87.25058634 81.97506581 -92.8984375 67.17578125 C-97.98373693 49.63251937 -95.92954193 33.05490284 -87.33984375 16.94921875 C-78.88294288 2.56849817 -65.69524365 -5.81517657 -49.87109375 -10.1796875 C-32.07139668 -14.70452632 -15.06878414 -9.50056954 0 0 Z " fill="#000000" transform="translate(814.87109375,71.1796875)"/>
<path d="M0 0 C1.49963124 1.2264065 2.94353717 2.44353717 4.3125 3.8125 C4.6425 0.8425 4.9725 -2.1275 5.3125 -5.1875 C16.5325 -5.1875 27.7525 -5.1875 39.3125 -5.1875 C39.3125 32.1025 39.3125 69.3925 39.3125 107.8125 C28.0925 107.8125 16.8725 107.8125 5.3125 107.8125 C4.9825 104.5125 4.6525 101.2125 4.3125 97.8125 C2.6109375 99.42125 2.6109375 99.42125 0.875 101.0625 C-4.7986174 106.02314955 -11.10113515 109.20559081 -18.6875 109.8125 C-19.43 109.87566406 -20.1725 109.93882812 -20.9375 110.00390625 C-36.13074097 110.70478493 -50.40209112 105.3244429 -61.9375 95.625 C-73.63515354 84.55864839 -79.42961891 69.75884649 -80.02392578 53.86206055 C-80.33444006 36.35730945 -75.32196078 20.95765792 -63.09375 8.09765625 C-46.74447792 -7.42884402 -19.30945173 -14.18304861 0 0 Z M-42.6875 33.8125 C-47.23005052 41.04198399 -47.69152766 50.17122593 -46.2265625 58.40234375 C-44.38823996 65.42041038 -41.47824045 71.40511033 -35.21484375 75.3828125 C-27.88828034 79.15939158 -21.12926446 81.23276193 -12.93359375 79.09375 C-5.46545094 76.57388685 -0.14281116 73.9515965 3.625 66.75 C7.68611185 58.09657601 7.99815502 46.25877183 4.75 37.25 C1.88754499 31.28404114 -2.28286281 26.61076223 -8.375 23.875 C-21.60684189 19.74646019 -33.70768948 23.69624043 -42.6875 33.8125 Z " fill="#000000" transform="translate(1054.6875,67.1875)"/>
<path d="M0 0 C11.81981384 9.92064713 16.69832939 20.19865691 18.6875 35.3125 C19.14811063 41.11426585 19.04095946 46.93128317 18.98046875 52.74609375 C18.97485513 54.36132915 18.97059342 55.97656974 18.96760559 57.59181213 C18.95629552 61.78885667 18.92695245 65.98557654 18.89349365 70.18249512 C18.85701306 75.24715722 18.84356552 80.31192949 18.82613373 85.3766861 C18.79730281 93.02218137 18.73972094 100.66696803 18.6875 108.3125 C7.4675 108.3125 -3.7525 108.3125 -15.3125 108.3125 C-15.36148437 103.50816406 -15.41046875 98.70382813 -15.4609375 93.75390625 C-15.49635586 90.69594349 -15.53233407 87.63800755 -15.5703125 84.58007812 C-15.6304361 79.73482261 -15.68857434 74.88960429 -15.734375 70.04418945 C-15.77146355 66.13425398 -15.81788467 62.22452705 -15.87056351 58.31477165 C-15.88898308 56.82901637 -15.90413605 55.3432166 -15.91584396 53.85739326 C-15.97906208 46.10637629 -16.23128108 38.8238263 -18.3125 31.3125 C-18.7146875 29.8584375 -18.7146875 29.8584375 -19.125 28.375 C-20.75545986 25.54314867 -22.22762232 25.29794704 -25.3125 24.3125 C-33.96763813 23.23486157 -41.18472953 24.11386249 -48.3125 29.3125 C-53.42535211 34.01941678 -57.82590848 39.4205499 -58.71122742 46.50167847 C-58.72233047 47.64307281 -58.73343353 48.78446716 -58.74487305 49.96044922 C-58.76466721 51.26134491 -58.78446136 52.5622406 -58.80485535 53.90255737 C-58.81162362 55.30743261 -58.81807066 56.71230942 -58.82421875 58.1171875 C-58.84107852 59.56594351 -58.8592305 61.01468501 -58.87861633 62.46340942 C-58.92598208 66.2608995 -58.95587781 70.05833071 -58.98205566 73.85601807 C-59.01718946 78.42090242 -59.07416372 82.98556083 -59.12744904 87.55026245 C-59.20580558 94.47097907 -59.25652905 101.39140313 -59.3125 108.3125 C-70.5325 108.3125 -81.7525 108.3125 -93.3125 108.3125 C-93.3125 71.0225 -93.3125 33.7325 -93.3125 -4.6875 C-82.0925 -4.6875 -70.8725 -4.6875 -59.3125 -4.6875 C-58.8175 3.7275 -58.8175 3.7275 -58.3125 12.3125 C-57.013125 10.78625 -55.71375 9.26 -54.375 7.6875 C-40.37479391 -7.77835267 -18.04352224 -12.65161032 0 0 Z " fill="#000000" transform="translate(1266.3125,66.6875)"/>
<path d="M0 0 C11.22 0 22.44 0 34 0 C34 37.29 34 74.58 34 113 C23.11 113 12.22 113 1 113 C0 112 0 112 -0.12304783 110.12780666 C-0.12212604 109.30280194 -0.12120424 108.47779722 -0.12025452 107.62779236 C-0.12231651 106.21215248 -0.12231651 106.21215248 -0.12442017 104.76791382 C-0.12082489 103.72422638 -0.11722961 102.68053894 -0.11352539 101.60522461 C-0.11367142 100.51267868 -0.11381744 99.42013275 -0.1139679 98.29447937 C-0.11326822 94.66374767 -0.10547329 91.03306654 -0.09765625 87.40234375 C-0.09579226 84.89270557 -0.09436827 82.38306702 -0.09336853 79.87342834 C-0.08993348 73.93065407 -0.08204273 67.98789616 -0.07201904 62.04513031 C-0.05976253 54.61798075 -0.05437792 47.19082895 -0.04882812 39.76367188 C-0.03808811 26.50910345 -0.02049008 13.25455694 0 0 Z " fill="#000000" transform="translate(528,62)"/>
<path d="M0 0 C11.55 0 23.1 0 35 0 C35.0225479 14.58571527 35.04091327 29.17141907 35.05181217 43.75714779 C35.05697491 50.52910421 35.06401718 57.30104905 35.07543945 64.07299805 C35.08644714 70.60224426 35.09227625 77.13148294 35.09487724 83.66073799 C35.09673199 86.15793612 35.10035354 88.65513355 35.10573006 91.15232658 C35.11293684 94.63664069 35.1139911 98.12090431 35.11352539 101.60522461 C35.11712067 102.64891205 35.12071594 103.69259949 35.12442017 104.76791382 C35.1230455 105.71167374 35.12167084 106.65543365 35.12025452 107.62779236 C35.12117631 108.45279708 35.1220981 109.2778018 35.12304783 110.12780666 C35 112 35 112 34 113 C31.56339554 113.10082764 29.15575299 113.13972603 26.71875 113.1328125 C25.99006714 113.13376923 25.26138428 113.13472595 24.51062012 113.13571167 C22.9672029 113.13639335 21.42378283 113.13453988 19.88037109 113.13037109 C17.510026 113.12502262 15.13987041 113.13031642 12.76953125 113.13671875 C11.27343708 113.13605797 9.77734303 113.1347768 8.28125 113.1328125 C7.21094543 113.13584885 7.21094543 113.13584885 6.11901855 113.13894653 C1.11495191 113.11495191 1.11495191 113.11495191 0 112 C-0.0956161 110.54518505 -0.12188351 109.08574514 -0.12025452 107.62779236 C-0.12231651 106.21215248 -0.12231651 106.21215248 -0.12442017 104.76791382 C-0.12082489 103.72422638 -0.11722961 102.68053894 -0.11352539 101.60522461 C-0.11367142 100.51267868 -0.11381744 99.42013275 -0.1139679 98.29447937 C-0.11326822 94.66374767 -0.10547329 91.03306654 -0.09765625 87.40234375 C-0.09579226 84.89270557 -0.09436827 82.38306702 -0.09336853 79.87342834 C-0.08993348 73.93065407 -0.08204273 67.98789616 -0.07201904 62.04513031 C-0.05976253 54.61798075 -0.05437792 47.19082895 -0.04882812 39.76367188 C-0.03808811 26.50910345 -0.02049008 13.25455694 0 0 Z " fill="#000000" transform="translate(1116,62)"/>
<path d="M0 0 C0.82267365 -0.00860046 1.64534729 -0.01720093 2.49295044 -0.02606201 C3.39217728 -0.03032196 4.29140411 -0.03458191 5.21788025 -0.03897095 C6.16785889 -0.04714844 7.11783752 -0.05532593 8.09660339 -0.06375122 C11.24631625 -0.08859871 14.39598393 -0.10512276 17.54576111 -0.11953735 C19.16124753 -0.12752287 19.16124753 -0.12752287 20.80937004 -0.13566971 C26.51372948 -0.16240292 32.21806707 -0.18177429 37.92247009 -0.19619751 C42.63555892 -0.20951912 47.34821299 -0.23733921 52.06114197 -0.27822876 C57.75753382 -0.32764969 63.45353224 -0.35233081 69.15012932 -0.35942459 C71.31616444 -0.36612195 73.48219132 -0.38130428 75.64810371 -0.4053154 C78.69005126 -0.4371046 81.73049619 -0.4369824 84.77256775 -0.42959595 C86.10015358 -0.45420395 86.10015358 -0.45420395 87.45455933 -0.47930908 C95.01093034 -0.40469298 101.77805678 1.9948401 107.20201111 7.3999939 C107.84976501 8.48473999 107.84976501 8.48473999 108.51060486 9.59140015 C108.96564392 10.31198608 109.42068298 11.03257202 109.88951111 11.7749939 C112.21185289 16.99383576 112.08078702 22.41308493 112.01060486 28.02890015 C111.98997986 30.38015015 111.96935486 32.73140015 111.94810486 35.15390015 C102.70810486 35.15390015 93.46810486 35.15390015 83.94810486 35.15390015 C83.94810486 32.51390015 83.94810486 29.87390015 83.94810486 27.15390015 C58.86810486 27.15390015 33.78810486 27.15390015 7.94810486 27.15390015 C7.94810486 46.95390015 7.94810486 66.75390015 7.94810486 87.15390015 C33.02810486 87.15390015 58.10810486 87.15390015 83.94810486 87.15390015 C83.94810486 84.51390015 83.94810486 81.87390015 83.94810486 79.15390015 C93.18810486 79.15390015 102.42810486 79.15390015 111.94810486 79.15390015 C112.25464215 90.49577985 112.43569604 99.95485955 104.94810486 109.15390015 C100.65864916 112.39287689 97.28280651 114.26577949 91.89620972 114.30780029 C91.07353607 114.31640076 90.25086243 114.32500122 89.40325928 114.3338623 C88.50403244 114.33812225 87.6048056 114.3423822 86.67832947 114.34677124 C85.72835083 114.35494873 84.77837219 114.36312622 83.79960632 114.37155151 C80.64989347 114.396399 77.50022579 114.41292305 74.35044861 114.42733765 C73.27345766 114.43266132 72.19646671 114.437985 71.08683968 114.44347 C65.38248023 114.47020321 59.67814265 114.48957458 53.97373962 114.5039978 C49.2606508 114.51731941 44.54799673 114.54513951 39.83506775 114.58602905 C34.1386759 114.63544998 28.44267748 114.6601311 22.7460804 114.66722488 C20.58004527 114.67392224 18.41401839 114.68910457 16.248106 114.71311569 C13.20615846 114.7449049 10.16571352 114.74478269 7.12364197 114.73739624 C6.23858475 114.75380157 5.35352753 114.77020691 4.44165039 114.78710938 C-3.11472062 114.71249327 -9.88184706 112.31296019 -15.30580139 106.9078064 C-15.73763733 106.18464233 -16.16947327 105.46147827 -16.61439514 104.71640015 C-17.0694342 103.99581421 -17.52447327 103.27522827 -17.99330139 102.5328064 C-20.21564422 97.53868543 -20.18080259 92.30540353 -20.19715881 86.91439819 C-20.20051743 86.21596802 -20.20387604 85.51753784 -20.20733643 84.79794312 C-20.21678473 82.50381662 -20.2187865 80.2097636 -20.21986389 77.9156189 C-20.22308094 76.30907665 -20.22644534 74.70253469 -20.22994995 73.09599304 C-20.23592608 69.73288291 -20.23779143 66.36979842 -20.23719788 63.00668335 C-20.23709639 58.71647509 -20.25074138 54.42643283 -20.26797009 50.13626385 C-20.27913886 46.81865192 -20.28111558 43.50107949 -20.28058815 40.1834507 C-20.2817612 38.60275514 -20.28614468 37.02205832 -20.29392052 35.44138145 C-20.39452154 12.87770114 -20.39452154 12.87770114 -13.05189514 5.15390015 C-8.76827133 1.89834605 -5.39063292 0.04205229 0 0 Z " fill="#000000" transform="translate(36.05189514160156,62.846099853515625)"/>
<path d="M0 0 C0.83535278 -0.00852997 1.67070557 -0.01705994 2.53137207 -0.02584839 C3.89355865 -0.02448883 3.89355865 -0.02448883 5.28326416 -0.02310181 C6.24635498 -0.02981903 7.2094458 -0.03653625 8.20172119 -0.04345703 C11.38813427 -0.0624664 14.57433696 -0.06636301 17.76080322 -0.06851196 C19.97794684 -0.07493884 22.19508961 -0.08166712 24.41223145 -0.08868408 C29.06262172 -0.10066492 33.71293767 -0.10436417 38.36334229 -0.10317993 C44.31291986 -0.10297693 50.26201876 -0.13025647 56.211483 -0.16472435 C60.79266534 -0.18700066 65.37373273 -0.19101721 69.95496368 -0.18996048 C72.14774471 -0.1923162 74.34052893 -0.20113804 76.53325653 -0.21662521 C79.60651274 -0.2362953 82.67874018 -0.23044221 85.75201416 -0.21841431 C86.65204163 -0.22965332 87.55206909 -0.24089233 88.47937012 -0.25247192 C95.31481315 -0.18474194 100.57741885 1.50689042 105.79986572 6.01351929 C106.46888916 6.85076538 106.46888916 6.85076538 107.15142822 7.70492554 C107.84365479 8.53830444 107.84365479 8.53830444 108.54986572 9.38851929 C111.65851087 14.15048845 112.07391991 18.55479329 112.06695557 24.1277771 C112.07367279 24.90408981 112.08039001 25.68040253 112.08731079 26.48023987 C112.10626404 29.03957575 112.11021394 31.59864889 112.11236572 34.15805054 C112.11879668 35.94538479 112.12552526 37.73271799 112.13253784 39.52005005 C112.14450476 43.26578205 112.14821939 47.01142187 112.14703369 50.75717163 C112.14683081 55.53970627 112.17410403 60.32164466 112.20857811 65.10403824 C112.23090003 68.79654616 112.23486958 72.48891195 112.23381424 76.18148041 C112.23616334 77.94361165 112.24494771 79.70574722 112.26047897 81.46781158 C112.41988234 101.42480356 112.41988234 101.42480356 105.99697876 108.12319946 C101.96894378 111.82622813 98.15944115 114.50887285 92.55285645 114.53485107 C91.29982727 114.54764603 91.29982727 114.54764603 90.02148438 114.56069946 C88.65929779 114.5593399 88.65929779 114.5593399 87.26959229 114.55795288 C86.30650146 114.5646701 85.34341064 114.57138733 84.35113525 114.57830811 C81.16472218 114.59731747 77.97851949 114.60121408 74.79205322 114.60336304 C72.5749096 114.60978992 70.35776683 114.6165182 68.140625 114.62353516 C63.49023473 114.63551599 58.83991878 114.63921525 54.18951416 114.63803101 C48.23993659 114.637828 42.29083769 114.66510754 36.34137344 114.69957542 C31.7601911 114.72185173 27.17912371 114.72586828 22.59789276 114.72481155 C20.40511173 114.72716727 18.21232752 114.73598911 16.01959991 114.75147629 C12.9463437 114.77114638 9.87411626 114.76529329 6.80084229 114.75326538 C5.45080109 114.7701239 5.45080109 114.7701239 4.07348633 114.787323 C-2.7619567 114.71959302 -8.0245624 113.02796066 -13.24700928 108.52133179 C-13.6930249 107.96316772 -14.13904053 107.40500366 -14.59857178 106.82992554 C-15.06005615 106.2743396 -15.52154053 105.71875366 -15.99700928 105.14633179 C-19.56996008 99.67311733 -19.47049316 94.79214019 -19.34857178 88.45492554 C-19.30732178 85.42305054 -19.26607178 82.39117554 -19.22357178 79.26742554 C-10.31357178 79.26742554 -1.40357178 79.26742554 7.77642822 79.26742554 C7.77642822 81.90742554 7.77642822 84.54742554 7.77642822 87.26742554 C33.18642822 87.26742554 58.59642822 87.26742554 84.77642822 87.26742554 C84.77642822 67.46742554 84.77642822 47.66742554 84.77642822 27.26742554 C59.36642822 27.26742554 33.95642822 27.26742554 7.77642822 27.26742554 C7.77642822 29.90742554 7.77642822 32.54742554 7.77642822 35.26742554 C-1.13357178 35.26742554 -10.04357178 35.26742554 -19.22357178 35.26742554 C-19.99239488 14.66296638 -19.99239488 14.66296638 -14.22357178 7.26742554 C-10.26393902 3.02423852 -5.89119379 0.02729697 0 0 Z " fill="#000000" transform="translate(178.22357177734375,62.732574462890625)"/>
<path d="M0 0 C0.87597839 -0.00571014 1.75195679 -0.01142029 2.65447998 -0.01730347 C3.60778702 -0.01842133 4.56109406 -0.01953918 5.54328918 -0.02069092 C6.55354156 -0.02565582 7.56379395 -0.03062073 8.60466003 -0.03573608 C11.94854921 -0.05034632 15.29239091 -0.05715849 18.63630676 -0.06268311 C20.96315512 -0.0684363 23.29000347 -0.07419401 25.61685181 -0.07995605 C30.49842042 -0.09046336 35.37997257 -0.09630754 40.2615509 -0.09979248 C46.50463112 -0.105271 52.74749256 -0.12928666 58.99050426 -0.15776443 C63.79903795 -0.17642673 68.60751936 -0.18159838 73.4160862 -0.18312836 C75.71688849 -0.18614822 78.01769001 -0.19415413 80.31845665 -0.20731354 C83.54460958 -0.22444581 86.77023371 -0.22247587 89.99641418 -0.21600342 C90.93960007 -0.2252182 91.88278595 -0.23443298 92.85455322 -0.243927 C99.85899349 -0.20010071 106.60702699 0.60207752 112.09333801 5.26544189 C114.15428871 9.21559739 114.92149008 12.68367889 114.59333801 17.14044189 C113.10922467 21.45183262 110.60042266 24.88645678 106.59333801 27.14044189 C103.70620357 28.01963351 101.10821993 28.26934601 98.09729004 28.28088379 C97.20159302 28.28659393 96.305896 28.29230408 95.38305664 28.29818726 C93.92033073 28.29986404 93.92033073 28.29986404 92.42805481 28.30157471 C91.3950827 28.30653961 90.3621106 28.31150452 89.2978363 28.31661987 C85.87940302 28.3312289 82.46101614 28.33804133 79.04255676 28.34356689 C76.66607665 28.34931925 74.28959654 28.35507697 71.91311646 28.36083984 C66.92899866 28.37134616 61.94489697 28.37719129 56.96076965 28.38067627 C50.57849031 28.38616107 44.19642429 28.41019059 37.81421185 28.43864822 C32.90453471 28.45728368 27.99490887 28.46248069 23.08519936 28.46401215 C20.73250474 28.46703699 18.37981099 28.4750598 16.02715111 28.48819733 C12.73353777 28.50527681 9.44044462 28.5033727 6.14680481 28.49688721 C4.69318794 28.51070938 4.69318794 28.51070938 3.21020508 28.52481079 C-3.99599236 28.48042421 -8.81531364 27.45611489 -14.34416199 22.51544189 C-16.98147444 18.1998397 -17.37082448 15.07624619 -16.40666199 10.14044189 C-14.37216533 6.21676977 -12.2231627 3.4064892 -8.40666199 1.14044189 C-5.55078167 0.26736312 -2.9788739 0.01167585 0 0 Z " fill="#000000" transform="translate(104.40666198730469,105.85955810546875)"/>
</svg>
