<?xml version="1.0" encoding="UTF-8"?>
<svg version="1.1" xmlns="http://www.w3.org/2000/svg" width="1299" height="281">
<path d="M0 0 C1.34159628 -0.00435699 2.68319008 -0.00954339 4.02478027 -0.01548767 C7.64060947 -0.028783 11.25633353 -0.02946699 14.87218237 -0.02692437 C17.9036619 -0.02584818 20.93512072 -0.0307545 23.96659577 -0.03552979 C31.12520748 -0.04659228 38.28376671 -0.04708083 45.44238281 -0.04101562 C52.79850953 -0.0349784 60.15444485 -0.04728791 67.51053894 -0.06858569 C73.85313846 -0.08626595 80.19567741 -0.09219297 86.53830063 -0.08894795 C90.31460734 -0.08714513 94.09077749 -0.08967017 97.86706161 -0.10366249 C101.42129086 -0.11634144 104.97522417 -0.11420302 108.52944946 -0.1012516 C110.43550405 -0.09780128 112.34156811 -0.10898916 114.24758911 -0.12081909 C129.77428907 -0.02719001 142.70800509 4.04087928 154.06298828 14.82543945 C164.71033738 26.04541909 168.54050647 38.37743327 168.5324707 53.57788086 C168.53582932 54.49582428 168.53918793 55.4137677 168.54264832 56.35952759 C168.5521248 59.38593918 168.55410004 62.41229521 168.55517578 65.4387207 C168.5583916 67.55374168 168.56175592 69.66876244 168.56526184 71.78378296 C168.57124554 76.21710729 168.57310261 80.65041215 168.57250977 85.08374023 C168.57240841 90.73901803 168.58603701 96.39416955 168.60328197 102.0494175 C168.61445398 106.41971397 168.61642735 110.78998047 168.61590004 115.16028976 C168.61707323 117.24369109 168.62145753 119.32709336 168.62923241 121.4104805 C168.69796655 141.73810596 167.59025691 158.72057347 152.80517578 174.1418457 C143.58500923 182.2746582 143.58500923 182.2746582 139.38720703 182.2746582 C139.37912018 181.25782959 139.37103333 180.24100098 139.36270142 179.19335938 C139.2847409 169.54444839 139.19688234 159.89566983 139.09967995 150.24693298 C139.05003291 145.28810342 139.00370397 140.32929197 138.96533203 135.37036133 C138.92807526 130.57213256 138.88161438 125.7740683 138.82914352 120.97598267 C138.81081149 119.15828376 138.79562819 117.3405499 138.78386307 115.52279663 C138.61771084 90.70679222 135.98707621 68.49262668 118.32470703 49.5871582 C102.22932921 34.1320629 81.97586197 29.99745759 60.23144531 29.95581055 C59.00045105 29.94576492 57.76945679 29.9357193 56.50115967 29.92536926 C53.17561229 29.90005442 49.85022989 29.8830329 46.52462626 29.86994123 C43.0306014 29.85414451 39.53665919 29.82740858 36.04269409 29.8019104 C29.44873873 29.75541176 22.85476731 29.71852927 16.26073349 29.68523753 C8.74417624 29.64680977 1.2277026 29.59745489 -6.28878379 29.54725337 C-21.73005946 29.44436445 -37.17138233 29.35496634 -52.61279297 29.2746582 C-47.96313543 17.34706303 -38.26653767 8.37813094 -26.64404297 3.24731445 C-17.78834796 0.4057319 -9.25445236 -0.01855552 0 0 Z " fill="#000000" transform="translate(115.61279296875,27.725341796875)"/>
<path d="M0 0 C11.22 0 22.44 0 34 0 C34 50.82 34 101.64 34 154 C22.78 154 11.56 154 0 154 C0 103.18 0 52.36 0 0 Z " fill="#000000" transform="translate(466,49)"/>
<path d="M0 0 C11.22 0 22.44 0 34 0 C34 9.57 34 19.14 34 29 C22.78 29 11.56 29 0 29 C0 19.43 0 9.86 0 0 Z " fill="#000000" transform="translate(523,49)"/>
<path d="M0 0 C11.22 0 22.44 0 34 0 C34 19.47 34 38.94 34 59 C34.66 59 35.32 59 36 59 C36.2784375 57.9790625 36.2784375 57.9790625 36.5625 56.9375 C40.25015753 49.40185201 47.56572575 44.48864744 55 41 C67.0193338 37.0932492 79.40576499 38.48611493 90.625 44.125 C101.37175528 50.57690505 107.56059377 59.73155614 110.61450195 71.72338867 C112.4672956 80.05572578 112.37820372 88.18939433 112.29296875 96.67578125 C112.28735872 98.33871575 112.28309529 100.00165528 112.28010559 101.66459656 C112.26876737 105.99647222 112.23939818 110.32803586 112.20599365 114.65979004 C112.16959162 119.8812592 112.156079 125.10283393 112.13863373 130.32439423 C112.10975175 138.21647841 112.05218888 146.10788086 112 154 C100.78 154 89.56 154 78 154 C77.96261719 149.13507813 77.92523437 144.27015625 77.88671875 139.2578125 C77.85640982 136.15882009 77.82524299 133.05988308 77.79101562 129.9609375 C77.73687921 125.05211324 77.68576283 120.14339858 77.65356445 115.234375 C77.62737839 111.27249213 77.5868706 107.31098151 77.53681374 103.3493309 C77.52024769 101.84487445 77.50866998 100.34035377 77.50238609 98.83581924 C77.65816716 84.83944162 77.65816716 84.83944162 72 72.4375 C67.24919309 69.02285753 61.59780085 69.46045293 56 70 C46.97466814 72.58267661 40.95909541 77.96240943 36.29022217 85.93548584 C33.81980816 91.80317196 34.15087181 97.92630591 34.1953125 104.1953125 C34.18404013 105.63835857 34.17014985 107.08138632 34.15377808 108.52438354 C34.11798645 112.28920957 34.1173347 116.05321953 34.12445068 119.81817627 C34.12553057 124.35311829 34.08217165 128.88783495 34.04641724 133.42260742 C33.99723054 140.28215789 34.00386501 147.13960131 34 154 C22.78 154 11.56 154 0 154 C0 103.18 0 52.36 0 0 Z " fill="#000000" transform="translate(841,49)"/>
<path d="M0 0 C11.22 0 22.44 0 34 0 C34 9.57 34 19.14 34 29 C22.78 29 11.56 29 0 29 C0 19.43 0 9.86 0 0 Z " fill="#000000" transform="translate(1113,49)"/>
<path d="M0 0 C1.35130086 -0.0043555 2.70259925 -0.00954142 4.05389404 -0.01548767 C7.70077291 -0.02880047 11.34754764 -0.0294649 14.99444604 -0.02692437 C18.05072862 -0.02584916 21.10699061 -0.03075213 24.16326874 -0.03552979 C31.38083438 -0.04659879 38.59834797 -0.04707744 45.81591797 -0.04101562 C53.2339393 -0.03498072 60.65177072 -0.04728051 68.06975967 -0.06858569 C74.46329392 -0.08626575 80.85676809 -0.09219291 87.25032586 -0.08894795 C91.05794616 -0.08714476 94.86543103 -0.08967377 98.67302895 -0.10366249 C102.25761281 -0.1163407 105.84190322 -0.11420368 109.42648315 -0.1012516 C111.34924604 -0.09780063 113.27201832 -0.10899036 115.19474792 -0.12081909 C131.3375708 -0.02429282 144.31826214 4.62638607 156.1159668 15.78637695 C166.9058144 27.49529165 169.56260081 40.20889635 169.55419922 55.62133789 C169.55755783 56.52006622 169.56091644 57.41879456 169.56437683 58.34475708 C169.57382129 61.29536346 169.57582672 64.24591268 169.5769043 67.1965332 C169.58012162 69.26385521 169.58348605 71.33117699 169.58699036 73.39849854 C169.59296554 77.72571337 169.59483194 82.05290828 169.59423828 86.38012695 C169.59413681 91.89858607 169.60778131 97.41691611 169.62501049 102.9353447 C169.63618251 107.20441259 169.63815589 111.47344981 169.63762856 115.74253082 C169.63880113 117.77569269 169.64318189 119.80885554 169.65096092 121.84200287 C169.72086123 141.99943977 168.50643343 158.89954967 153.8034668 174.15356445 C150.00929025 177.51447451 145.94964613 180.04596081 141.40893555 182.2746582 C140.50717087 182.78685913 139.60540619 183.29906006 138.67631531 183.82678223 C132.664273 186.36093127 125.98247302 185.7093221 119.57617188 185.69458008 C118.06752903 185.70192698 116.5588918 185.71051502 115.05026245 185.72024536 C110.96524073 185.74241071 106.88042105 185.74539436 102.79534745 185.74349785 C99.37629759 185.74337786 95.95729008 185.75195411 92.53825206 185.76027536 C84.46443729 185.7794935 76.3907259 185.7823999 68.31689453 185.77563477 C60.01153642 185.769003 51.70662344 185.79182695 43.40135556 185.8289485 C36.25201557 185.85973397 29.10281807 185.87099574 21.95341319 185.86711168 C17.69184149 185.86505239 13.43061588 185.87039482 9.16910744 185.89500427 C5.15596637 185.91741431 1.14354337 185.9152768 -2.8696022 185.89507675 C-4.33361314 185.89169111 -5.79767375 185.89664906 -7.26161766 185.91106033 C-22.19748351 186.04781906 -32.72550505 181.7024122 -43.48950195 171.4699707 C-53.50477798 160.92987671 -56.9048934 148.30356911 -56.86572266 134.15600586 C-56.87083359 133.18725021 -56.87594452 132.21849457 -56.88121033 131.22038269 C-56.89502044 128.04309779 -56.89415601 124.86603191 -56.8918457 121.6887207 C-56.89573735 119.46349 -56.90007298 117.23826003 -56.90483093 115.01303101 C-56.91227472 110.35802803 -56.91201523 105.70310093 -56.90673828 101.0480957 C-56.90094633 95.10463871 -56.91787726 89.16149362 -56.94108295 83.21808815 C-56.95586733 78.62478848 -56.95668559 74.03156312 -56.95357323 69.43824387 C-56.95408408 67.24795285 -56.9592771 65.05765743 -56.96938515 62.86738968 C-56.98182359 59.79542444 -56.97491356 56.72405643 -56.96337891 53.65209961 C-56.97102264 52.76136246 -56.97866638 51.87062531 -56.98654175 50.95289612 C-56.86998794 36.79650374 -51.59046982 24.73539477 -41.9152832 14.5324707 C-29.7552539 2.71987081 -16.57137024 -0.03288169 0 0 Z M33.40893555 63.2746582 C31.70594579 66.70971287 31.15479533 69.50891497 31.13427734 73.32104492 C31.12474533 74.29911102 31.11521332 75.27717712 31.10539246 76.28488159 C31.10630386 77.33080475 31.10721527 78.37672791 31.1081543 79.4543457 C31.10386917 80.5404715 31.09958405 81.62659729 31.09516907 82.74563599 C31.08943319 85.04029647 31.08892003 87.33497513 31.09326172 89.62963867 C31.09641793 93.13011912 31.07296533 96.62975115 31.04760742 100.13012695 C31.04533391 102.36319881 31.04463117 104.59627293 31.0456543 106.8293457 C31.03644455 107.8712204 31.0272348 108.91309509 31.01774597 109.98654175 C31.05483574 115.84804376 31.49586242 120.13505709 34.40893555 125.2746582 C37.76386111 127.71460407 39.56627445 128.32936513 43.71069336 128.06030273 C47.73874367 127.20459466 50.34226067 125.87137933 53.83081055 123.7043457 C54.41630676 123.3450296 55.00180298 122.9857135 55.6050415 122.61550903 C57.46344691 121.47127349 59.31109243 120.31085521 61.15893555 119.1496582 C62.38222735 118.39337069 63.60618164 117.63815367 64.83081055 116.8840332 C67.80724418 115.0472916 70.76930969 113.18866989 73.72851562 111.32434082 C75.34690865 110.31340361 76.97830082 109.32336815 78.61010742 108.33422852 C79.58012695 107.73964844 80.55014648 107.14506836 81.54956055 106.5324707 C82.81848145 105.76507568 82.81848145 105.76507568 84.11303711 104.98217773 C87.33700121 102.58443157 90.0338446 99.99948588 90.9050293 95.9934082 C90.88569336 95.2612207 90.86635742 94.5290332 90.84643555 93.7746582 C90.84450195 92.67637695 90.84450195 92.67637695 90.8425293 91.5559082 C90.03928864 87.32984924 88.14983144 84.82610864 84.72021484 82.2734375 C83.65198486 81.63833252 82.58375488 81.00322754 81.4831543 80.34887695 C80.60709282 79.82195 80.60709282 79.82195 79.71333313 79.28437805 C77.84739954 78.16587769 75.97223345 77.06401704 74.09643555 75.9621582 C72.87901334 75.23468804 71.66221067 74.50618006 70.44604492 73.77661133 C67.40026471 71.95422027 64.33874813 70.16018012 61.27264404 68.37225342 C59.36410175 67.2482542 57.47137327 66.10052034 55.5793457 64.94897461 C54.34176752 64.20951997 53.10398194 63.47041229 51.8659668 62.73168945 C50.76873291 62.06758057 49.67149902 61.40347168 48.54101562 60.71923828 C42.3855232 57.88019793 38.5029143 58.99108516 33.40893555 63.2746582 Z " fill="#000000" transform="translate(65.591064453125,76.725341796875)"/>
<path d="M0 0 C5.57105646 4.22024307 11.01362405 9.00523596 14.40625 15.21484375 C13.40625 18.21484375 13.40625 18.21484375 11.24487305 19.59692383 C8.20192684 21.09040887 5.15560078 22.57291854 2.09375 24.02734375 C1.03478516 24.55521484 -0.02417969 25.08308594 -1.11523438 25.62695312 C-2.13552734 26.11615234 -3.15582031 26.60535156 -4.20703125 27.109375 C-5.14329346 27.56159424 -6.07955566 28.01381348 -7.04418945 28.47973633 C-9.59375 29.21484375 -9.59375 29.21484375 -11.79174805 28.42480469 C-12.38640869 28.02551758 -12.98106934 27.62623047 -13.59375 27.21484375 C-14.3259375 26.80105469 -15.058125 26.38726562 -15.8125 25.9609375 C-17.33445858 25.08789619 -18.85529276 24.21289185 -20.375 23.3359375 C-26.98889784 19.99405602 -35.26660188 20.29229576 -42.28125 22.27734375 C-49.00183819 24.87886176 -54.0219221 29.22411089 -57.09375 35.77734375 C-59.95517021 44.11997334 -59.91627237 54.02784592 -56.62890625 62.25390625 C-53.1522666 68.83984249 -48.50831519 72.58759769 -41.59375 75.21484375 C-33.81386566 77.54880905 -25.94953345 76.34746664 -18.59375 73.21484375 C-17.79227539 72.50751099 -17.79227539 72.50751099 -16.97460938 71.78588867 C-14.82609726 69.99725801 -13.29741653 68.98251499 -10.59375 68.21484375 C-5.73849818 69.34971265 -1.48341897 71.60022489 2.90625 73.90234375 C4.120773 74.50652846 5.3369112 75.1074778 6.5546875 75.70507812 C9.52264438 77.17727896 12.4700905 78.68046567 15.40625 80.21484375 C14.47451191 81.64139037 13.53883986 83.06536795 12.6015625 84.48828125 C12.08094238 85.28153809 11.56032227 86.07479492 11.02392578 86.89208984 C3.24913903 98.05558534 -8.5323001 103.86958915 -21.5859375 106.5546875 C-38.39189016 109.54625981 -55.27213409 105.24588625 -69.59375 96.21484375 C-80.57231797 88.40379837 -89.17059363 76.88940188 -92.19140625 63.58203125 C-94.2244863 46.56732246 -93.23160015 30.83405465 -83.59375 16.21484375 C-82.87445313 15.10882813 -82.87445313 15.10882813 -82.140625 13.98046875 C-73.31898934 1.56166127 -59.54013768 -5.96044078 -44.890625 -9.28125 C-29.01532344 -11.70768827 -13.34029267 -9.18149661 0 0 Z " fill="#000000" transform="translate(432.59375,97.78515625)"/>
<path d="M0 0 C12.16097638 9.15649987 20.06847411 22.08613945 22.68359375 37.1171875 C24.64096561 54.95101996 21.85289767 72.23852014 10.82421875 86.890625 C1.45487845 97.7001575 -10.59489889 105.72594735 -25.14892578 107.22070312 C-38.76703492 107.93952973 -49.41762671 106.19591262 -60 97 C-60.33 96.67 -60.66 96.34 -61 96 C-61.33 112.83 -61.66 129.66 -62 147 C-73.22 147 -84.44 147 -96 147 C-96 95.85 -96 44.7 -96 -8 C-84.78 -8 -73.56 -8 -62 -8 C-61.505 -3.545 -61.505 -3.545 -61 1 C-60.030625 0.0925 -59.06125 -0.815 -58.0625 -1.75 C-41.637292 -15.84302836 -16.65577224 -11.23762946 0 0 Z M-58.59765625 29.09765625 C-63.83788756 36.20627087 -64.75010999 45.5884922 -63.5625 54.15625 C-61.735439 62.37802452 -59.17039278 69.2051984 -51.9375 73.9375 C-45.09404195 77.93516361 -36.80605321 78.23507513 -29.203125 76.28125 C-20.98726253 73.19407744 -15.67300065 68.91340433 -11.98046875 60.87109375 C-8.92405927 51.92105006 -9.2847126 42.67350731 -13 34 C-16.92516388 26.95605032 -21.53381586 24.0300837 -28.75 20.75 C-39.98783427 18.15665363 -50.72832925 20.3395582 -58.59765625 29.09765625 Z " fill="#000000" transform="translate(676,98)"/>
<path d="M0 0 C5.57105646 4.22024307 11.01362405 9.00523596 14.40625 15.21484375 C13.40625 18.21484375 13.40625 18.21484375 11.26074219 19.59692383 C8.23431767 21.09250388 5.20317106 22.57388503 2.15625 24.02734375 C0.58037109 24.81915039 0.58037109 24.81915039 -1.02734375 25.62695312 C-2.04441406 26.11615234 -3.06148437 26.60535156 -4.109375 27.109375 C-5.04040039 27.56159424 -5.97142578 28.01381348 -6.93066406 28.47973633 C-10.25569291 29.39756378 -11.5939846 28.80097811 -14.59375 27.21484375 C-16.65309602 25.98383803 -18.63359157 24.66746432 -20.62890625 23.3359375 C-26.52335622 19.97270262 -34.73793098 20.17673863 -41.1328125 21.8984375 C-48.09152566 24.77996649 -53.75019084 28.73458616 -57.03125 35.65234375 C-59.83735742 43.69408881 -60.19243344 53.33685152 -56.90625 61.27734375 C-55.82272423 63.34804001 -55.82272423 63.34804001 -54.59375 65.21484375 C-54.05041016 66.07335937 -54.05041016 66.07335937 -53.49609375 66.94921875 C-49.86293762 71.92479527 -44.83967696 74.24106566 -39.09375 75.96484375 C-31.69376722 76.70484203 -25.48375067 76.14910275 -18.59375 73.21484375 C-17.79227539 72.50751099 -17.79227539 72.50751099 -16.97460938 71.78588867 C-14.82609726 69.99725801 -13.29741653 68.98251499 -10.59375 68.21484375 C-5.73849818 69.34971265 -1.48341897 71.60022489 2.90625 73.90234375 C4.120773 74.50652846 5.3369112 75.1074778 6.5546875 75.70507812 C9.52264438 77.17727896 12.4700905 78.68046567 15.40625 80.21484375 C14.47451191 81.64139037 13.53883986 83.06536795 12.6015625 84.48828125 C12.08094238 85.28153809 11.56032227 86.07479492 11.02392578 86.89208984 C3.24913903 98.05558534 -8.5323001 103.86958915 -21.5859375 106.5546875 C-38.39189016 109.54625981 -55.27213409 105.24588625 -69.59375 96.21484375 C-80.57231797 88.40379837 -89.17059363 76.88940188 -92.19140625 63.58203125 C-94.50323277 44.2345122 -92.27055211 26.36509587 -79.96875 10.58984375 C-59.58309843 -11.55227389 -25.15888928 -17.31568133 0 0 Z " fill="#000000" transform="translate(807.59375,97.78515625)"/>
<path d="M0 0 C2.28798916 1.68652842 4.43921149 3.42358649 6.44921875 5.43359375 C6.77921875 2.46359375 7.10921875 -0.50640625 7.44921875 -3.56640625 C18.66921875 -3.56640625 29.88921875 -3.56640625 41.44921875 -3.56640625 C41.44921875 33.72359375 41.44921875 71.01359375 41.44921875 109.43359375 C30.22921875 109.43359375 19.00921875 109.43359375 7.44921875 109.43359375 C6.95421875 104.97859375 6.95421875 104.97859375 6.44921875 100.43359375 C4.99515625 101.79484375 4.99515625 101.79484375 3.51171875 103.18359375 C-5.86395109 111.24438306 -16.46187974 112.11476498 -28.33642578 111.60839844 C-42.81621319 110.46534135 -55.2671757 102.85630754 -65.0703125 92.515625 C-76.17489077 78.71796791 -79.15811249 61.66507554 -77.55078125 44.43359375 C-75.23536285 28.03911463 -67.78572341 14.26417851 -54.5078125 4.10546875 C-38.54515244 -6.39372301 -17.11950787 -10.5128984 0 0 Z M-39.55078125 34.43359375 C-44.61217933 42.28801943 -45.84606721 50.94763978 -44.01953125 60.09375 C-41.53508604 69.04585421 -37.37713233 74.49225052 -29.55078125 79.43359375 C-23.26350663 82.57723106 -15.54734185 82.32927684 -8.796875 80.81640625 C-0.95483546 78.11060329 3.36664716 73.18222261 7.32421875 66.05859375 C10.17133719 56.88454545 10.33706095 47.00180627 6.41015625 38.0703125 C2.73191703 31.76984467 -2.32059368 27.25095592 -9.2890625 24.94140625 C-20.51200108 22.42157548 -31.95765041 25.6085986 -39.55078125 34.43359375 Z " fill="#000000" transform="translate(1048.55078125,93.56640625)"/>
<path d="M0 0 C11.42944762 8.40955688 16.52909947 18.93222644 18.76437378 32.71672058 C19.56727975 39.53991568 19.43057147 46.3755646 19.3828125 53.234375 C19.37907297 54.83148011 19.37623045 56.42858755 19.37423706 58.0256958 C19.36667449 62.18817709 19.34709128 66.3505143 19.3248291 70.51293945 C19.30057171 75.52917504 19.29155449 80.54545936 19.27992249 85.56173706 C19.26066106 93.14542429 19.22228763 100.72879665 19.1875 108.3125 C7.9675 108.3125 -3.2525 108.3125 -14.8125 108.3125 C-14.86148437 103.83171875 -14.91046875 99.3509375 -14.9609375 94.734375 C-14.99638022 91.87237512 -15.03237217 89.01040271 -15.0703125 86.1484375 C-15.13029995 81.61950913 -15.18840372 77.0906186 -15.234375 72.56152344 C-15.27162362 68.90443934 -15.31808228 65.24757142 -15.37056351 61.59067535 C-15.38889984 60.20508927 -15.4040817 58.81945723 -15.41584396 57.43379974 C-15.02012977 40.79752385 -15.02012977 40.79752385 -21.8125 26.3125 C-26.73806416 23.21241905 -32.20905416 23.65611609 -37.8125 24.3125 C-46.35040589 26.90889288 -51.9951112 32.41675647 -56.3775177 40.03201294 C-57.94726118 43.6205751 -58.20695482 46.06245504 -58.24487305 49.96044922 C-58.26466721 51.26134491 -58.28446136 52.5622406 -58.30485535 53.90255737 C-58.31162362 55.30743261 -58.31807066 56.71230942 -58.32421875 58.1171875 C-58.34107852 59.56594351 -58.3592305 61.01468501 -58.37861633 62.46340942 C-58.42598208 66.2608995 -58.45587781 70.05833071 -58.48205566 73.85601807 C-58.51718946 78.42090242 -58.57416372 82.98556083 -58.62744904 87.55026245 C-58.70580558 94.47097907 -58.75652905 101.39140313 -58.8125 108.3125 C-70.0325 108.3125 -81.2525 108.3125 -92.8125 108.3125 C-92.8125 71.0225 -92.8125 33.7325 -92.8125 -4.6875 C-81.5925 -4.6875 -70.3725 -4.6875 -58.8125 -4.6875 C-58.3175 3.7275 -58.3175 3.7275 -57.8125 12.3125 C-57.02875 11.136875 -56.245 9.96125 -55.4375 8.75 C-42.27880526 -8.75354677 -18.0701881 -11.16557234 0 0 Z " fill="#000000" transform="translate(1262.8125,94.6875)"/>
<path d="M0 0 C11.22 0 22.44 0 34 0 C34 37.29 34 74.58 34 113 C22.78 113 11.56 113 0 113 C0 75.71 0 38.42 0 0 Z " fill="#000000" transform="translate(523,90)"/>
<path d="M0 0 C11.22 0 22.44 0 34 0 C34 37.29 34 74.58 34 113 C22.78 113 11.56 113 0 113 C0 75.71 0 38.42 0 0 Z " fill="#000000" transform="translate(1113,90)"/>
</svg>
