<?xml version="1.0" encoding="UTF-8"?>
<svg version="1.1" xmlns="http://www.w3.org/2000/svg" width="1283" height="261">
<path d="M0 0 C423.39 0 846.78 0 1283 0 C1283 86.13 1283 172.26 1283 261 C859.61 261 436.22 261 0 261 C0 174.87 0 88.74 0 0 Z " fill="#FBFBFB" transform="translate(0,0)"/>
<path d="M0 0 C1.3841021 -0.00435511 2.7682018 -0.0095409 4.15229797 -0.01548767 C7.88788202 -0.02880209 11.62336442 -0.0294649 15.35896754 -0.02692437 C18.48751298 -0.02584965 21.61603828 -0.0307507 24.74457937 -0.03552979 C32.12986533 -0.04659853 39.5151004 -0.04707705 46.90039062 -0.04101562 C54.49794967 -0.03497553 62.09532354 -0.04729375 69.69285101 -0.06858569 C76.23667096 -0.08624461 82.78043219 -0.09219637 89.32427508 -0.08894795 C93.22349216 -0.08714201 97.12257707 -0.08970211 101.02177238 -0.10366249 C104.69006711 -0.11630663 108.35807458 -0.11423516 112.02636528 -0.1012516 C113.99960974 -0.09778724 115.97286325 -0.10901463 117.94607544 -0.12081909 C132.75569493 -0.0339308 144.64554883 4.88078134 155.53930664 15.1496582 C166.55620909 27.02652983 169.25520592 40.35556288 169.24707031 56.03613281 C169.25042892 56.97869431 169.25378754 57.9212558 169.25724792 58.89237976 C169.2666945 61.98726747 169.26869769 65.08210075 169.26977539 68.17700195 C169.27299173 70.34119183 169.27635608 72.50538149 169.27986145 74.66957092 C169.28583653 79.19768783 169.28770296 83.72578568 169.28710938 88.25390625 C169.2870077 94.04169907 169.30067235 99.82936936 169.31788158 105.61713314 C169.32902511 110.08423926 169.33102788 114.55131593 169.33049965 119.01843452 C169.33167573 121.15176377 169.33607654 123.28509387 169.34383202 125.41840935 C169.35368192 128.40695562 169.35073442 131.39523811 169.34472656 134.38378906 C169.35034607 135.2552356 169.35596558 136.12668213 169.36175537 137.02453613 C169.31817088 145.60115883 167.65415611 152.88065438 163.78930664 160.5246582 C163.21567383 161.68481445 162.64204102 162.8449707 162.05102539 164.0402832 C160.04971355 167.36109723 157.94737032 169.66029657 155.10180664 172.2746582 C154.47918945 172.8830957 153.85657227 173.4915332 153.21508789 174.1184082 C145.97305236 180.77919577 137.90283791 185.37918356 127.93739319 185.42855835 C126.00092926 185.44145905 126.00092926 185.44145905 124.02534485 185.45462036 C122.59127848 185.45905562 121.15721168 185.46335398 119.72314453 185.4675293 C118.21509615 185.47543192 116.70704965 185.48370097 115.19900513 185.49230957 C110.24084273 185.51852489 105.28267195 185.53384297 100.32446289 185.5480957 C98.61505058 185.55345677 96.90563833 185.55883428 95.19622612 185.56422806 C88.08038724 185.58586164 80.96455062 185.60459443 73.84868717 185.61585045 C63.66815585 185.63206188 53.48800789 185.66516561 43.30762106 185.7222513 C36.14140265 185.76105612 28.97528629 185.78049593 21.80896562 185.78577101 C17.53388253 185.78941187 13.25920835 185.80129624 8.98423958 185.83387375 C4.95478631 185.86413834 0.92598536 185.87020156 -3.10355759 185.85848999 C-4.57403443 185.85827074 -6.04454314 185.8664515 -7.51491356 185.88414383 C-20.96723325 186.03705622 -32.8328591 182.56573598 -42.89819336 173.2746582 C-48.97619825 166.0384823 -53.32940694 158.43360502 -55.89819336 149.2746582 C-56.07355433 148.65659239 -56.24891529 148.03852657 -56.42959023 147.40173149 C-56.9208328 145.17189372 -57.03519606 143.18332724 -57.05209351 140.90164185 C-57.06069397 140.03288925 -57.06929443 139.16413666 -57.07815552 138.26905823 C-57.08241547 137.32360641 -57.08667542 136.3781546 -57.09106445 135.40405273 C-57.09924194 134.40183182 -57.10741943 133.3996109 -57.11584473 132.36701965 C-57.14067091 129.047176 -57.15721312 125.72737522 -57.17163086 122.4074707 C-57.17695454 121.27019405 -57.18227821 120.1329174 -57.18776321 118.96117783 C-57.21449041 112.93449325 -57.23386153 106.9078293 -57.24829102 100.88110352 C-57.26159583 95.9111883 -57.28938585 90.94168701 -57.33032227 85.97192383 C-57.37986504 79.95665518 -57.40443941 73.94176017 -57.4115181 67.92629623 C-57.41819711 65.64355262 -57.43333072 63.36081624 -57.45740891 61.07818985 C-57.6410785 42.60316603 -56.02211271 28.2924668 -42.89819336 14.2746582 C-29.93900469 2.88401686 -16.87872294 -0.03267518 0 0 Z " fill="#111111" transform="translate(60.898193359375,69.725341796875)"/>
<path d="M0 0 C1.10821849 -0.00199105 2.21643699 -0.0039821 3.35823786 -0.00603348 C5.19964525 -0.00166422 5.19964525 -0.00166422 7.07825279 0.00279331 C8.37444774 0.00193889 9.67064269 0.00108446 11.00611627 0.00020415 C14.61590754 -0.00204046 18.22566934 0.00198 21.83545685 0.00698221 C25.72366525 0.01128701 29.6118719 0.00984026 33.50008202 0.00907993 C40.24064721 0.00855472 46.98120275 0.01170127 53.72176552 0.01731777 C63.46757557 0.02543309 73.21338093 0.02804802 82.95919399 0.02930576 C98.76982814 0.03149623 114.58045714 0.03815618 130.39108849 0.04760838 C145.75274187 0.05678262 161.11439385 0.0638634 176.47604942 0.06811619 C177.89557765 0.06851027 177.89557765 0.06851027 179.34378321 0.06891232 C184.09119252 0.07021733 188.83860184 0.07148104 193.58601117 0.07272422 C232.99174385 0.08309668 272.39747012 0.10098942 311.80319786 0.12304783 C311.80319786 12.66304783 311.80319786 25.20304783 311.80319786 38.12304783 C310.15319786 38.78304783 308.50319786 39.44304783 306.80319786 40.12304783 C303.69939496 41.75254435 301.61363386 43.31261183 299.11569786 45.81054783 C298.35257286 46.57367283 297.58944786 47.33679783 296.80319786 48.12304783 C296.14319786 48.12304783 295.48319786 48.12304783 294.80319786 48.12304783 C294.47319786 48.78304783 294.14319786 49.44304783 293.80319786 50.12304783 C292.49069786 52.24804783 292.49069786 52.24804783 290.80319786 54.12304783 C289.48319786 54.12304783 288.16319786 54.12304783 286.80319786 54.12304783 C286.47319786 52.14304783 286.14319786 50.16304783 285.80319786 48.12304783 C284.81319786 48.12304783 283.82319786 48.12304783 282.80319786 48.12304783 C283.46319786 46.47304783 284.12319786 44.82304783 284.80319786 43.12304783 C285.46319786 43.12304783 286.12319786 43.12304783 286.80319786 43.12304783 C287.13319786 41.80304783 287.46319786 40.48304783 287.80319786 39.12304783 C286.15319786 39.12304783 284.50319786 39.12304783 282.80319786 39.12304783 C282.33913536 37.69992283 282.33913536 37.69992283 281.86569786 36.24804783 C280.92925044 33.26224375 280.92925044 33.26224375 279.80319786 31.12304783 C278.81319786 31.45304783 277.82319786 31.78304783 276.80319786 32.12304783 C278.28819786 33.60804783 278.28819786 33.60804783 279.80319786 35.12304783 C278.50645127 37.71654101 277.00088934 38.39966195 274.55319786 39.93554783 C271.71268091 41.77352939 269.19595364 43.54183228 266.86569786 45.99804783 C266.18507286 46.69929783 265.50444786 47.40054783 264.80319786 48.12304783 C264.14319786 48.12304783 263.48319786 48.12304783 262.80319786 48.12304783 C262.14319786 49.77304783 261.48319786 51.42304783 260.80319786 53.12304783 C260.14319786 53.12304783 259.48319786 53.12304783 258.80319786 53.12304783 C258.47319786 54.44304783 258.14319786 55.76304783 257.80319786 57.12304783 C256.93694786 56.81367283 256.93694786 56.81367283 256.05319786 56.49804783 C253.25949317 56.03243038 252.21661948 56.75544225 249.80319786 58.12304783 C249.14319786 58.12304783 248.48319786 58.12304783 247.80319786 58.12304783 C247.80319786 59.77304783 247.80319786 61.42304783 247.80319786 63.12304783 C246.81319786 62.79304783 245.82319786 62.46304783 244.80319786 62.12304783 C244.80319786 63.77304783 244.80319786 65.42304783 244.80319786 67.12304783 C245.79319786 67.12304783 246.78319786 67.12304783 247.80319786 67.12304783 C246.80319786 69.12304783 246.80319786 69.12304783 243.80319786 71.12304783 C242.48319786 71.12304783 241.16319786 71.12304783 239.80319786 71.12304783 C239.80319786 71.78304783 239.80319786 72.44304783 239.80319786 73.12304783 C238.81319786 73.12304783 237.82319786 73.12304783 236.80319786 73.12304783 C236.76194786 73.88617283 236.72069786 74.64929783 236.67819786 75.43554783 C235.80319786 78.12304783 235.80319786 78.12304783 232.80319786 79.87304783 C231.81319786 80.28554783 230.82319786 80.69804783 229.80319786 81.12304783 C229.47319786 81.45304783 229.14319786 81.78304783 228.80319786 82.12304783 C225.91885966 82.21169991 223.05857628 82.23826079 220.17429161 82.22070408 C218.8779454 82.21858166 218.8779454 82.21858166 217.55541039 82.21641636 C214.78380494 82.21080022 212.01227906 82.19824502 209.24069786 82.18554783 C207.36635007 82.18053491 205.49200101 82.17597164 203.61765099 82.17187595 C199.01280242 82.16082554 194.40801365 82.14355013 189.80319786 82.12304783 C189.80319786 81.46304783 189.80319786 80.80304783 189.80319786 80.12304783 C188.81319786 79.79304783 187.82319786 79.46304783 186.80319786 79.12304783 C187.91694786 79.14367283 189.03069786 79.16429783 190.17819786 79.18554783 C193.63535707 79.386855 193.63535707 79.386855 195.80319786 78.12304783 C194.92104899 75.24089896 194.92104899 75.24089896 193.80319786 73.12304783 C193.14319786 73.12304783 192.48319786 73.12304783 191.80319786 73.12304783 C191.47319786 72.46304783 191.14319786 71.80304783 190.80319786 71.12304783 C190.01944786 71.16429783 189.23569786 71.20554783 188.42819786 71.24804783 C185.80319786 71.12304783 185.80319786 71.12304783 183.80319786 69.12304783 C182.87507286 69.78304783 181.94694786 70.44304783 180.99069786 71.12304783 C177.80319786 73.12304783 177.80319786 73.12304783 174.80319786 73.12304783 C174.47319786 73.78304783 174.14319786 74.44304783 173.80319786 75.12304783 C174.13319786 73.14304783 174.46319786 71.16304783 174.80319786 69.12304783 C174.14319786 69.12304783 173.48319786 69.12304783 172.80319786 69.12304783 C172.14319786 69.78304783 171.48319786 70.44304783 170.80319786 71.12304783 C170.80319786 61.55304783 170.80319786 51.98304783 170.80319786 42.12304783 C159.58319786 42.12304783 148.36319786 42.12304783 136.80319786 42.12304783 C136.80319786 51.69304783 136.80319786 61.26304783 136.80319786 71.12304783 C136.47319786 71.12304783 136.14319786 71.12304783 135.80319786 71.12304783 C135.47319786 69.14304783 135.14319786 67.16304783 134.80319786 65.12304783 C133.13707881 65.08032683 131.46936901 65.08240951 129.80319786 65.12304783 C129.47319786 65.45304783 129.14319786 65.78304783 128.80319786 66.12304783 C129.46319786 66.78304783 130.12319786 67.44304783 130.80319786 68.12304783 C130.80319786 68.78304783 130.80319786 69.44304783 130.80319786 70.12304783 C132.12319786 70.12304783 133.44319786 70.12304783 134.80319786 70.12304783 C134.47319786 71.44304783 134.14319786 72.76304783 133.80319786 74.12304783 C132.48319786 74.45304783 131.16319786 74.78304783 129.80319786 75.12304783 C129.80319786 74.46304783 129.80319786 73.80304783 129.80319786 73.12304783 C128.81319786 73.12304783 127.82319786 73.12304783 126.80319786 73.12304783 C126.14319786 74.77304783 125.48319786 76.42304783 124.80319786 78.12304783 C125.44257286 78.22617283 126.08194786 78.32929783 126.74069786 78.43554783 C127.42132286 78.66242283 128.10194786 78.88929783 128.80319786 79.12304783 C129.13319786 80.11304783 129.46319786 81.10304783 129.80319786 82.12304783 C129.14319786 82.12304783 128.48319786 82.12304783 127.80319786 82.12304783 C128.13319786 83.03054783 128.46319786 83.93804783 128.80319786 84.87304783 C129.80319786 88.12304783 129.80319786 88.12304783 129.80319786 92.12304783 C127.80319786 95.12304783 127.80319786 95.12304783 124.80319786 97.12304783 C125.13319786 98.77304783 125.46319786 100.42304783 125.80319786 102.12304783 C126.46319786 102.12304783 127.12319786 102.12304783 127.80319786 102.12304783 C127.80319786 102.78304783 127.80319786 103.44304783 127.80319786 104.12304783 C128.46319786 104.12304783 129.12319786 104.12304783 129.80319786 104.12304783 C129.80319786 104.78304783 129.80319786 105.44304783 129.80319786 106.12304783 C131.12319786 106.12304783 132.44319786 106.12304783 133.80319786 106.12304783 C134.13319786 105.13304783 134.46319786 104.14304783 134.80319786 103.12304783 C135.13319786 103.12304783 135.46319786 103.12304783 135.80319786 103.12304783 C136.00328938 115.44020097 136.18702325 127.75747851 136.3497858 140.07518482 C136.42587628 145.79458415 136.50763294 151.51378622 136.60227013 157.23291111 C136.69336612 162.7505639 136.76966796 168.26823991 136.83564758 173.78624821 C136.86345247 175.8930816 136.8966183 177.99985119 136.93519211 180.10651493 C136.98824821 183.05376929 137.02236235 186.00067315 137.05197716 188.94824314 C137.07211372 189.8221822 137.09225029 190.69612125 137.11299706 191.59654331 C137.14445295 197.49773638 137.14445295 197.49773638 135.4243679 200.64959812 C133.57249203 202.33273184 132.26178065 202.78393296 129.80319786 203.12304783 C129.80319786 202.13304783 129.80319786 201.14304783 129.80319786 200.12304783 C129.14319786 199.79304783 128.48319786 199.46304783 127.80319786 199.12304783 C126.50686165 200.18949898 126.50686165 200.18949898 126.74069786 202.68554783 C126.77163536 203.89211033 126.77163536 203.89211033 126.80319786 205.12304783 C125.15319786 205.45304783 123.50319786 205.78304783 121.80319786 206.12304783 C121.80319786 205.46304783 121.80319786 204.80304783 121.80319786 204.12304783 C121.14319786 204.12304783 120.48319786 204.12304783 119.80319786 204.12304783 C119.80319786 201.12304783 119.80319786 201.12304783 122.17819786 198.62304783 C123.04444786 197.79804783 123.91069786 196.97304783 124.80319786 196.12304783 C125.46319786 195.13304783 126.12319786 194.14304783 126.80319786 193.12304783 C126.14319786 192.46304783 125.48319786 191.80304783 124.80319786 191.12304783 C125.46319786 191.12304783 126.12319786 191.12304783 126.80319786 191.12304783 C126.14319786 190.46304783 125.48319786 189.80304783 124.80319786 189.12304783 C124.26694786 189.49429783 123.73069786 189.86554783 123.17819786 190.24804783 C120.80319786 191.12304783 120.80319786 191.12304783 114.80319786 189.12304783 C114.80319786 154.14304783 114.80319786 119.16304783 114.80319786 83.12304783 C103.25319786 83.12304783 91.70319786 83.12304783 79.80319786 83.12304783 C79.80319786 86.42304783 79.80319786 89.72304783 79.80319786 93.12304783 C79.14319786 92.79304783 78.48319786 92.46304783 77.80319786 92.12304783 C77.80319786 91.46304783 77.80319786 90.80304783 77.80319786 90.12304783 C77.16382286 89.89617283 76.52444786 89.66929783 75.86569786 89.43554783 C72.47061576 87.98051264 69.42559032 86.17167739 66.27976036 84.24414158 C60.80125489 81.76412412 54.72455574 81.94121963 48.80319786 81.93554783 C48.13030724 81.92330173 47.45741661 81.91105564 46.76413536 81.89843845 C42.11063704 81.88496307 38.227201 82.75083842 33.80319786 84.12304783 C31.42819786 83.93554783 31.42819786 83.93554783 29.80319786 83.12304783 C29.47319786 82.13304783 29.14319786 81.14304783 28.80319786 80.12304783 C27.81319786 79.62804783 27.81319786 79.62804783 26.80319786 79.12304783 C28.78319786 79.12304783 30.76319786 79.12304783 32.80319786 79.12304783 C32.80319786 79.78304783 32.80319786 80.44304783 32.80319786 81.12304783 C33.46319786 81.12304783 34.12319786 81.12304783 34.80319786 81.12304783 C35.76251356 78.9278991 35.76251356 78.9278991 35.80319786 76.12304783 C34.35896305 73.82197222 32.69447651 72.10658397 30.80319786 70.12304783 C30.80319786 70.78304783 30.80319786 71.44304783 30.80319786 72.12304783 C29.81319786 72.12304783 28.82319786 72.12304783 27.80319786 72.12304783 C26.67819786 66.49804783 26.67819786 66.49804783 27.80319786 63.12304783 C28.46319786 63.12304783 29.12319786 63.12304783 29.80319786 63.12304783 C29.63819786 62.52492283 29.47319786 61.92679783 29.30319786 61.31054783 C28.80319786 59.12304783 28.80319786 59.12304783 28.80319786 56.12304783 C28.14319786 55.46304783 27.48319786 54.80304783 26.80319786 54.12304783 C27.79319786 53.46304783 28.78319786 52.80304783 29.80319786 52.12304783 C29.60848676 50.17305654 29.60848676 50.17305654 28.80319786 48.12304783 C26.81942116 46.83868049 26.81942116 46.83868049 24.80319786 46.12304783 C26.11569786 44.62304783 26.11569786 44.62304783 27.80319786 43.12304783 C28.79319786 43.12304783 29.78319786 43.12304783 30.80319786 43.12304783 C30.80319786 41.80304783 30.80319786 40.48304783 30.80319786 39.12304783 C29.15319786 39.12304783 27.50319786 39.12304783 25.80319786 39.12304783 C26.13319786 37.47304783 26.46319786 35.82304783 26.80319786 34.12304783 C28.12319786 34.78304783 29.44319786 35.44304783 30.80319786 36.12304783 C30.80319786 34.80304783 30.80319786 33.48304783 30.80319786 32.12304783 C30.14319786 31.79304783 29.48319786 31.46304783 28.80319786 31.12304783 C31.27819786 29.63804783 31.27819786 29.63804783 33.80319786 28.12304783 C33.14319786 27.13304783 32.48319786 26.14304783 31.80319786 25.12304783 C30.87507286 25.30867283 29.94694786 25.49429783 28.99069786 25.68554783 C25.80319786 26.12304783 25.80319786 26.12304783 22.80319786 25.12304783 C21.81319786 25.12304783 20.82319786 25.12304783 19.80319786 25.12304783 C20.57959106 28.19758343 20.57959106 28.19758343 22.80319786 30.12304783 C22.14319786 30.12304783 21.48319786 30.12304783 20.80319786 30.12304783 C20.47319786 31.44304783 20.14319786 32.76304783 19.80319786 34.12304783 C19.14319786 34.12304783 18.48319786 34.12304783 17.80319786 34.12304783 C17.47319786 34.78304783 17.14319786 35.44304783 16.80319786 36.12304783 C16.14319786 36.12304783 15.48319786 36.12304783 14.80319786 36.12304783 C14.80319786 37.44304783 14.80319786 38.76304783 14.80319786 40.12304783 C15.46319786 40.78304783 16.12319786 41.44304783 16.80319786 42.12304783 C16.16382286 42.41179783 15.52444786 42.70054783 14.86569786 42.99804783 C12.65113707 43.95128234 12.65113707 43.95128234 11.80319786 46.12304783 C10.81319786 46.12304783 9.82319786 46.12304783 8.80319786 46.12304783 C8.80319786 46.78304783 8.80319786 47.44304783 8.80319786 48.12304783 C8.14319786 48.12304783 7.48319786 48.12304783 6.80319786 48.12304783 C6.80319786 47.46304783 6.80319786 46.80304783 6.80319786 46.12304783 C4.20124584 48.00243155 4.20124584 48.00243155 1.80319786 50.12304783 C-0.19638578 50.16385566 -2.19725468 50.16559139 -4.19680214 50.12304783 C-4.32055214 49.48367283 -4.44430214 48.84429783 -4.57180214 48.18554783 C-4.77805214 47.50492283 -4.98430214 46.82429783 -5.19680214 46.12304783 C-5.85680214 45.79304783 -6.51680214 45.46304783 -7.19680214 45.12304783 C-8.07180214 43.37304783 -8.07180214 43.37304783 -8.19680214 41.12304783 C-6.39233067 38.50967535 -4.43850404 36.36474973 -2.19680214 34.12304783 C-2.85680214 33.79304783 -3.51680214 33.46304783 -4.19680214 33.12304783 C-4.19680214 32.46304783 -4.19680214 31.80304783 -4.19680214 31.12304783 C-0.73180214 30.62804783 -0.73180214 30.62804783 2.80319786 30.12304783 C2.80319786 29.13304783 2.80319786 28.14304783 2.80319786 27.12304783 C3.46319786 27.12304783 4.12319786 27.12304783 4.80319786 27.12304783 C4.47319786 26.13304783 4.14319786 25.14304783 3.80319786 24.12304783 C4.13319786 23.46304783 4.46319786 22.80304783 4.80319786 22.12304783 C2.82319786 22.12304783 0.84319786 22.12304783 -1.19680214 22.12304783 C-1.44430214 21.17429783 -1.69180214 20.22554783 -1.94680214 19.24804783 C-2.88250984 16.03611592 -2.88250984 16.03611592 -5.32180214 14.74804783 C-5.94055214 14.54179783 -6.55930214 14.33554783 -7.19680214 14.12304783 C-6.20680214 13.46304783 -5.21680214 12.80304783 -4.19680214 12.12304783 C-3.47297747 10.06379644 -3.47297747 10.06379644 -3.19680214 8.12304783 C-4.18680214 7.79304783 -5.17680214 7.46304783 -6.19680214 7.12304783 C-5.86680214 5.47304783 -5.53680214 3.82304783 -5.19680214 2.12304783 C-5.85680214 1.79304783 -6.51680214 1.46304783 -7.19680214 1.12304783 C-4.64351397 -0.15359626 -2.85987015 -0.0011286 0 0 Z M-8.19680214 15.12304783 C-6.19680214 16.12304783 -6.19680214 16.12304783 -6.19680214 16.12304783 Z M15.80319786 39.12304783 C16.79319786 39.45304783 17.78319786 39.78304783 18.80319786 40.12304783 C17.81319786 40.12304783 16.82319786 40.12304783 15.80319786 40.12304783 C15.80319786 39.79304783 15.80319786 39.46304783 15.80319786 39.12304783 Z M280.80319786 39.12304783 C281.79319786 39.61804783 281.79319786 39.61804783 282.80319786 40.12304783 C281.81319786 40.61804783 281.81319786 40.61804783 280.80319786 41.12304783 C280.80319786 40.46304783 280.80319786 39.80304783 280.80319786 39.12304783 Z M30.80319786 73.12304783 C32.80319786 74.12304783 32.80319786 74.12304783 32.80319786 74.12304783 Z " fill="#FCFCFC" transform="translate(971.1968021392822,-0.1230478286743164)"/>
<path d="M0 0 C0.99 0.495 0.99 0.495 2 1 C2.73075648 3.3140622 3.40138258 5.64828869 4 8 C5.65 8 7.3 8 9 8 C9.33 8.99 9.66 9.98 10 11 C9.01 11 8.02 11 7 11 C7 11.66 7 12.32 7 13 C6.34 13 5.68 13 5 13 C4.34 14.65 3.68 16.3 3 18 C3.99 18 4.98 18 6 18 C6 18.66 6 19.32 6 20 C6.66 20.33 7.32 20.66 8 21 C7.67 21.99 7.34 22.98 7 24 C9.71200625 23.62593017 10.73802442 23.34170728 12.4375 21.125 C12.953125 20.42375 13.46875 19.7225 14 19 C14.78375 18.54625 15.5675 18.0925 16.375 17.625 C19.23424191 16.05922383 19.23424191 16.05922383 21.4375 12.9375 C24.24889925 9.71467646 25.96833255 9.09954567 30 8 C30.33 7.34 30.66 6.68 31 6 C32.17426264 8.34852528 32.11508173 9.73774065 32.09765625 12.3515625 C32.09443359 13.20234375 32.09121094 14.053125 32.08789062 14.9296875 C32.07951172 15.81914063 32.07113281 16.70859375 32.0625 17.625 C32.05798828 18.5221875 32.05347656 19.419375 32.04882812 20.34375 C32.03702591 22.56256648 32.02056155 24.78125018 32 27 C31.071875 26.7215625 31.071875 26.7215625 30.125 26.4375 C27.95839822 25.76313824 27.95839822 25.76313824 26 27 C25.01 26.01 24.02 25.02 23 24 C23.04125 25.0725 23.0825 26.145 23.125 27.25 C23.0114175 30.65747485 22.78726636 32.20739631 21 35 C20.34 35 19.68 35 19 35 C18.67 35.99 18.34 36.98 18 38 C16 36.625 16 36.625 14 35 C14 34.34 14 33.68 14 33 C10.58343976 32.83322718 10.58343976 32.83322718 7 33 C6.01 33.99 6.01 33.99 5 35 C5.33 34.67 5.66 34.34 6 34 C6.66 34.33 7.32 34.66 8 35 C7.79375 35.61875 7.5875 36.2375 7.375 36.875 C7.189375 37.926875 7.189375 37.926875 7 39 C7.66 39.66 8.32 40.32 9 41 C9 41.66 9 42.32 9 43 C8.34 43 7.68 43 7 43 C7 43.66 7 44.32 7 45 C6.02149805 46.02104551 5.02019573 47.0206121 4 48 C3.67 48.66 3.34 49.32 3 50 C4.32 50.33 5.64 50.66 7 51 C7.33 52.32 7.66 53.64 8 55 C8.99 55 9.98 55 11 55 C11 55.99 11 56.98 11 58 C10.01 58.495 10.01 58.495 9 59 C9.43570312 59.38929687 9.87140625 59.77859375 10.3203125 60.1796875 C21.22105258 70.41977666 25.90306818 83.64188175 26.42204666 98.43238831 C26.47761699 102.20640925 26.44240347 105.97615326 26.390625 109.75 C26.38313857 111.38622333 26.37745706 113.0224558 26.37347412 114.65869141 C26.3584062 118.90679929 26.31929449 123.15433538 26.2746582 127.40222168 C26.22598263 132.53026518 26.20808142 137.6585029 26.18484497 142.78671265 C26.14642577 150.52486934 26.06964399 158.26177852 26 166 C14.45 166 2.9 166 -9 166 C-9.03867188 158.2346875 -9.03867188 158.2346875 -9.078125 150.3125 C-9.1033079 147.02208671 -9.12965176 143.73176402 -9.16015625 140.44140625 C-9.20840611 135.22509481 -9.2524826 130.00899326 -9.27099609 124.79248047 C-9.28620147 120.58415607 -9.32071502 116.37638276 -9.36830902 112.16830444 C-9.38308301 110.56729945 -9.39103872 108.96621576 -9.39188385 107.36514282 C-9.30427696 95.59709733 -9.30427696 95.59709733 -14 85 C-17.13049318 81.96437025 -20.04149086 81.75619707 -24.25 81.5625 C-33.11967056 81.8366968 -39.93993244 85.64086417 -46 92 C-50.26745725 97.61507533 -51.10966723 101.38727884 -51.20532227 108.32910156 C-51.22526749 109.61012756 -51.24521271 110.89115356 -51.26576233 112.21099854 C-51.28274409 113.60420614 -51.29962299 114.99741499 -51.31640625 116.390625 C-51.33698794 117.81980983 -51.35798473 119.24898873 -51.37937927 120.67816162 C-51.43447449 124.4329345 -51.48393888 128.18776118 -51.53222656 131.94262695 C-51.59138416 136.45148581 -51.65754284 140.96024673 -51.72252655 145.46902466 C-51.82037812 152.3126231 -51.909342 159.15628545 -52 166 C-63.55 166 -75.1 166 -87 166 C-87.33 135.64 -87.66 105.28 -88 74 C-92.627322 73.627322 -92.627322 73.627322 -95 75 C-95 74.01 -95 73.02 -95 72 C-96.27875 72.28875 -97.5575 72.5775 -98.875 72.875 C-99.59429688 73.03742188 -100.31359375 73.19984375 -101.0546875 73.3671875 C-103.20719964 73.90474428 -103.20719964 73.90474428 -105 76 C-105.99 76 -106.98 76 -108 76 C-108 105.7 -108 135.4 -108 166 C-119.88 166 -131.76 166 -144 166 C-144.33 135.64 -144.66 105.28 -145 74 C-145.495 74.99 -145.495 74.99 -146 76 C-147.32 76 -148.64 76 -150 76 C-150 75.34 -150 74.68 -150 74 C-150.66 74 -151.32 74 -152 74 C-152 73.34 -152 72.68 -152 72 C-152.66 72 -153.32 72 -154 72 C-154 70.68 -154 69.36 -154 68 C-154.66 67.67 -155.32 67.34 -156 67 C-156 66.34 -156 65.68 -156 65 C-154.02 64.505 -154.02 64.505 -152 64 C-151.17334337 61.5200301 -150.98035419 60.09822907 -151.5 57.5 C-152.01964581 54.90177093 -151.82665663 53.4799699 -151 51 C-152.98 50.34 -154.96 49.68 -157 49 C-155.02 46.03 -155.02 46.03 -153 43 C-150.69 43.33 -148.38 43.66 -146 44 C-145.67 42.68 -145.34 41.36 -145 40 C-147.475 40.495 -147.475 40.495 -150 41 C-150 40.34 -150 39.68 -150 39 C-150.66 38.67 -151.32 38.34 -152 38 C-151.34 36.68 -150.68 35.36 -150 34 C-148.02 34 -146.04 34 -144 34 C-143.67 26.74 -143.34 19.48 -143 12 C-131.78 12 -120.56 12 -109 12 C-108.67 20.91 -108.34 29.82 -108 39 C-106.02 38.505 -106.02 38.505 -104 38 C-104.33 39.65 -104.66 41.3 -105 43 C-104.401875 42.67 -103.80375 42.34 -103.1875 42 C-101 41 -101 41 -98 41 C-97.67 40.01 -97.34 39.02 -97 38 C-96.01 38.33 -95.02 38.66 -94 39 C-94 39.66 -94 40.32 -94 41 C-92.02 40.67 -90.04 40.34 -88 40 C-88 40.99 -88 41.98 -88 43 C-86.02 43.495 -86.02 43.495 -84 44 C-83.505 45.98 -83.505 45.98 -83 48 C-86 50 -86 50 -90 50 C-90 50.66 -90 51.32 -90 52 C-84.51859398 51.9311209 -79.03795063 51.84315326 -73.55712891 51.73754883 C-71.69295718 51.70431216 -69.82868513 51.67627627 -67.96435547 51.65356445 C-65.28309409 51.61999512 -62.60275104 51.56767891 -59.921875 51.51171875 C-59.08944275 51.50532883 -58.2570105 51.4989389 -57.39935303 51.49235535 C-52.89842167 51.37820887 -50.46225081 51.11841134 -47 48 C-46.01 48 -45.02 48 -44 48 C-43.67 46.35 -43.34 44.7 -43 43 C-42.01 43 -41.02 43 -40 43 C-40 42.34 -40 41.68 -40 41 C-39.030625 40.87625 -38.06125 40.7525 -37.0625 40.625 C-36.051875 40.41875 -35.04125 40.2125 -34 40 C-33.505 39.01 -33.505 39.01 -33 38 C-32.67 37.67 -32.34 37.34 -32 37 C-32.99 37 -33.98 37 -35 37 C-35 35.35 -35 33.7 -35 32 C-34.34 32 -33.68 32 -33 32 C-33 30.35 -33 28.7 -33 27 C-31 27 -29 27 -27 27 C-26.67 26.34 -26.34 25.68 -26 25 C-24.68 25.33 -23.36 25.66 -22 26 C-21.67 25.01 -21.34 24.02 -21 23 C-20.34 23 -19.68 23 -19 23 C-18.62875 21.824375 -18.62875 21.824375 -18.25 20.625 C-16.75937663 17.49469091 -16.00580249 17.45996121 -13 16 C-12.21625 15.01 -11.4325 14.02 -10.625 13 C-7.77024614 9.73742416 -6.08145619 9.11312442 -2 8 C-1.67 7.34 -1.34 6.68 -1 6 C-1.33 5.67 -1.66 5.34 -2 5 C-2.33 4.01 -2.66 3.02 -3 2 C-2.01 1.34 -1.02 0.68 0 0 Z M1 9 C1.33 9.66 1.66 10.32 2 11 C2.33 10.34 2.66 9.68 3 9 C2.34 9 1.68 9 1 9 Z M-152 41 C-150 42 -150 42 -150 42 Z " fill="#F2F5F7" transform="translate(1251,30)"/>
<path d="M0 0 C0 0.66 0 1.32 0 2 C0.556875 2.226875 1.11375 2.45375 1.6875 2.6875 C4.66159588 4.37550036 6.72008865 6.46676517 9 9 C9 9.66 9 10.32 9 11 C9.66 11 10.32 11 11 11 C20.75105771 29.25138593 25.41857641 46.5556303 20.3125 67.1875 C18.54677708 72.94013792 16.28522741 77.97115675 13 83 C12.401875 84.03125 11.80375 85.0625 11.1875 86.125 C8.22472567 90.01893197 4.82472712 92.97037744 1 96 C0.01386719 96.79277344 0.01386719 96.79277344 -0.9921875 97.6015625 C-13.57325033 106.85932571 -28.78229986 109.02280268 -44 107 C-48.29148528 105.95547994 -52.18124142 104.21377309 -56 102 C-56 101.34 -56 100.68 -56 100 C-56.99 100 -57.98 100 -59 100 C-59 99.34 -59 98.68 -59 98 C-59.66 98 -60.32 98 -61 98 C-61.33 97.34 -61.66 96.68 -62 96 C-62.33 112.83 -62.66 129.66 -63 147 C-68.589375 147.020625 -74.17875 147.04125 -79.9375 147.0625 C-81.70343506 147.071604 -83.46937012 147.08070801 -85.28881836 147.09008789 C-86.68082605 147.09300714 -88.07283459 147.09555567 -89.46484375 147.09765625 C-90.19384888 147.10277222 -90.922854 147.10788818 -91.6739502 147.11315918 C-93.44970076 147.11347011 -95.22534208 147.06228515 -97 147 C-98 146 -98 146 -98.12304783 143.4718771 C-98.12212604 142.33714993 -98.12120424 141.20242277 -98.12025452 140.03330994 C-98.12162918 138.73615555 -98.12300385 137.43900116 -98.12442017 136.10253906 C-98.12088055 134.6516111 -98.11724573 133.20068337 -98.11352539 131.74975586 C-98.11324353 130.23238629 -98.11340123 128.71501658 -98.1139679 127.19764709 C-98.11425591 123.06559484 -98.10835858 118.93357137 -98.10139394 114.80152583 C-98.09516102 110.48801108 -98.09455665 106.17449573 -98.09336853 101.86097717 C-98.09025503 93.68699883 -98.08204139 85.51303379 -98.07201904 77.33906132 C-98.06085848 68.03571031 -98.0553476 58.73235868 -98.05032361 49.42900264 C-98.03985879 30.28599268 -98.02151308 11.14300096 -98 -8 C-86.45 -8 -74.9 -8 -63 -8 C-62.505 -3.545 -62.505 -3.545 -62 1 C-61.030625 0.0925 -60.06125 -0.815 -59.0625 -1.75 C-41.86393544 -16.53657075 -17.57496778 -10.5661129 0 0 Z " fill="#03507F" transform="translate(672,91)"/>
<path d="M0 0 C2.97 0.99 5.94 1.98 9 3 C9 70.32 9 137.64 9 207 C-31.26 207 -71.52 207 -113 207 C-113 202.71 -113 198.42 -113 194 C-114.32 193.67 -115.64 193.34 -117 193 C-116.01 191.02 -116.01 191.02 -115 189 C-114.34 189 -113.68 189 -113 189 C-112.67 188.01 -112.34 187.02 -112 186 C-111.01 185.67 -110.02 185.34 -109 185 C-108.505 184.01 -108.505 184.01 -108 183 C-107.34 183 -106.68 183 -106 183 C-107.28965176 181.62437146 -108.62689293 180.29233607 -110 179 C-110.66 179 -111.32 179 -112 179 C-112 180.32 -112 181.64 -112 183 C-113.98 183.33 -115.96 183.66 -118 184 C-118.33 182.35 -118.66 180.7 -119 179 C-117.02 178.01 -115.04 177.02 -113 176 C-113 174.68 -113 173.36 -113 172 C-113.99 171.67 -114.98 171.34 -116 171 C-115.505 170.01 -115.505 170.01 -115 169 C-114.01 169 -113.02 169 -112 169 C-112.33 166.69 -112.66 164.38 -113 162 C-114.32 161.67 -115.64 161.34 -117 161 C-117 160.34 -117 159.68 -117 159 C-116.34 159 -115.68 159 -115 159 C-115 159.66 -115 160.32 -115 161 C-114.01 161 -113.02 161 -112 161 C-112 160.34 -112 159.68 -112 159 C-110.35 158.67 -108.7 158.34 -107 158 C-107.99 157.34 -108.98 156.68 -110 156 C-110 155.34 -110 154.68 -110 154 C-110.66 154 -111.32 154 -112 154 C-112.495 154.99 -112.495 154.99 -113 156 C-113.99 155.67 -114.98 155.34 -116 155 C-116 153.35 -116 151.7 -116 150 C-114.68 149.67 -113.36 149.34 -112 149 C-112 148.01 -112 147.02 -112 146 C-112.99 145.67 -113.98 145.34 -115 145 C-114.01 143.02 -113.02 141.04 -112 139 C-111.34 139 -110.68 139 -110 139 C-110 139.99 -110 140.98 -110 142 C-98.45 142 -86.9 142 -75 142 C-75.03480469 137.46121094 -75.06960938 132.92242187 -75.10546875 128.24609375 C-75.12080723 125.36131516 -75.13524974 122.47658725 -75.14648438 119.59179688 C-75.16438006 115.01836636 -75.18549307 110.44511698 -75.22631836 105.87182617 C-75.2590448 102.18246037 -75.27688081 98.49328896 -75.28463173 94.80378914 C-75.29015153 93.40004481 -75.30093021 91.99631047 -75.31719017 90.59264946 C-75.44622106 78.98658041 -74.16958549 72.65587487 -66.1953125 64.01953125 C-60.02464364 58.34295509 -52.91410559 56.61165216 -44.7265625 56.73046875 C-40.76865354 57.12172336 -38.83907087 58.23017476 -36 61 C-30.72678622 68.67714342 -31.48841452 76.81761267 -31.609375 85.75 C-31.6168456 87.37523703 -31.62253466 89.00048313 -31.62652588 90.62573242 C-31.64171795 94.88052726 -31.68094308 99.13476634 -31.7253418 103.38934326 C-31.77367298 108.50634783 -31.79185921 113.62353937 -31.81515503 118.7407074 C-31.85379918 126.49419016 -31.93049612 134.24645613 -32 142 C-20.45 142 -8.9 142 3 142 C2.93790348 129.23806926 2.93790348 129.23806926 2.83984375 116.4765625 C2.79180497 111.25878773 2.74765099 106.04121562 2.72900391 100.82324219 C2.71367141 96.60840367 2.67894035 92.39410154 2.63169098 88.17950439 C2.61704583 86.58511056 2.60896889 84.99064007 2.60811615 83.3961792 C2.59173938 68.10483567 1.25185727 51.23515717 -10.1640625 39.83984375 C-12.06303872 38.15223768 -13.98426352 36.54505689 -16 35 C-14.68 34.67 -13.36 34.34 -12 34 C-12 33.01 -12 32.02 -12 31 C-12.99 31 -13.98 31 -15 31 C-15 30.01 -15 29.02 -15 28 C-16.65 27.34 -18.3 26.68 -20 26 C-19.67 24.35 -19.34 22.7 -19 21 C-18.01 21 -17.02 21 -16 21 C-15.3185177 19.10820797 -15.3185177 19.10820797 -15 17 C-15.99 16.01 -15.99 16.01 -17 15 C-16.625 12.875 -16.625 12.875 -16 11 C-16.33 11.33 -16.66 11.66 -17 12 C-17.99 11.505 -17.99 11.505 -19 11 C-19 10.34 -19 9.68 -19 9 C-15.39985902 7.75379735 -12.65974239 8.00881977 -9 9 C-6.625 11.0625 -6.625 11.0625 -5 13 C-4.34 11.68 -3.68 10.36 -3 9 C-2.34 9 -1.68 9 -1 9 C-0.67 6.03 -0.34 3.06 0 0 Z M-113 170 C-112.67 170.66 -112.34 171.32 -112 172 C-111.67 171.34 -111.34 170.68 -111 170 C-111.66 170 -112.32 170 -113 170 Z " fill="#FCFCFC" transform="translate(1274,54)"/>
<path d="M0 0 C0.94166016 0.54043945 0.94166016 0.54043945 1.90234375 1.09179688 C6.4825487 3.7775974 6.4825487 3.7775974 7.625 6.0625 C7.955 3.0925 8.285 0.1225 8.625 -2.9375 C19.845 -2.9375 31.065 -2.9375 42.625 -2.9375 C42.625 34.3525 42.625 71.6425 42.625 110.0625 C31.405 110.0625 20.185 110.0625 8.625 110.0625 C8.13 105.6075 8.13 105.6075 7.625 101.0625 C6.635 101.97 5.645 102.8775 4.625 103.8125 C-5.43812403 112.42930458 -16.62003351 113.00916855 -29.375 112.0625 C-42.51911173 110.14213619 -55.5454617 103.9480366 -63.859375 93.26171875 C-64.60960937 92.17310547 -64.60960937 92.17310547 -65.375 91.0625 C-66.27992188 89.77279297 -66.27992188 89.77279297 -67.203125 88.45703125 C-76.70029791 73.6725667 -78.95364843 55.19689786 -75.71484375 38.03515625 C-73.68799645 30.09447744 -70.27987462 22.65871069 -65.375 16.0625 C-64.715 16.0625 -64.055 16.0625 -63.375 16.0625 C-63.12492188 15.48242188 -62.87484375 14.90234375 -62.6171875 14.3046875 C-58.05503303 6.06985522 -48.69071405 1.58871428 -40.375 -1.9375 C-39.17423828 -2.44990234 -39.17423828 -2.44990234 -37.94921875 -2.97265625 C-26.05954218 -7.26892593 -10.79402415 -6.50173097 0 0 Z " fill="#004E7E" transform="translate(1042.375,85.9375)"/>
<path d="M0 0 C1.78507713 -0.00845947 1.78507713 -0.00845947 3.60621643 -0.01708984 C4.89831024 -0.01304138 6.19040405 -0.00899292 7.52165222 -0.00482178 C8.90693343 -0.00753422 10.29221319 -0.01109658 11.67749023 -0.01544189 C15.42972181 -0.0245406 19.1818431 -0.02103138 22.93407655 -0.01468372 C26.86965871 -0.00960764 30.80523166 -0.01431993 34.74081421 -0.01745605 C41.35234769 -0.0210923 47.96383647 -0.01630691 54.57536316 -0.0067749 C62.20294978 0.00409549 69.83042935 0.00059301 77.45801336 -0.01042771 C84.01958878 -0.01952648 90.58113212 -0.02077283 97.14271182 -0.01555037 C101.055881 -0.01244315 104.96900001 -0.0119866 108.88216591 -0.01862335 C112.56514512 -0.02443346 116.24798752 -0.02033341 119.93095207 -0.00883484 C121.91514273 -0.00496108 123.89934506 -0.01084353 125.88352966 -0.01708984 C140.83069093 0.05324471 154.43002771 3.59185009 165.77238464 13.91412354 C176.33501604 25.6411395 180.09052738 38.72873399 180.10929871 54.17144775 C180.11426361 55.15433777 180.11922852 56.13722778 180.12434387 57.14990234 C180.13890808 60.39032703 180.1457572 63.63070279 180.15129089 66.87115479 C180.15704617 69.13027955 180.16280385 71.3894043 180.16856384 73.64852905 C180.17905686 78.38110582 180.18491094 83.11366568 180.18840027 87.84625244 C180.19388763 93.90104782 180.21792821 99.95561863 180.24637222 106.01034355 C180.26502147 110.67557423 180.27020538 115.34075098 180.27173615 120.00601578 C180.27475698 122.23786779 180.28276622 124.46971898 180.29592133 126.70153427 C180.31303268 129.82709492 180.31108921 132.95210889 180.30461121 136.07769775 C180.31382599 136.99328461 180.32304077 137.90887146 180.33253479 138.85220337 C180.29484001 144.67696773 179.2828466 148.90998634 176.94816589 154.25396729 C176.56273621 155.23365479 176.17730652 156.21334229 175.78019714 157.22271729 C175.44375183 158.05802979 175.10730652 158.89334229 174.76066589 159.75396729 C174.41648621 160.60990479 174.07230652 161.46584229 173.71769714 162.34771729 C173.46375183 162.97677979 173.20980652 163.60584229 172.94816589 164.25396729 C172.28816589 164.25396729 171.62816589 164.25396729 170.94816589 164.25396729 C170.61816589 165.57396729 170.28816589 166.89396729 169.94816589 168.25396729 C169.28816589 168.25396729 168.62816589 168.25396729 167.94816589 168.25396729 C167.55177917 169.15115479 167.55177917 169.15115479 167.14738464 170.06646729 C163.99552206 175.81579316 157.62920408 179.35775174 151.94816589 182.25396729 C151.28816589 182.25396729 150.62816589 182.25396729 149.94816589 182.25396729 C149.94229965 181.08822678 149.93643341 179.92248627 149.9303894 178.72142029 C149.87302334 167.70232085 149.80018959 156.68341614 149.71245098 145.6645155 C149.66784094 140.00041837 149.62856427 134.33639162 149.60173035 128.67218018 C149.57560384 123.1996088 149.53513567 117.72730963 149.48497963 112.25490761 C149.46837396 110.17350987 149.45682065 108.09206512 149.45055199 106.01061058 C149.51793085 90.87088495 149.51793085 90.87088495 145.94816589 76.25396729 C145.6687767 75.40855881 145.38938751 74.56315033 145.10153198 73.69212341 C141.68517534 63.53936056 134.87990268 54.10721338 126.47941589 47.52349854 C124.94816589 46.25396729 124.94816589 46.25396729 123.94816589 44.25396729 C122.95816589 43.92396729 121.96816589 43.59396729 120.94816589 43.25396729 C120.94816589 42.59396729 120.94816589 41.93396729 120.94816589 41.25396729 C119.95816589 41.25396729 118.96816589 41.25396729 117.94816589 41.25396729 C117.94816589 40.59396729 117.94816589 39.93396729 117.94816589 39.25396729 C117.22629089 39.15084229 116.50441589 39.04771729 115.76066589 38.94146729 C112.94816589 38.25396729 112.94816589 38.25396729 110.69816589 36.87896729 C103.86341463 32.84025063 96.06371231 31.14668088 88.18380737 31.0957489 C87.0326091 31.08596008 85.88141083 31.07617126 84.69532776 31.06608582 C83.4416037 31.06033035 82.18787964 31.05457489 80.89616394 31.04864502 C79.55553897 31.03905934 78.21491698 31.02904886 76.8742981 31.01864624 C73.2424977 30.9916658 69.61068441 30.97061921 65.97883964 30.95064425 C62.18049008 30.92874226 58.38217999 30.90137422 54.5838623 30.87458801 C47.39460907 30.82471802 40.20533387 30.77975812 33.01603776 30.73656565 C24.8298363 30.68714455 16.64367444 30.63224452 8.45751131 30.57688606 C-8.37890063 30.46315343 -25.21534891 30.35629548 -42.05183411 30.25396729 C-37.43250017 18.18672048 -29.00093287 9.86642337 -17.42683411 4.50396729 C-11.59362244 1.9380384 -6.43410749 0.00471063 0 0 Z " fill="#141414" transform="translate(99.05183410644531,20.74603271484375)"/>
<path d="M0 0 C11.22 0 22.44 0 34 0 C34 19.47 34 38.94 34 59 C34.66 59 35.32 59 36 59 C36.0825 58.443125 36.165 57.88625 36.25 57.3125 C37.23895541 54.26322081 38.84757466 52.34810037 41 50 C41.66 50 42.32 50 43 50 C43 49.34 43 48.68 43 48 C53.39881598 40.65150338 62.37647869 37.96266892 75 39 C78.79768881 39.69278744 82.36437045 40.70921059 86 42 C86.69738281 42.24363281 87.39476562 42.48726562 88.11328125 42.73828125 C96.97057352 46.48354912 104.24224999 54.56787365 107.94914246 63.32829285 C112.09270871 73.86292302 112.40131114 83.75849752 112.29296875 94.91796875 C112.28736211 96.62860235 112.28309707 98.33924081 112.28010559 100.04988098 C112.26874079 104.51658817 112.23934734 108.98299508 112.20599365 113.44958496 C112.16966529 118.82786098 112.15609171 124.20623833 112.13863373 129.58460236 C112.10970361 137.72327604 112.05215882 145.86129297 112 154 C100.78 154 89.56 154 78 154 C77.97421875 148.97910156 77.9484375 143.95820313 77.921875 138.78515625 C77.89668674 135.59044486 77.87033878 132.39582628 77.83984375 129.20117188 C77.79162763 124.13858782 77.74753859 119.07621882 77.72900391 114.01342773 C77.71377835 109.92828498 77.67922972 105.84370765 77.63169098 101.75881767 C77.61693761 100.206089 77.60896248 98.65327957 77.60811615 97.10048103 C77.72742608 83.42049215 77.72742608 83.42049215 71 72 C65.63582191 69.31791096 59.33688011 68.99015471 53.625 70.71875 C44.64398069 74.4810689 38.7992633 79.97605321 35 89 C34.16151054 94.06205241 34.15903966 99.07849969 34.1953125 104.1953125 C34.18404013 105.63835857 34.17014985 107.08138632 34.15377808 108.52438354 C34.11798645 112.28920957 34.1173347 116.05321953 34.12445068 119.81817627 C34.12553057 124.35311829 34.08217165 128.88783495 34.04641724 133.42260742 C33.99723054 140.28215789 34.00386501 147.13960131 34 154 C22.78 154 11.56 154 0 154 C0 103.18 0 52.36 0 0 Z " fill="#004E7E" transform="translate(836,42)"/>
<path d="M0 0 C10.59383671 5.46267226 17.34181 13.16638775 21.828125 24.16015625 C25.013825 34.30189783 25.13716275 44.11815984 25.06640625 54.64453125 C25.06266906 56.2893354 25.05982543 57.93414179 25.05783081 59.57894897 C25.05024992 63.87626455 25.03065007 68.17344168 25.00842285 72.47070312 C24.98421616 77.6437443 24.975157 82.81683216 24.96351624 87.98991394 C24.94422164 95.82019473 24.90586073 103.65017262 24.87109375 111.48046875 C13.32109375 111.48046875 1.77109375 111.48046875 -10.12890625 111.48046875 C-10.1546875 106.30359375 -10.18046875 101.12671875 -10.20703125 95.79296875 C-10.23221415 92.50255546 -10.25855801 89.21223277 -10.2890625 85.921875 C-10.33731236 80.70556356 -10.38138885 75.48946201 -10.39990234 70.27294922 C-10.41510772 66.06462482 -10.44962127 61.85685151 -10.49721527 57.64877319 C-10.51198926 56.0477682 -10.51994497 54.44668451 -10.5207901 52.84561157 C-10.43318321 41.07756608 -10.43318321 41.07756608 -15.12890625 30.48046875 C-18.25939943 27.444839 -21.17039711 27.23666582 -25.37890625 27.04296875 C-34.24857681 27.31716555 -41.06883869 31.12133292 -47.12890625 37.48046875 C-51.3963635 43.09554408 -52.23857348 46.86774759 -52.33422852 53.80957031 C-52.35417374 55.09059631 -52.37411896 56.37162231 -52.39466858 57.69146729 C-52.41165034 59.08467489 -52.42852924 60.47788374 -52.4453125 61.87109375 C-52.46589419 63.30027858 -52.48689098 64.72945748 -52.50828552 66.15863037 C-52.56338074 69.91340325 -52.61284513 73.66822993 -52.66113281 77.4230957 C-52.72029041 81.93195456 -52.78644909 86.44071548 -52.8514328 90.94949341 C-52.94928437 97.79309185 -53.03824825 104.6367542 -53.12890625 111.48046875 C-64.34890625 111.48046875 -75.56890625 111.48046875 -87.12890625 111.48046875 C-87.12890625 74.19046875 -87.12890625 36.90046875 -87.12890625 -1.51953125 C-75.90890625 -1.51953125 -64.68890625 -1.51953125 -53.12890625 -1.51953125 C-52.63390625 6.89546875 -52.63390625 6.89546875 -52.12890625 15.48046875 C-50.80890625 13.50046875 -49.48890625 11.52046875 -48.12890625 9.48046875 C-42.24207204 3.67625677 -35.95117015 0.02091042 -28.12890625 -2.51953125 C-18.82397022 -5.62117659 -8.75348258 -3.82496117 0 0 Z " fill="#014F7E" transform="translate(1252.12890625,84.51953125)"/>
<path d="M0 0 C2.06563233 1.69260618 3.99039793 3.38788613 5.73046875 5.41796875 C5.73046875 6.07796875 5.73046875 6.73796875 5.73046875 7.41796875 C6.39046875 7.41796875 7.05046875 7.41796875 7.73046875 7.41796875 C9.41796875 9.73046875 9.41796875 9.73046875 10.73046875 12.41796875 C9.73046875 15.41796875 9.73046875 15.41796875 7.5690918 16.78417969 C4.52416474 18.25786232 1.47857169 19.72703467 -1.58203125 21.16796875 C-2.64099609 21.68746094 -3.69996094 22.20695312 -4.79101562 22.7421875 C-5.81130859 23.22816406 -6.83160156 23.71414062 -7.8828125 24.21484375 C-8.81907471 24.66182617 -9.75533691 25.10880859 -10.7199707 25.56933594 C-13.45023096 26.47811547 -14.62376725 26.4323142 -17.26953125 25.41796875 C-17.26953125 24.75796875 -17.26953125 24.09796875 -17.26953125 23.41796875 C-17.88828125 23.27359375 -18.50703125 23.12921875 -19.14453125 22.98046875 C-21.26953125 22.41796875 -21.26953125 22.41796875 -23.26953125 21.41796875 C-23.26953125 20.75796875 -23.26953125 20.09796875 -23.26953125 19.41796875 C-32.13876571 17.44702776 -42.05770399 17.13619662 -50.26953125 21.41796875 C-55.90106527 25.03178737 -59.47011471 29.19194763 -61.6484375 35.54296875 C-63.58258851 44.49601999 -62.84041555 53.03656675 -59.26953125 61.41796875 C-58.93953125 62.40796875 -58.60953125 63.39796875 -58.26953125 64.41796875 C-57.60953125 64.41796875 -56.94953125 64.41796875 -56.26953125 64.41796875 C-54.58136192 66.06285169 -52.9159981 67.73134417 -51.26953125 69.41796875 C-45.14172037 73.503176 -36.76573484 73.94274815 -29.58203125 72.91796875 C-25.40480669 72.04268326 -22.76293524 70.47716163 -19.33203125 67.98046875 C-16.1497588 65.88260125 -15.01231661 65.2675071 -11.22265625 66.03515625 C-8.12542383 67.3372266 -5.21598054 68.80630644 -2.26953125 70.41796875 C-0.86078601 71.04038233 0.55451349 71.64856377 1.98046875 72.23046875 C2.88796875 72.62234375 3.79546875 73.01421875 4.73046875 73.41796875 C4.73046875 74.07796875 4.73046875 74.73796875 4.73046875 75.41796875 C6.18453125 75.60359375 6.18453125 75.60359375 7.66796875 75.79296875 C8.67859375 75.99921875 9.68921875 76.20546875 10.73046875 76.41796875 C11.06046875 77.07796875 11.39046875 77.73796875 11.73046875 78.41796875 C6.58093604 86.23105286 6.58093604 86.23105286 4.73046875 88.41796875 C4.07046875 88.41796875 3.41046875 88.41796875 2.73046875 88.41796875 C2.73046875 89.07796875 2.73046875 89.73796875 2.73046875 90.41796875 C-9.72896 101.9365835 -25.15549429 104.96963824 -41.5234375 104.69140625 C-58.00812092 104.01910541 -72.05407761 96.25650315 -83.26953125 84.41796875 C-94.24765132 71.38145117 -98.19813945 56.12533192 -96.99829102 39.30541992 C-96.0982421 29.91335842 -93.26903513 22.07245818 -87.734375 14.453125 C-86.19842048 12.39347323 -86.19842048 12.39347323 -84.84765625 9.93359375 C-77.73068558 -1.41128029 -62.26610188 -9.19116477 -49.44140625 -12.18359375 C-30.56590625 -14.5546541 -15.16145803 -11.77207021 0 0 Z " fill="#024F7F" transform="translate(431.26953125,93.58203125)"/>
<path d="M0 0 C0.928125 0.78375 1.85625 1.5675 2.8125 2.375 C2.8125 3.035 2.8125 3.695 2.8125 4.375 C3.70582031 4.76751953 3.70582031 4.76751953 4.6171875 5.16796875 C6.93630782 6.44307227 8.23555349 7.67813384 9.9375 9.6875 C10.43507813 10.26113281 10.93265625 10.83476563 11.4453125 11.42578125 C12.99674729 13.63768399 13.89672817 15.84136459 14.8125 18.375 C12.1712447 19.82147391 9.52498464 21.25717356 6.875 22.6875 C6.13958984 23.09162109 5.40417969 23.49574219 4.64648438 23.91210938 C-0.33532522 26.5879285 -5.57212456 29.37047092 -11.1875 30.375 C-13.6875 28.8125 -13.6875 28.8125 -16.1875 26.375 C-23.35117174 21.74878434 -30.86425055 21.41084108 -39.1875 22.375 C-42.26946635 23.25697751 -44.59465342 24.51048111 -47.1875 26.375 C-47.81269531 26.7875 -48.43789063 27.2 -49.08203125 27.625 C-54.30334448 31.49426791 -56.76732143 36.07718433 -58.1875 42.375 C-59.00966786 50.6060214 -58.42984317 57.76473339 -55.1875 65.375 C-54.8575 66.365 -54.5275 67.355 -54.1875 68.375 C-53.5275 68.375 -52.8675 68.375 -52.1875 68.375 C-51.135625 69.5196875 -51.135625 69.5196875 -50.0625 70.6875 C-46.64229227 73.88465071 -43.57986497 75.01502089 -39.1875 76.375 C-38.1975 76.705 -37.2075 77.035 -36.1875 77.375 C-28.6095878 78.22316999 -23.02102955 76.497108 -16.1875 73.375 C-15.1975 73.045 -14.2075 72.715 -13.1875 72.375 C-13.1875 71.715 -13.1875 71.055 -13.1875 70.375 C-10.62704298 69.41776492 -9.49281255 69.26128665 -6.890625 70.23046875 C-6.08109375 70.67003906 -5.2715625 71.10960937 -4.4375 71.5625 C-3.55964844 72.02785156 -2.68179688 72.49320312 -1.77734375 72.97265625 C-0.92269531 73.43542969 -0.06804687 73.89820313 0.8125 74.375 C2.204972 75.08991854 3.60052123 75.7988966 5 76.5 C5.63292969 76.81710938 6.26585937 77.13421875 6.91796875 77.4609375 C9.84075429 78.87110619 12.81723745 80.12697394 15.8125 81.375 C10.4124571 92.62301562 0.53645095 101.04132527 -11.1875 105.375 C-27.95147605 110.87567964 -46.24749577 109.91081643 -62.125 102.125 C-63.135625 101.5475 -64.14625 100.97 -65.1875 100.375 C-65.1875 99.715 -65.1875 99.055 -65.1875 98.375 C-65.80625 98.230625 -66.425 98.08625 -67.0625 97.9375 C-69.1875 97.375 -69.1875 97.375 -71.1875 96.375 C-71.1875 95.715 -71.1875 95.055 -71.1875 94.375 C-71.744375 94.148125 -72.30125 93.92125 -72.875 93.6875 C-81.60910018 88.73030801 -87.36652888 78.48282211 -90.41015625 69.234375 C-94.58749392 53.8684897 -94.47270617 38.75583448 -87.1875 24.375 C-86.91292969 23.72144531 -86.63835938 23.06789063 -86.35546875 22.39453125 C-80.69174227 9.43778712 -68.62429662 0.79781991 -55.94921875 -4.55859375 C-38.36630331 -11.34803635 -16.04079924 -10.96336883 0 0 Z " fill="#024F7F" transform="translate(802.1875,89.625)"/>
<path d="M0 0 C11.22 0 22.44 0 34 0 C34 50.82 34 101.64 34 154 C22.78 154 11.56 154 0 154 C0 103.18 0 52.36 0 0 Z " fill="#004E7E" transform="translate(461,42)"/>
<path d="M0 0 C11.22 0 22.44 0 34 0 C34 37.29 34 74.58 34 113 C22.78 113 11.56 113 0 113 C0 75.71 0 38.42 0 0 Z " fill="#004E7E" transform="translate(1108,83)"/>
<path d="M0 0 C11.22 0 22.44 0 34 0 C34 37.29 34 74.58 34 113 C22.78 113 11.56 113 0 113 C0 75.71 0 38.42 0 0 Z " fill="#004E7E" transform="translate(518,83)"/>
<path d="M0 0 C1.1589973 0.68196894 2.30982127 1.37797354 3.453125 2.0859375 C4.0709082 2.45420654 4.68869141 2.82247559 5.32519531 3.2019043 C7.12469244 4.27734479 8.91401157 5.36834516 10.703125 6.4609375 C12.28640125 7.3985339 13.86972824 8.33604463 15.453125 9.2734375 C16.22269531 9.74265625 16.99226563 10.211875 17.78515625 10.6953125 C20.24979324 12.18663234 22.7282411 13.64743276 25.21484375 15.1015625 C26.85697885 16.07517008 28.49890414 17.04913159 30.140625 18.0234375 C30.93500977 18.48274658 31.72939453 18.94205566 32.54785156 19.4152832 C36.71076635 21.90615639 39.79719791 23.79702179 41.703125 28.4609375 C42.171875 30.70703125 42.171875 30.70703125 42.203125 32.8984375 C42.2340625 33.61902344 42.265 34.33960938 42.296875 35.08203125 C41.09784296 39.88604776 37.34954067 43.23693528 33.29321289 45.82275391 C32.01078144 46.58080816 30.72125364 47.32695398 29.42578125 48.0625 C28.73681259 48.46624847 28.04784393 48.86999695 27.33799744 49.28598022 C25.15329567 50.56344926 22.95997261 51.82512357 20.765625 53.0859375 C18.57691421 54.35719134 16.39010279 55.6316467 14.20396423 56.90731812 C12.84908012 57.69644676 11.49238335 58.48247463 10.13356018 59.26480103 C7.15478244 60.98659258 4.27942313 62.74676988 1.42358398 64.67333984 C-1.7016927 66.72694084 -3.56043248 67.38468357 -7.296875 67.4609375 C-11.64545176 66.28166245 -13.68941098 65.50892549 -15.97680664 61.56274414 C-17.96596903 56.46539755 -17.74541642 51.23244634 -17.73046875 45.83203125 C-17.7357106 44.72416763 -17.74095245 43.61630402 -17.74635315 42.47486877 C-17.75275623 40.14088782 -17.75145866 37.80687451 -17.74291992 35.47290039 C-17.73439423 31.90647998 -17.76322285 28.34165371 -17.79492188 24.77539062 C-17.79653369 22.50260464 -17.79595674 20.22981584 -17.79296875 17.95703125 C-17.80420273 16.8943956 -17.81543671 15.83175995 -17.82701111 14.73692322 C-17.76996735 8.6682078 -17.36331139 5.07559328 -13.296875 0.4609375 C-9.03875246 -2.66168569 -4.6229972 -2.15812902 0 0 Z " fill="#F8F8F8" transform="translate(109.296875,130.5390625)"/>
<path d="M0 0 C1.25438633 0.75106707 2.48476061 1.54373304 3.6875 2.375 C4.31527344 2.7875 4.94304687 3.2 5.58984375 3.625 C10.83248606 7.52650125 13.35481388 12.00946396 14.6875 18.375 C15.838176 28.24733041 16.0677915 38.20629346 9.6875 46.375 C4.7857323 51.93112989 -0.83745487 54.9401778 -8.20703125 55.65625 C-17.68406598 55.94234916 -24.49243292 54.14876134 -31.48046875 47.57421875 C-37.30197169 40.5859327 -39.11945632 32.42002849 -38.734375 23.48828125 C-37.72440906 16.03510669 -34.84842846 9.54988965 -29.3125 4.375 C-20.4362228 -0.85972758 -10.00850328 -4.72950841 0 0 Z " fill="#F9FAFB" transform="translate(1037.3125,112.625)"/>
<path d="M0 0 C0 0.66 0 1.32 0 2 C0.75925781 2.25007813 1.51851562 2.50015625 2.30078125 2.7578125 C6.89581776 4.87246027 8.84044965 8.55119658 11 13 C13.67223009 21.3784332 13.25467877 29.55940768 11 38 C7.34480093 45.05831544 1.95902759 49.45722232 -5 53 C-13.11954137 55.54993861 -21.30694124 54.19119474 -29 51 C-29 50.34 -29 49.68 -29 49 C-29.59425781 48.93425781 -30.18851563 48.86851562 -30.80078125 48.80078125 C-33.8897968 47.67600649 -34.58073518 46.00863206 -36.1875 43.1875 C-36.69667969 42.31480469 -37.20585938 41.44210938 -37.73046875 40.54296875 C-41.66649616 32.65880307 -41.2806644 20.42309536 -39.0625 11.9375 C-36.49549295 5.67205625 -30.4429151 0.97145755 -24.5 -2 C-16.50905422 -4.28312737 -7.55598194 -3.43453724 0 0 Z " fill="#F9FAFA" transform="translate(648,114)"/>
<path d="M0 0 C11.22 0 22.44 0 34 0 C34 9.57 34 19.14 34 29 C22.78 29 11.56 29 0 29 C0 19.43 0 9.86 0 0 Z " fill="#004E7E" transform="translate(1108,42)"/>
<path d="M0 0 C11.22 0 22.44 0 34 0 C34 9.57 34 19.14 34 29 C22.78 29 11.56 29 0 29 C0 19.43 0 9.86 0 0 Z " fill="#004E7E" transform="translate(518,42)"/>
<path d="M0 0 C0.99 0.33 1.98 0.66 3 1 C2.01 1 1.02 1 0 1 C0 0.67 0 0.34 0 0 Z M-1 2 C-0.34 2 0.32 2 1 2 C1.66 2.66 2.32 3.32 3 4 C6.08347826 4.16681109 6.08347826 4.16681109 9 4 C8.67 4.99 8.34 5.98 8 7 C7.96125079 8.66621616 7.9549714 10.33394172 8 12 C7.01 11.67 6.02 11.34 5 11 C5 12.65 5 14.3 5 16 C5.99 16 6.98 16 8 16 C6.40311734 19.19376532 3.16616965 20.57591496 0 22 C-0.99 22 -1.98 22 -3 22 C-3.144375 22.804375 -3.28875 23.60875 -3.4375 24.4375 C-4 27 -4 27 -5 28 C-4.34 28.66 -3.68 29.32 -3 30 C-7.62 30 -12.24 30 -17 30 C-17 29.34 -17 28.68 -17 28 C-18.65 28 -20.3 28 -22 28 C-22.33 27.34 -22.66 26.68 -23 26 C-21 25.33333333 -19 24.66666667 -17 24 C-16.08571661 22.09291157 -16.08571661 22.09291157 -16 20 C-16.66 19.34 -17.32 18.68 -18 18 C-18 17.01 -18 16.02 -18 15 C-18.66 14.67 -19.32 14.34 -20 14 C-20 13.34 -20 12.68 -20 12 C-15.33333333 12 -10.66666667 12 -6 12 C-6 12.66 -6 13.32 -6 14 C-3.95310804 13.37371577 -3.95310804 13.37371577 -2 12 C-1.29823412 9.58320293 -1.29823412 9.58320293 -1.25 6.875 C-1.19328125 5.96492188 -1.1365625 5.05484375 -1.078125 4.1171875 C-1.05234375 3.41851562 -1.0265625 2.71984375 -1 2 Z M-24 28 C-22 29 -22 29 -22 29 Z " fill="#FCFCFC" transform="translate(1243,51)"/>
<path d="M0 0 C7.26 0 14.52 0 22 0 C21.01 1.32 20.02 2.64 19 4 C19 5.32 19 6.64 19 8 C18.34 8 17.68 8 17 8 C17 8.99 17 9.98 17 11 C10.73 11 4.46 11 -2 11 C-2 10.34 -2 9.68 -2 9 C-3.32 8.34 -4.64 7.68 -6 7 C-5.34 6.01 -4.68 5.02 -4 4 C-3.34 4 -2.68 4 -2 4 C-1.34 2.68 -0.68 1.36 0 0 Z " fill="#FCFCFC" transform="translate(1116,71)"/>
<path d="M0 0 C2.475 0.99 2.475 0.99 5 2 C5 4.31 5 6.62 5 9 C4.01 8.67 3.02 8.34 2 8 C2 8.66 2 9.32 2 10 C-0.17413762 12.17413762 -1.06553116 12.46646021 -4 13 C-4.99 13 -5.98 13 -7 13 C-6.34 11.68 -5.68 10.36 -5 9 C-19.85 8.505 -19.85 8.505 -35 8 C-35 7.67 -35 7.34 -35 7 C-23.78 7 -12.56 7 -1 7 C-1 5.02 -1 3.04 -1 1 C-0.67 0.67 -0.34 0.34 0 0 Z M-8 14 C-6 15 -6 15 -6 15 Z " fill="#E8EFF2" transform="translate(1278,189)"/>
<path d="M0 0 C0.12375 0.61875 0.2475 1.2375 0.375 1.875 C0.87197356 4.19120832 0.87197356 4.19120832 3 6 C1.90181099 9.29456702 1.08996146 10.45501927 -2 12 C-2 12.66 -2 13.32 -2 14 C-3.093125 13.979375 -4.18625 13.95875 -5.3125 13.9375 C-8.94384191 13.81455548 -8.94384191 13.81455548 -12 15 C-10.63692947 10.99598033 -8.84380836 8.36564298 -6 5.25 C-5.29875 4.47140625 -4.5975 3.6928125 -3.875 2.890625 C-2 1 -2 1 0 0 Z " fill="#EFF3F5" transform="translate(1212,115)"/>
<path d="M0 0 C2.77734375 0.37109375 2.77734375 0.37109375 5.77734375 2.37109375 C4.45734375 2.70109375 3.13734375 3.03109375 1.77734375 3.37109375 C1.77734375 2.71109375 1.77734375 2.05109375 1.77734375 1.37109375 C-4.73988536 1.70819181 -7.54804843 2.81335112 -12.22265625 7.37109375 C-12.55265625 6.71109375 -12.88265625 6.05109375 -13.22265625 5.37109375 C-10.17333528 -0.72754818 -6.113231 -0.12846097 0 0 Z " fill="#D3E0E8" transform="translate(1030.22265625,110.62890625)"/>
<path d="M0 0 C0.66 1.32 1.32 2.64 2 4 C1.01 4.99 0.02 5.98 -1 7 C-1.66 6.01 -2.32 5.02 -3 4 C-2.01 2.68 -1.02 1.36 0 0 Z M-5 5 C-3 6 -3 6 -3 6 Z " fill="#E9EFF3" transform="translate(975,100)"/>
<path d="M0 0 C0.99 0 1.98 0 3 0 C3 1.65 3 3.3 3 5 C0.525 4.01 0.525 4.01 -2 3 C-1.34 2.01 -0.68 1.02 0 0 Z " fill="#E0E9EE" transform="translate(810,164)"/>
<path d="M0 0 C0.66 0.66 1.32 1.32 2 2 C0.35 3.32 -1.3 4.64 -3 6 C-3 4.35 -3 2.7 -3 1 C-2.01 0.67 -1.02 0.34 0 0 Z " fill="#D8E3EA" transform="translate(612,87)"/>
<path d="M0 0 C2.0625 0.4375 2.0625 0.4375 4 1 C3.34 1 2.68 1 2 1 C2 1.66 2 2.32 2 3 C1.34 3 0.68 3 0 3 C0 3.66 0 4.32 0 5 C-0.66 5 -1.32 5 -2 5 C-1.125 1.125 -1.125 1.125 0 0 Z " fill="#EFF3F6" transform="translate(874,125)"/>
<path d="M0 0 C0.99 0.33 1.98 0.66 3 1 C2.34 2.98 1.68 4.96 1 7 C0.67 7 0.34 7 0 7 C0 4.69 0 2.38 0 0 Z " fill="#E6EDF1" transform="translate(1199,95)"/>
<path d="M0 0 C0.99 0.66 1.98 1.32 3 2 C1.625 3.5 1.625 3.5 0 5 C-0.66 5 -1.32 5 -2 5 C-1.34 3.35 -0.68 1.7 0 0 Z " fill="#DAE4EB" transform="translate(1208,87)"/>
<path d="M0 0 C1.32 0.33 2.64 0.66 4 1 C4 1.66 4 2.32 4 3 C2.68 3.33 1.36 3.66 0 4 C0 2.68 0 1.36 0 0 Z " fill="#F1F5F7" transform="translate(998,82)"/>
<path d="M0 0 C1.98 0.495 1.98 0.495 4 1 C3.34 1.66 2.68 2.32 2 3 C1.01 3 0.02 3 -1 3 C-0.67 2.01 -0.34 1.02 0 0 Z " fill="#DDE6EC" transform="translate(1029,79)"/>
<path d="M0 0 C1.32 0 2.64 0 4 0 C3.67 0.99 3.34 1.98 3 3 C2.01 2.01 1.02 1.02 0 0 Z " fill="#D5E0E9" transform="translate(936,94)"/>
<path d="M0 0 C0.66 0.33 1.32 0.66 2 1 C2 1.66 2 2.32 2 3 C1.01 3 0.02 3 -1 3 C-0.67 2.01 -0.34 1.02 0 0 Z " fill="#F3F6F7" transform="translate(990,87)"/>
</svg>
